/* XPM */
static char *result[] = {
/* columns rows colors chars-per-pixel */
"64 64 209 2 ",
"   c #010101",
".  c #0C0203",
"X  c #0E0B0D",
"o  c #080806",
"O  c #130E0D",
"+  c #190807",
"@  c #15100F",
"#  c #18110F",
"$  c #0C0C10",
"%  c #130F10",
"&  c #0B1A1C",
"*  c #0D1318",
"=  c #151214",
"-  c #1B1415",
";  c #1B1618",
":  c #1C1B1C",
">  c #141B17",
",  c #26120B",
"<  c #211C1E",
"1  c #271816",
"2  c #341D1D",
"3  c #210B0A",
"4  c #15201F",
"5  c #27231C",
"6  c #1E1E21",
"7  c #0F1E23",
"8  c #211F22",
"9  c #1C2323",
"0  c #1D2A2A",
"q  c #172829",
"w  c #1B3335",
"e  c #15302B",
"r  c #222224",
"t  c #23262A",
"y  c #282727",
"u  c #332A2A",
"i  c #2A2E31",
"p  c #272F32",
"a  c #2C3135",
"s  c #2E3539",
"d  c #263736",
"f  c #303539",
"g  c #353A3C",
"h  c #343534",
"j  c #463B3B",
"k  c #4A3E3D",
"l  c #443937",
"z  c #4A3533",
"x  c #2C433D",
"c  c #47413E",
"v  c #49413E",
"b  c #243E45",
"n  c #3C3E42",
"m  c #4B3E40",
"M  c #145054",
"N  c #2A4947",
"B  c #2B524F",
"V  c #275958",
"C  c #3B545D",
"Z  c #37575A",
"A  c #3A4A4E",
"S  c #3D5C62",
"D  c #375864",
"F  c #17726D",
"G  c #167471",
"H  c #197473",
"J  c #197A76",
"K  c #1A7D7A",
"L  c #177979",
"P  c #146768",
"I  c #396569",
"U  c #396E74",
"Y  c #356971",
"T  c #267A79",
"R  c #357579",
"E  c #3A7B7E",
"W  c #2E6A66",
"Q  c #4B4242",
"!  c #494A4A",
"~  c #43525C",
"^  c #425759",
"/  c #525454",
"(  c #5D4C4C",
")  c #655957",
"_  c #745C55",
"`  c #78625C",
"'  c #445B64",
"]  c #485B65",
"[  c #446265",
"{  c #486773",
"}  c #5B767D",
"|  c #4C6E74",
" . c #686668",
".. c #866757",
"X. c #9A6C54",
"o. c #986B58",
"O. c #9E7058",
"+. c #A16E58",
"@. c #8C7369",
"#. c #1C817E",
"$. c #1F7E83",
"%. c #257E81",
"&. c #387D81",
"*. c #5D7D84",
"=. c #647A84",
"-. c #6D7985",
";. c #707C86",
":. c #1C8182",
">. c #228284",
",. c #378587",
"<. c #398D93",
"1. c #38999A",
"2. c #309191",
"3. c #36ABA7",
"4. c #3ABFB7",
"5. c #57828B",
"6. c #5E8690",
"7. c #429494",
"8. c #65848C",
"9. c #6A858D",
"0. c #60888E",
"q. c #71838D",
"w. c #708A8C",
"e. c #658B94",
"r. c #6C8994",
"t. c #6A8896",
"y. c #728994",
"u. c #6B939C",
"i. c #64919A",
"p. c #74949D",
"a. c #73959A",
"s. c #42A19F",
"d. c #5D9EA8",
"f. c #6E99A2",
"g. c #759EA5",
"h. c #7A9DA6",
"j. c #769CAC",
"k. c #799EAC",
"l. c #43A1A3",
"z. c #47ABAB",
"x. c #5BA5A9",
"c. c #54A2AB",
"v. c #46B4AF",
"b. c #46B7B8",
"n. c #5EB5BA",
"m. c #58BABA",
"M. c #5EACB5",
"N. c #6DA2AA",
"B. c #7AA4AA",
"V. c #67AEB2",
"C. c #75A8B6",
"Z. c #7EA8B4",
"A. c #66B6BA",
"S. c #40C1BF",
"D. c #3EBFC1",
"F. c #5BB9C2",
"G. c #6ABBC1",
"H. c #71BFC6",
"J. c #3CC4C1",
"K. c #48C9C7",
"L. c #5CC7C8",
"P. c #5CD5DB",
"I. c #56D5D7",
"U. c #4CD4D6",
"Y. c #66C6CA",
"T. c #72C2CB",
"R. c #72C9CC",
"E. c #68C8D3",
"W. c #72C6D0",
"Q. c #6CDCDE",
"!. c #65D4D9",
"~. c #73D7D9",
"^. c #78D6D8",
"/. c #69E0DC",
"(. c #5FDEE3",
"). c #6CDCE3",
"_. c #69DCE7",
"`. c #72DDE4",
"'. c #71DFE8",
"]. c #59E3E5",
"[. c #58E9E8",
"{. c #5FE9F0",
"}. c #66E3E4",
"|. c #6CE4E6",
" X c #6CE4E8",
".X c #68EAED",
"XX c #72E1E5",
"oX c #72E3E9",
"OX c #77E9EB",
"+X c #6AEEF3",
"@X c #74EDF4",
"#X c #6DF2F6",
"$X c #65FEFE",
"%X c #6CFEFE",
"&X c #6AF6F7",
"*X c #75F7FA",
"=X c #74FEFE",
"-X c #78F6F8",
";X c #8C8B89",
":X c #819BA5",
">X c #829DAA",
",X c #84A0AB",
"<X c #83A9B2",
"1X c #86A9B6",
"2X c #87B0BA",
"3X c #90AEC0",
"4X c #96C2CD",
"5X c #84FDFF",
"6X c None",
/* pixels */
"6X6X6X6X6X6X6X6X6X6X6X6X6X6X6X6X6X6X6X6X6X6X6X6X6X6X6XA o & & & & &   h 6X6X6X6X6X6X6X6X6X6X6X6X6X6X6X6X6X6X6X6X6X6X6X6X6X6X6X6X",
"6X6X6X6X6X6X6X6X6X6X6X6X6X6X6X6X6X6X6X6X6X6X6X6X/ > 9 d.[.U.U.U.U.U.[.l.r > ^ 6X6X6X6X6X6X6X6X6X6X6X6X6X6X6X6X6X6X6X6X6X6X6X6X6X",
"6X6X6X6X6X6X6X6X6X6X6X6X6X6X6X6X6X6X6X6X6X6X9   3.U.4.$X_.M.A.G.G.A._.$Xb.U.z.  : 6X6X6X6X6X6X6X6X6X6X6X6X6X6X6X6X6X6X6X6X6X6X6X",
"6X6X6X6X6X6X6X6X6X6X6X6X6X6X6X6X6X6X6X6Xh s b.K.A.H.H.M._.A.9.u.9.A.P.M.T.T.G.K.b.s u 6X6X6X6X6X6X6X6X6X6X6X6X6X6X6X6X6X6X6X6X6X",
"6X6X6X6X6X6X6X6X6X6X6X6X6X6X6X6X6X6XO & s.J.$X~.u.q.y.8.|.Q.f.B.u./..X6.y.r.r.!.$XK.3.& . 6X6X6X6X6X6X6X6X6X6X6X6X6X6X6X6X6X6X6X",
"6X6X6X6X6X6X6X6X6X6X6X6X6X6X6X6X6XA 3.v.E.E.n.!.x.p.<X2XB 0 t i t w | 2X<Xg.d.!.A.W.Y.v.3.Z 6X6X6X6X6X6X6X6X6X6X6X6X6X6X6X6X6X6X",
"6X6X6X6X6X6X6X6X6X6X6X6X6X6X6X6Xd 4.$XY.r.r.0.R.-Xd t a , # ; ; ; 3 y h 9 I -XY.r.q.q.E.%XK.d 6X6X6X6X6X6X6X6X6X6X6X6X6X6X6X6X6X",
"6X6X6X6X6X6X6X6X6X6X6X6X6X6X6Xw v.!.L.E.i.<XB.d B 1 O ; a s a a a f t = O x x ^ B.Z.i.L.L.!.b.e 6X6X6X6X6X6X6X6X6X6X6X6X6X6X6X6X",
"6X6X6X6X6X6X6X6X6X6X6X6X6X6XN F.W.9.e.Q.`.a i + + a f a i i i i p i i a f : + y d V ~.Q.e.=.W.m.A 6X6X6X6X6X6X6X6X6X6X6X6X6X6X6X",
"6X6X6X6X6X6X6X6X6X6X6X6X6XN 3.E.r.f.h.N.B + - f s i i i i i i i i i i i i i f t + 5 W N.h.f.u.W.z.N 6X6X6X6X6X6X6X6X6X6X6X6X6X6X",
"6X6X6X6X6X6X6X6X6X6X6X6X. B =XF.6.B.g.2 + f a i i i i i i i i i i i i i i i p a g 1 + / k.,X8.m.=XV . 6X6X6X6X6X6X6X6X6X6X6X6X6X",
"6X6X6X6X6X6X6X6X6X6X6X6XN l.P.!.`.f.y # a a i i i i i i i i i i i i i i i i i i p s < + ~ g.~.I.!.l.B 6X6X6X6X6X6X6X6X6X6X6X6X6X",
"6X6X6X6X6X6X6X6X6X6X6Xv W 5X} V.Y.0 # f i i i i i i i i i i i i i i i i i i i i i i d < + i Y.C.} 5XR u 6X6X6X6X6X6X6X6X6X6X6X6X",
"6X6X6X6X6X6X6X6X6X6X6X[ 1.Y.a.1X]   g i i i i i i i i i i i i i i i i i i i i i i i p g , # | 2Xu.T.s.N 6X6X6X6X6X6X6X6X6X6X6X6X",
"6X6X6X6X6X6X6X6X6X6X  T #X*.p.y.n : i i i i i i i i i i i i i i i i i i i i i i i i i i t y / u.a.} OXP ( 6X6X6X6X6X6X6X6X6X6X6X",
"6X6X6X6X6X6X6X6X6X6XZ 2./.I.4X^   n i i i i i i i i i i i i i i i i i i i i i i i i i i f - > | ^.Y.|.1.^ 6X6X6X6X6X6X6X6X6X6X6X",
"6X6X6X6X6X6X6X6X6X2 2.XXx.%XE.h - a i i i i i i i i i i i i i i i i i i i i i i i i i i a t < Z Y.%Xx.oX7.1 6X6X6X6X6X6X6X6X6X6X",
"6X6X6X6X6X6X6X6X6Xu >.@Xt.k.Z . g p i i i i i i i i i i i i i i i i i i i i i i i i i i i a 1 O C B.8.OX<.5 6X6X6X6X6X6X6X6X6X6X",
"6X6X6X6X6X6X6X6X6X2 T *Xe.2X{ . a i i i i i i i i i i i i i i i i i i i i i i i i i i i i a ; r { 3Xe.#X,.2 6X6X6X6X6X6X6X6X6X6X",
"6X6X6X6X6X6X6X6X6X* 1.R.q.f.A = a i i i i i i i i i i i i i i i i i i i i i i i i i i i i a r r [ p.q.R.7.q 6X6X6X6X6X6X6X6X6X6X",
"6X6X6X6X6X6X6X6Xk T &Xc.R.I . f i i i i i i i i i i i i i i i i i i i i i i i i i i i i i i f ; > I R.x.*X%.j 6X6X6X6X6X6X6X6X6X",
"6X6X6X6X6X6X6X6XQ G %X.X%X2.. f i i i i i i i i i i i i i i i i i i i i i i i i i i i i i i s - 9 U `.m.%XL j 6X6X6X6X6X6X6X6X6X",
"6X6X6X6X6X6X6X6XQ T  X=.h.C . f i i i i i i i i i i i i i i i i i i i i i i i i i i i i i i a : ; Z B.5. X#.k 6X6X6X6X6X6X6X6X6X",
"6X6X6X6X6X6X6X6XQ K '.t.<X' O a i i i i i i i i i i i i i i i i i i i i i i i i i i i i i i i 6 6 [ <X9.XX#.m 6X6X6X6X6X6X6X6X6X",
"6X6X6X6X6X6X6X6XQ #.oX;.h.' ; a i i i i i i i i i i i i i i i i i i i i i i i i i i i i i i i r t ' j.*.`.#.k 6X6X6X6X6X6X6X6X6X",
"6X6X6X6X6X6X6X6XQ #..XA.~.[ ; a i i i i i i i i i i i i i i i i i i i i i i i i i i i i i i i r p R &XP. XK k 6X6X6X6X6X6X6X6X6X",
"6X6X6X6X6X6X6X6XQ F $X].=X<.1 a i i i i i i i i i i i i i i i i i i i i i i i i i i i i i i i : d &.*X!.$XJ v 6X6X6X6X6X6X6X6X6X",
"6X6X6X6X6X6X6X6XQ J +X6.C.I = a i i i i i i i i i i i i i i i i i i i i i i i i i i i i i i i 5 r D h.*.&XK v 6X6X6X6X6X6X6X6X6X",
"6X6X6X6X6X6X6X6XQ K XXq.<X~ = a i i i i i i i i i i i i i i i i i i i i i i i i i i i i i i a 6 8 ] <Xe.`.:.v 6X6X6X6X6X6X6X6X6X",
"6X6X6X6X6X6X6X6XQ K  X;.,XC + s i i i i i i i i i i i i i i i i i i i i i i i i i i i i i i a 6 : ' :X=.oX#.k 6X6X6X6X6X6X6X6X6X",
"6X6X6X6X6X6X6X6XQ K _.d.T.Y . f i i i i i i i i i i i i i i i i i i i i i i i i i i i i i i a : ; U ^.n.).#.k 6X6X6X6X6X6X6X6X6X",
"6X6X6X6X6X6X6X6XQ G %X(.=X<.. a i i i i i i i i i i i i i i i i i i i i i i i i i i i i i i a ; t ,.=X].%XG m 6X6X6X6X6X6X6X6X6X",
"6X6X6X6X6X6X6X6XQ H $Xn.'.&.. f i i i i i i i i i i i i i i i i i i i i i i i i i i i i i i a ; r U '.m.%XJ k 6X6X6X6X6X6X6X6X6X",
"6X6X6X6X6X6X6X6XQ K ).=.j.D . f i i i i i i i i i i i i i i i i i i i i i i i i i i i i i i i 6 : S g.8.Q.#.Q 6X6X6X6X6X6X6X6X6X",
"6X6X6X6X6X6X6X6XQ K '.t.1XD . f i i i i i i i i i i i i i i i i i i i i i i i i i i i i i i a : : S <X9.|.#.Q 6X6X6X6X6X6X6X6X6X",
"6X6X6X6X6X6X6X6XQ #._.*.j.C . f i i i i i i i i i i i i i i i i i i i i i i i i i i i i i i a : ; ' k.5.).#.c 6X6X6X6X6X6X6X6X6X",
"6X6X6X6X6X6X6X6XQ G $XP.@X&.o f i i i i i i i i i i i i i i i i i i i i i i i i i i i i i i i ; 9 R #XP.%XJ k 6X6X6X6X6X6X6X6X6X",
"6X6X6X6X6X6X6X6XQ H $XP.*X,.o f i i i i i i i i i i i i i i i i i i i i i i i i i i i i i i a ; u #.-XP.%XJ k 6X6X6X6X6X6X6X6X6X",
"6X6X6X6X6X6X6X6XQ K `.} k.Z . f i i i i i i i i i i i i i i i i i i i i i i i i i i i i i i a 6 < ] >X=.).:.Q 6X6X6X6X6X6X6X6X6X",
"6X6X6X6X6X6X6X6XQ T OXy.2XD . f i i i i i i i i i i i i i i i i i i i i i i i i i i i i i i i : : [ <Xe.`.:.Q 6X6X6X6X6X6X6X6X6X",
"6X6X6X6X6X6X6X6XQ K XX-.h.C O f i i i i i i i i i i i i i i i i i i i i i i i i i i i i i i a 6 : ] >X=.).:.Q 6X6X6X6X6X6X6X6X6X",
"6X6X6X6X6X6X6X6XQ H %XA.~.U . i i i i i i i i i i i i i i i i i i i i i i i i i i i i i i i a : 9 Y ^.m.&XK Q 6X6X6X6X6X6X6X6X6X",
"6X6X6X6X6X6X6X6XQ H %X].%X<.. s i i i i i i i i i i i i i i i i i i i i i i i i i i i i i i h - 0 ,.%X[.$XL j 6X6X6X6X6X6X6X6X6X",
"6X6X6X6X6X6X6X6XQ K }.0.C.D O s i i i i i i i i i i i i i i i i i i i i i i i i i i i i i i a : : ' C.5.'.:.m 6X6X6X6X6X6X6X6X6X",
"6X6X6X6X6X6X6X6XQ K  X9.<XZ O a i i i i i i i i i i i i i i i i i i i i i i i i i i i i i i a : : ' ,X9.'.>.m 6X6X6X6X6X6X6X6X6X",
"6X6X6X6X6X6X6X6XQ K ).;.,XC . f i i i i i i i i i i i i i i i i i i i i i i i i i i i i i i a : > ' ,X8.`.:.Q 6X6X6X6X6X6X6X6X6X",
"6X6X6X6X6X6X6X6XQ J #Xd.T.Y . s i i i i i i i i i i i i i i i i i i i i i i i i i i i i i i a ; 9 I T.c.+X%.v 6X6X6X6X6X6X6X6X6X",
"6X6X6X6X6X6X6X6XQ F $X{.=X<.. h i i i i i i i i i i i i i i i i i i i i i i i i i i i i i i a - 9 U XXF.%XJ k 6X6X6X6X6X6X6X6X6X",
"6X6X6X6X6X6X6X6XQ J +X=.h.Z . f i i i i i i i i i i i i i i i i i i i i i i i i i i i i i i i : : Z B.5..X#.v 6X6X6X6X6X6X6X6X6X",
"6X6X6X6X6X6X6X6XQ K XXr.<XC O a i i i i i i i i i i i i i i i i i i i i i i i i i i i i i i s 6 : [ <X9.XX:.v 6X6X6X6X6X6X6X6X6X",
"6X6X6X6X6X6X6X6XQ #.oX-.:X] ; i i i i i i i i i i i i i i i i i i i i i i i i i i i i i i i i r 5 ' k.5._.:.m 6X6X6X6X6X6X6X6X6X",
"6X6X6X6X6X6X6X6XQ K |.n.~.S : i i i i i i i i i i i i i i i i i i i i i i i i i i i i i i i i < 0 R +XP.|.:.m 6X6X6X6X6X6X6X6X6X",
"6X6X6X6X6X6X6X6XQ F $X].%X<.1 i i i i i i i i i i i i i i i i i i i i i i i i i i i i i i i a ; p E -XP.%XL m 6X6X6X6X6X6X6X6X6X",
"6X6X6X6X6X6X6X6XQ J &X6.C.D 1 a i i i i i i i i i i i i i i i i i i i i i i i i i i i i i i a : : C h.=.&X%.Q 6X6X6X6X6X6X6X6X6X",
"6X6X6X6X6X6X6X6XQ K `.q.<XZ - a i i i i i i i i i i i i i i i i i i i i i i i i i i i i i i a 6 : ] <Xe.).>.Q 6X6X6X6X6X6X6X6X6X",
"6X6X6X6X6X6X6X6XQ K oX;.>XC + h i i i i i i i i i i i i i i i i i i i i i i i i i i i i i i i 8 9 ' :X=.'.$.Q 6X6X6X6X6X6X6X6X6X",
"6X6X6X6X6X6X6X6XQ K }.x.T.Y . f i i i i i i i i i i i i i i i i i i i i i i i i i i i i i i a < 8 Y ~.n.).%.c 6X6X6X6X6X6X6X6X6X",
"6X6X6X6X6X6X6X6XQ H $XP.=X,.. f i i i i i i i i i i i i i i i i i i i i i i i i i i i i i i a ; 0 &.=X(.%XL v 6X6X6X6X6X6X6X6X6X",
"6X6X6X6X6X6X6X6XQ H %XY.OXE . a i i i i i i i i i i i i i i i i i i i i i i i i i i i i i a a : : R OXL.$XL v 6X6X6X6X6X6X6X6X6X",
"6X6X6X6X6X6X6X6XQ K XX=.j.D . g i i i i i i i i i i i i i i i i i i i i i i i i i i i i i i a 6 ; ] h.*.).:.c 6X6X6X6X6X6X6X6X6X",
"6X6X6X6X6X6X6X6XQ K XXt.Z.D X s i i i i i i i i i i i i i i i i i i i i i i i i i i i i i i a 6 : ] 1X6.oX:.Q 6X6X6X6X6X6X6X6X6X",
"6X6X6X6X6X6X6X6Xz T 5Xh.4X{ . s i i i i i i i i i i i i i i i i i i i p i i i i i i i i i i a 6 r ] 4XN.5X>.l 6X6X6X6X6X6X6X6X6X",
"6X6X6X6X6X6X6X6X;XW M w b 7   * = @ @ @ X @ @ @ O = O X O = O % O O X X O O % O = $ $ O % % = .   w b w M V ;X6X6X6X6X6X6X6X6X6X",
"6X6X6X6X6X6X6X6X6X6Xj ! ! /  . .@.X.+.../ ..X.X.X.X.X.) _ X.o.X.X.O.` ) o.X.X.o.o.o.( ..+.o.o.) / / ! / j 6X6X6X6X6X6X6X6X6X6X6X"
};
