/* XPM */
static char *result[] = {
/* columns rows colors chars-per-pixel */
"64 64 161 2 ",
"   c #250806",
".  c #2F0A03",
"X  c #301813",
"o  c #381D15",
"O  c #321B1A",
"+  c #351F20",
"@  c #3B2523",
"#  c #3F2822",
"$  c #32262C",
"%  c #3B2A29",
"&  c #4F2F1A",
"*  c #4B301E",
"=  c #553114",
"-  c #56371D",
";  c #56381C",
":  c #5C3B1D",
">  c #623A16",
",  c #623E1D",
"<  c #4A2F27",
"1  c #4D252D",
"2  c #502D28",
"3  c #43302F",
"4  c #5B3C23",
"5  c #563C24",
"6  c #433635",
"7  c #473936",
"8  c #4A3837",
"9  c #423339",
"0  c #4B3A3A",
"q  c #533231",
"w  c #5A3A36",
"e  c #513D3B",
"r  c #5D3F3C",
"t  c #613F22",
"y  c #7F3B37",
"u  c #64411F",
"i  c #6D411C",
"p  c #714217",
"a  c #5D4125",
"s  c #5D4228",
"d  c #624223",
"f  c #694624",
"g  c #6B4827",
"h  c #634529",
"j  c #6F462D",
"k  c #65482B",
"l  c #6A4A2B",
"z  c #704322",
"x  c #7D4D22",
"c  c #744B28",
"v  c #7D542C",
"b  c #664C31",
"n  c #694E31",
"m  c #754D36",
"M  c #734C3C",
"N  c #655037",
"B  c #6B5235",
"V  c #66523B",
"C  c #6C553A",
"Z  c #735232",
"A  c #7D5634",
"S  c #735639",
"D  c #75593B",
"F  c #7B5B3C",
"G  c #5D4346",
"H  c #684847",
"J  c #664E4F",
"K  c #67504D",
"L  c #6A5A43",
"P  c #745B41",
"I  c #735654",
"U  c #7D6043",
"Y  c #7F624A",
"T  c #814E22",
"R  c #8C5626",
"E  c #82552C",
"W  c #84592E",
"Q  c #88592E",
"!  c #845D36",
"~  c #8B5C32",
"^  c #865E39",
"/  c #885F39",
"(  c #955F31",
")  c #876037",
"_  c #8F6437",
"`  c #87613B",
"'  c #8B623A",
"]  c #916035",
"[  c #8F5657",
"{  c #945B5B",
"}  c #836344",
"|  c #8C6640",
" . c #8E6944",
".. c #8E6D49",
"X. c #926C45",
"o. c #946F49",
"O. c #9B6C42",
"+. c #95734C",
"@. c #99734B",
"#. c #987652",
"$. c #927352",
"%. c #A6774C",
"&. c #A07D56",
"*. c #BFA245",
"=. c #A88760",
"-. c #C0AC50",
";. c #76969F",
":. c #7A9899",
">. c #B29E90",
",. c #BCA596",
"<. c #B5AB9B",
"1. c #BFB4A3",
"2. c #C5AD94",
"3. c #C2B29E",
"4. c #C2B7A5",
"5. c #CABCA7",
"6. c #C4BBAC",
"7. c #C9BCAA",
"8. c #D0BBA4",
"9. c #D1BEAA",
"0. c #C4BDB1",
"q. c #CDC0AD",
"w. c #D8C3A7",
"e. c #D3C2AC",
"r. c #C6C2B3",
"t. c #CCC4B5",
"y. c #CBC6B8",
"u. c #CCCABE",
"i. c #D9C6B1",
"p. c #DBCDB4",
"a. c #D3CBBB",
"s. c #DBCBB8",
"d. c #DBD3BF",
"f. c #E4CBAD",
"g. c #E0D0B4",
"h. c #E1D5BD",
"j. c #CECDC1",
"k. c #D1CFC2",
"l. c #D7D2C3",
"z. c #DCD3C3",
"x. c #D7DBCF",
"c. c #E1D7C1",
"v. c #E5D9C2",
"b. c #EADDC5",
"n. c #E2D9CA",
"m. c #EDE2CA",
"M. c #F7E6CB",
"N. c #F3E8CE",
"B. c #E9E4D4",
"V. c #F3E7D0",
"C. c #F3EAD4",
"Z. c #FAEED6",
"A. c #F5EFDA",
"S. c #F8EED9",
"D. c #F7F0DC",
"F. c #FCF4DC",
"G. c #FEF7E1",
"H. c #FFFAE3",
"J. c #FFFFEC",
"K. c #FFFFF1",
"L. c None",
/* pixels */
"L.L.L.L.L.L.L.L.L.L.L.L.L.L.L.L.L.L.L.L.L.L.L.L.L.L.L.L.L.L.L.L.L.L.L.L.L.L.L.L.L.L.L.L.L.L.L.L.L.L.L.L.L.L.L.L.L.L.L.L.L.L.L.L.",
"L.L.L.L.L.L.L.L.L.L.L.L.L.L.L.L.L.L.L.L.L.L.L.L.L.L.L.L.L.L.L.L.L.L.L.L.L.L.L.L.L.L.L.L.L.L.L.L.L.L.L.L.L.L.L.L.L.L.L.L.L.L.L.L.",
"L.L.L.L.L.L.L.L.L.L.L.L.L.L.L.L.L.L.L.L.L.L.L.L.L.L.L.L.L.L.L.L.L.L.L.L.L.L.L.L.L.L.L.L.L.L.L.L.L.L.L.L.L.L.L.L.L.L.L.L.L.L.L.L.",
"L.L.L.L.L.L.L.L.L.L.L.L.L.L.L.L.L.L.L.L.L.L.L.L.L.L.L.L.L.L.L.L.L.L.L.L.L.L.L.L.L.L.L.L.L.L.L.L.L.L.L.L.L.L.L.L.L.L.L.L.L.L.L.L.",
"L.L.L.L.L.L.L.L.L.L.L.L.L.L.L.L.L.L.L.L.L.L.L.L.L.L.L.L.L.L.L.L.L.L.L.L.L.L.L.L.L.L.L.L.L.L.L.L.L.L.L.L.L.L.L.L.L.L.L.L.L.L.L.L.",
"L.L.L.L.L.L.L.L.L.L.L.L.L.L.L.L.L.L.L.L.L.L.L.L.L.L.L.L.L.L.L.L.L.L.L.L.L.L.L.L.L.L.L.L.L.L.L.L.L.L.L.L.L.L.L.L.L.L.L.L.L.L.L.L.",
"L.L.L.L.L.L.L.L.L.L.L.L.L.L.L.L.L.L.L.L.L.L.L.L.L.L.L.L.L.L.L.L.L.L.L.L.L.L.L.L.L.L.L.L.L.L.L.L.L.L.L.L.L.L.L.L.L.L.L.L.L.L.L.L.",
"L.L.L.L.L.L.L.L.L.L.L.L.L.L.L.L.L.L.L.L.L.L.L.L.L.L.L.L.L.L.L.L.L.L.L.L.L.L.L.L.L.L.L.L.L.L.L.L.L.L.L.L.L.L.L.L.L.L.L.L.L.L.L.L.",
"L.L.L.L.L.L.L.L.L.L.L.L.L.L.L.L.L.L.L.L.L.L.L.L.L.L.L.L.L.L.L.L.L.L.L.L.L.L.L.L.L.L.L.L.L.L.L.L.L.L.L.L.L.L.L.L.L.L.L.L.L.L.L.L.",
"L.L.L.L.L.L.L.L.L.L.L.L.L.L.L.L.L.L.L.L.L.L.L.L.L.L.L.L.L.L.L.L.L.L.L.L.L.L.L.L.L.L.L.L.L.L.L.L.L.L.L.L.L.L.L.L.L.L.L.L.L.L.L.L.",
"L.L.L.L.L.L.L.L.L.L.L.L.L.L.L.L.L.L.L.L.L.L.L.L.L.L.L.L.L.L.L.L.L.L.L.L.L.L.L.L.L.L.L.L.L.L.L.L.L.L.L.L.L.L.L.L.L.L.L.L.L.L.L.L.",
"L.L.L.L.L.L.L.L.L.L.L.L.L.L.L.L.L.L.L.L.L.L.L.L.L.L.L.L.L.L.L.L.L.L.L.L.L.L.L.L.L.L.L.L.L.L.L.L.L.L.L.L.L.L.L.L.L.L.L.L.L.L.L.L.",
"L.L.L.L.L.L.L.L.L.L.L.L.L.L.L.L.L.L.L.L.L.L.L.L.L.L.L.L.L.L.L.L.L.L.L.L.L.L.L.L.L.L.L.L.L.L.L.L.L.L.L.L.L.L.L.L.L.L.L.L.L.L.L.L.",
"L.L.L.L.L.L.L.L.L.L.L.L.L.L.L.L.L.L.L.L.L.L.L.L.L.L.L.L.L.L.L.L.L.L.L.L.L.L.L.L.L.L.L.L.L.L.L.L.L.L.L.L.L.L.L.L.L.L.L.L.L.L.L.L.",
"L.L.L.L.L.L.L.L.L.L.L.L.L.L.L.L.L.L.L.L.L.L.L.L.L.L.L.L.L.L.L.L.L.L.L.L.L.L.L.L.L.L.L.L.L.L.L.L.L.L.L.L.L.L.L.L.L.L.L.L.L.L.L.L.",
"L.L.L.L.L.L.L.L.L.L.L.L.L.L.L.L.L.L.L.L.L.L.L.L.L.L.L.L.L.L.L.L.L.L.L.L.L.L.L.L.L.L.L.L.L.L.L.L.L.L.L.L.L.L.L.L.L.L.L.L.L.L.L.L.",
"L.L.L.L.L.L.L.L.L.L.L.L.L.L.L.L.L.L.L.L.L.L.L.L.L.L.L.L.L.L.L.L.L.L.L.L.L.L.L.L.L.L.L.L.L.L.L.L.L.L.L.L.L.L.L.L.L.L.L.L.L.L.L.L.",
"L.L.L.L.L.L.L.L.L.L.L.L.L.L.L.L.L.L.L.L.L.L.L.L.L.L.L.L.L.L.L.L.L.L.L.L.L.L.L.L.L.L.L.L.L.C L.L.V L.L.L.L.L.L.L.L.L.L.L.L.L.L.L.",
"L.L.L.L.L.L.L.L.L.L.L.L.L.L.L.L.L.L.L.L.L.L.L.L.L.L.L.L.L.L.L.L.L.L.L.L.L.L.L.L.L.L.L.L.h @ L.N o L.L.L.L.L.L.L.L.L.L.L.L.L.L.L.",
"L.L.L.L.L.L.L.L.L.L.L.L.L.L.L.L.L.L.L.L.L.L.L.L.L.L.L.L.L.L.L.L.L.L.L.L.L.L.L.L.L.L.L.N = @ F > : o...L.L.L.L.L.L.L.L.L.L.L.L.L.",
"L.L.L.L.L.L.L.L.L.L.L.L.L.L.u.z.z.l.L.L.L.L.L.L.L.L.L.L.L.L.L.L.L.L.L.L.L.L.L.L.L.L.B > h h ~ X.=.w.] F L.L.L.L.L.L.L.L.L.L.L.L.",
"L.L.L.L.L.L.L.L.L.L.L.L.L.u.i.b.M.M.C.k.L.L.L.L.L.L.L.L.L.L.L.L.L.L.L.L.L.L.L.L.L.B T ^ ! W ' c.y.0 c R ! L.L.L.L.L.L.L.L.L.L.L.",
"L.L.L.L.L.L.L.L.L.L.L.L.u.9.X.' v ^ e.s.t.L.L.L.L.L.L.L.L.L.L.L.L.L.L.L.L.L.L.L.B T ' ' ' _ ! e 9 O W ~ / +.+.+ $ L.L.L.L.L.L.L.",
"L.L.L.L.L.L.L.L.L.L.L.L.e.' > - % % 4 X.t.L.L.L.L.L.L.L.L.L.L.L.L.L.L.L.L.L.L.B T ) ' ^ ) ) v A 5.` i X.b.H.e..   L.L.L.L.L.L.L.",
"L.L.L.L.L.L.L.L.L.L.L.L.r.' = % L.L.X x a.L.L.L.L.L.L.L.L.L.L.L.L.L.L.L.L.L.C T ' ' ^ ^ E ^ v &.N.@.' b.K.n.Y a V L.L.L.L.L.L.L.",
"L.L.L.L.L.L.L.L.L.L.L.L.L.4.< * 7 6 f &.1.P h n n n n n k n B n n n b n b r A _ ) ^ ^ ` o.x ! v.D.m.m.H.m.A y L.L.L.L.L.L.L.L.L.",
"L.L.L.L.L.L.L.L.L.L.L.L.L.y.b o & =  .<.8 = , u u , : u u , , u t u u i E t w ! ' ) E o.p. .' C.G.S.l.y.a.<.m [ L.L.L.L.L.L.L.L.",
"L.L.L.L.L.L.L.L.L.L.L.L.L.L.B : # @ @ 3 4 l l k k h l ) ) l h h h h ^ / ' ! h w ! _ ^ E  .v.C.C.M.y.L.L.L.L.L.j { L.L.L.L.L.L.L.",
"L.L.L.L.L.L.L.L.L.L.L.L.L.L.B u s s 5 4 ) _ ! k s l ^ ' ' ^ l h h l / ' / ' ! 4 w ! ' E ' C.J.Z.y.L.L.L.L.L.L.L.L.L.L.L.L.L.L.L.",
"L.L.L.L.L.L.L.L.L.L.L.L.L.C E l l l l ^ ' _ ' k h ^ ' / / ' ^ h h / ' / / ^ _ X.4 2 z ^ N.J.Z.6.L.L.L.L.L.L.L.L.L.L.L.L.L.L.L.L.",
"L.L.L.L.L.L.L.L.L.L.L.L.L.f E ' ^ ^ ^ ' / / ! l ! ' / ^ ^ / ' ! l ! / ' / v o.g.@.h q H z.z.,.J L.L.L.L.L.L.L.L.L.L.L.L.L.L.L.L.",
"L.L.L.L.L.L.L.L.L.L.L.L.L.B E ' ` ' / ^ ' ! l A _ ) ^ ) ) / / ' ! l k ^ ` ^ W #.m.B.y.6.I 1 G L.L.L.L.L.L.L.L.L.L.L.L.L.L.L.L.L.",
"L.L.L.L.L.L.L.L.L.L.L.L.L.k Q ' / ^ ^ / ' ^ h l ! ' ' ' / / ) ^ ' ! h k ) ' v ^ D.J.G.F.>.w ;.L.L.L.L.L.L.L.L.L.L.L.L.L.L.L.L.L.",
"L.L.L.L.L.L.L.L.L.L.L.L.L.B E ) ^ ) / ^ ' ! t - a v v v ' ` ' ' ' ' l h ! ' v ' v.F.F.0.P *.L.L.L.L.L.L.L.L.L.L.L.L.L.L.L.L.L.L.",
"L.L.L.L.L.L.L.L.L.L.L.L.L.L.n E ) ) ^ ' ^ l b n l Z Z Z v v v v v v v 4 4 ^ ' v o.N.x.L.w -.L.L.L.L.L.L.L.L.L.L.L.L.L.L.L.L.L.L.",
"L.L.L.L.L.L.L.L.L.L.L.L.L.L.n E ' ) / ' v n 4.a.q.6.t.4.S l Z Z D D B l l ! ' W ~ 6.L.L.L.J L.L.L.L.L.L.L.L.L.L.L.L.L.L.L.L.L.L.",
"L.L.L.L.L.L.L.L.L.L.L.L.L.L.B E ' ' _ E t D y.n.k.L.L.L.6.6.6.6.4.4.6.a.5.g v _ E B L.L.L.L.L.L.L.L.L.L.L.L.L.L.L.L.L.L.L.L.L.L.",
"L.L.L.L.L.L.L.L.L.L.L.L.L.L.n E ' E E n l F e.s.L.L.L.L.L.L.L.L.P | y.B.y.C v ' E h L.L.L.L.L.L.L.L.L.L.L.L.L.L.L.L.L.L.L.L.L.L.",
"L.L.L.L.L.L.L.L.L.L.L.L.L.L.n x E l L L.S c e.j.L.L.L.L.L.L.L.L.g i e.k.L.L.l Q E h L.L.L.L.L.L.L.L.L.L.L.L.L.L.L.L.L.L.L.L.L.L.",
"L.L.L.L.L.L.L.L.L.L.L.L.L.k x ] S L.L.L.Z ! 6.L.L.L.L.L.L.L.L.L.g ! 0.L.L.L.C E Q S L.L.L.L.L.L.L.L.L.L.L.L.L.L.L.L.L.L.L.L.L.L.",
"L.L.L.L.L.L.L.L.L.L.L.L.k T %.d.L.L.L.L.^ 3.L.L.L.L.L.L.L.L.L.m ! 6.L.L.L.L.L., ] z.L.L.L.L.L.L.L.L.L.L.L.L.L.L.L.L.L.L.L.L.L.L.",
"L.L.L.L.L.L.L.L.L.L.L.a ( b.B.L.L.L.L.L.F y.L.L.L.L.L.L.L.L.n T 6.L.L.L.L.L.L.h _ C.L.L.L.L.L.L.L.L.L.L.L.L.L.L.L.L.L.L.L.L.L.L.",
"L.L.L.L.L.L.L.L.L.L.k ( h.L.L.L.L.L.L.L.} 3.L.L.L.L.L.L.L.:.^ 4.L.L.L.L.L.L.L.L.D h.L.L.L.L.L.L.L.L.L.L.L.L.L.L.L.L.L.L.L.L.L.L.",
"L.L.L.L.L.L.L.L.L.L.Z v.L.L.L.L.L.L.L.L.L.} 7.L.L.L.L.L.P ' 7.L.L.L.L.L.L.L.L.L.Z b.L.L.L.L.L.L.L.L.L.L.L.L.L.L.L.L.L.L.L.L.L.L.",
"L.L.L.L.L.L.L.L.L.L.F h.L.L.L.L.L.L.L.L.L.F 4.L.L.L.L.L.4.8.u.L.L.L.L.L.L.L.L.L.P p.L.L.L.L.L.L.L.L.L.L.L.L.L.L.L.L.L.L.L.L.L.L.",
"L.L.L.L.L.L.L.L.L.L.: ] m.L.L.L.L.L.L.L.L.L.F 2.a.L.L.L.L.L.L.L.L.L.L.L.L.L.L.L.L.S f.A.L.L.L.L.L.L.L.L.L.L.L.L.L.L.L.L.L.L.L.L.",
"L.L.L.L.L.L.L.L.L.L.h ~ b.L.L.L.L.L.L.L.L.L.n / r.L.L.L.L.L.L.L.L.L.L.L.L.L.L.L.L.s O.m.L.L.L.L.L.L.L.L.L.L.L.L.L.L.L.L.L.L.L.L.",
"L.L.L.L.L.L.L.L.L.L.L.L.L.L.L.L.L.L.L.L.L.L.L.L.L.L.L.L.L.L.L.L.L.L.L.L.L.L.L.L.L.L.L.L.L.L.L.L.L.L.L.L.L.L.L.L.L.L.L.L.L.L.L.L.",
"L.L.L.L.L.L.L.L.L.L.L.L.L.L.L.L.L.L.L.L.L.L.L.L.L.L.L.L.L.L.L.L.L.L.L.L.L.L.L.L.L.L.L.L.L.L.L.L.L.L.L.L.L.L.L.L.L.L.L.L.L.L.L.L.",
"L.L.L.L.L.L.L.L.L.L.L.L.L.L.L.L.L.L.L.L.L.L.L.L.L.L.L.L.L.L.L.L.L.L.L.L.L.L.L.L.L.L.L.L.L.L.L.L.L.L.L.L.L.L.L.L.L.L.L.L.L.L.L.L.",
"L.L.L.L.L.L.L.L.L.L.L.L.L.L.L.L.L.L.L.L.L.L.L.L.L.L.L.L.L.L.L.L.L.L.L.L.L.L.L.L.L.L.L.L.L.L.L.L.L.L.L.L.L.L.L.L.L.L.L.L.L.L.L.L.",
"L.L.L.L.L.L.L.L.L.L.L.L.L.L.L.L.L.L.L.L.L.L.L.L.L.L.L.L.L.L.L.L.L.L.L.L.L.L.L.L.L.L.L.L.L.L.L.L.L.L.L.L.L.L.L.L.L.L.L.L.L.L.L.L.",
"L.L.L.L.L.L.L.L.L.L.L.L.L.L.L.L.L.L.L.L.L.L.L.L.L.L.L.L.L.L.L.L.L.L.L.L.L.L.L.L.L.L.L.L.L.L.L.L.L.L.L.L.L.L.L.L.L.L.L.L.L.L.L.L.",
"L.L.L.L.L.L.L.L.L.L.L.L.L.L.L.L.L.L.L.L.L.L.L.L.L.L.L.L.L.L.L.L.L.L.L.L.L.L.L.L.L.L.L.L.L.L.L.L.L.L.L.L.L.L.L.L.L.L.L.L.L.L.L.L.",
"L.L.L.L.L.L.L.L.L.L.L.L.L.L.L.L.L.L.L.L.L.L.L.L.L.L.L.L.L.L.L.L.L.L.L.L.L.L.L.L.L.L.L.L.L.L.L.L.L.L.L.L.L.L.L.L.L.L.L.L.L.L.L.L.",
"L.L.L.L.L.L.L.L.L.L.L.L.L.L.L.L.L.L.L.L.L.L.L.L.L.L.L.L.L.L.L.L.L.L.L.L.L.L.L.L.L.L.L.L.L.L.L.L.L.L.L.L.L.L.L.L.L.L.L.L.L.L.L.L.",
"L.L.L.L.L.L.L.L.L.L.L.L.L.L.L.L.L.L.L.L.L.L.L.L.L.L.L.L.L.L.L.L.L.L.L.L.L.L.L.L.L.L.L.L.L.L.L.L.L.L.L.L.L.L.L.L.L.L.L.L.L.L.L.L.",
"L.L.L.L.L.L.L.L.L.L.L.L.L.L.L.L.L.L.L.L.L.L.L.L.L.L.L.L.L.L.L.L.L.L.L.L.L.L.L.L.L.L.L.L.L.L.L.L.L.L.L.L.L.L.L.L.L.L.L.L.L.L.L.L.",
"L.L.L.L.L.L.L.L.L.L.L.L.L.L.L.L.L.L.L.L.L.L.L.L.L.L.L.L.L.L.L.L.L.L.L.L.L.L.L.L.L.L.L.L.L.L.L.L.L.L.L.L.L.L.L.L.L.L.L.L.L.L.L.L.",
"L.L.L.L.L.L.L.L.L.L.L.L.L.L.L.L.L.L.L.L.L.L.L.L.L.L.L.L.L.L.L.L.L.L.L.L.L.L.L.L.L.L.L.L.L.L.L.L.L.L.L.L.L.L.L.L.L.L.L.L.L.L.L.L.",
"L.L.L.L.L.L.L.L.L.L.L.L.L.L.L.L.L.L.L.L.L.L.L.L.L.L.L.L.L.L.L.L.L.L.L.L.L.L.L.L.L.L.L.L.L.L.L.L.L.L.L.L.L.L.L.L.L.L.L.L.L.L.L.L.",
"L.L.L.L.L.L.L.L.L.L.L.L.L.L.L.L.L.L.L.L.L.L.L.L.L.L.L.L.L.L.L.L.L.L.L.L.L.L.L.L.L.L.L.L.L.L.L.L.L.L.L.L.L.L.L.L.L.L.L.L.L.L.L.L.",
"L.L.L.L.L.L.L.L.L.L.L.L.L.L.L.L.L.L.L.L.L.L.L.L.L.L.L.L.L.L.L.L.L.L.L.L.L.L.L.L.L.L.L.L.L.L.L.L.L.L.L.L.L.L.L.L.L.L.L.L.L.L.L.L.",
"L.L.L.L.L.L.L.L.L.L.L.L.L.L.L.L.L.L.L.L.L.L.L.L.L.L.L.L.L.L.L.L.L.L.L.L.L.L.L.L.L.L.L.L.L.L.L.L.L.L.L.L.L.L.L.L.L.L.L.L.L.L.L.L."
};
