/* XPM */
static char *result[] = {
/* columns rows colors chars-per-pixel */
"64 64 94 2 ",
"   c #050405",
".  c #080607",
"X  c #080708",
"o  c #0C0A0C",
"O  c #100E0F",
"+  c #120F10",
"@  c #151213",
"#  c #191617",
"$  c #1A1718",
"%  c #1D1A1B",
"&  c #211E1E",
"*  c #1E1D23",
"=  c #221F20",
"-  c #1F2028",
";  c #252223",
":  c #292526",
">  c #22222A",
",  c #2B2728",
"<  c #2D2A2B",
"1  c #372926",
"2  c #302C2E",
"3  c #262936",
"4  c #2B2E3A",
"5  c #332F30",
"6  c #353232",
"7  c #393535",
"8  c #30323C",
"9  c #3B3939",
"0  c #45322C",
"q  c #453532",
"w  c #433D3D",
"e  c #443F40",
"r  c #3B414F",
"t  c #3B4457",
"y  c #39445C",
"u  c #474141",
"i  c #4C4646",
"p  c #4F4949",
"a  c #534542",
"s  c #534D4D",
"d  c #575152",
"f  c #5C5556",
"g  c #5E565A",
"h  c #6B4D47",
"j  c #704F48",
"k  c #725149",
"l  c #615A5A",
"z  c #424D66",
"x  c #434F6B",
"c  c #43516F",
"v  c #465472",
"b  c #485574",
"n  c #4B597B",
"m  c #676060",
"M  c #696262",
"N  c #766E6E",
"B  c #7B7373",
"V  c #8B4D37",
"C  c #9A563D",
"Z  c #A55C42",
"A  c #956B5C",
"S  c #AD6145",
"D  c #B66649",
"F  c #BD6A4B",
"G  c #BF6F51",
"H  c #836660",
"J  c #856863",
"K  c #807878",
"L  c #A27564",
"P  c #A67A6A",
"I  c #A97D6E",
"U  c #AA7E70",
"Y  c #C27558",
"T  c #C5826A",
"R  c #C58D77",
"E  c #CD8A71",
"W  c #D2957C",
"Q  c #4D5D80",
"!  c #516185",
"~  c #566689",
"^  c #59698D",
"/  c #5C6C90",
"(  c #7282A7",
")  c #7384AA",
"_  c #7688AE",
"`  c #7A8AAE",
"'  c #7C8CB1",
"]  c #7F91B7",
"[  c #D69981",
"{  c #879AC2",
"}  c #899CC4",
"|  c #8C9FC9",
" . c #8FA2CC",
".. c None",
/* pixels */
"................................................................................................................................",
"................................................................................................................................",
"................................................................................................................................",
"................................................................................................................................",
"................................      .   . . .         ........................................................................",
"........................        , < < < < < < < 2 < 2 < o .         ............................................................",
"........................$ $ ; ; 7 9 < < < < < < < < < < @ o o o o o ............................................................",
"....................    , 6 u i i p , $ $ % $ $ # % # % # # % # % # .   ........................................................",
"..................  @ @ 9 u p p 7 < z c c c ) ' ' ' n c c b ' ' v c % @     ....................................................",
"................    # % 9 u u u > $ v Q Q Q }  .} } ^ Q ^ / |  .! n * @     ....................................................",
"................    : 2 %       # $ b Q Q ! }  ./ Q Q Q }  . . .! n * $     ....................................................",
"................    % ; # + + + $ $ b Q / ] ) ) x y y y }  .] / ! n * $     ....................................................",
"................        @ $ $ $ % $ v Q {  ./ Q 3 $ $ = }  .~ Q Q n * #     ....................................................",
"................    + $ # $ w i i i < * 4 8 > = e i i i 8 8 = = - * X   ........................................................",
"................1 < : ; 2 6 u p e 9 ; % * % ; ; w e e e , = = , * % @ @ ........................................................",
"............    9 p 9 6 u i i p < ; ; ; ; ; < 5 5 5 5 5 5 5 7 1 ; ; ; ;     ....................................................",
"............    < 7 : & 6 7 u p 6 2 w u u u u i l M m m i e w e u u 2 < .   ....................................................",
"............    : 6 ; $ < 5 u p 6 < w u h k k k H J J J k k j j u u < <   . ....................................................",
"............    : 2 ; $ < 6 u a ;   @ # S F F F Y F F F Y F F D q 2 .   ........................................................",
"............    7 w 6 , 9 w i i ;   V C T E E E E Y Y F Y D F F a e o   ........................................................",
"............    7 i 9 6 u p i u &   Z D W W [ [ [ [ Y Y F Y D S a u o   ........................................................",
"................    w i i i ;     . : 2 R W [ [ [ [ [ [ [ [ 0 $     ............................................................",
"..................  2 7 7 7 %       ; ; A L U U U U P P P L 1 $ . . ............................................................",
"....................                # # < 2 f l g l p p i i = $   . ......... . ....  .   X X X                 ................",
"............................        # $ 2 5 e s g l p e i e $ . ............      t { ] n n n c 6 6 6 6 ; - - %     ............",
"............................        @ $ = , e e d d e e e w +   ............@ # & r ` ( v v c z 9 9 6 6 ; ; ; %     ............",
"............................      . # $ % $ < < e i = & % $ .   ........  o ; : 9 7 9 9 9 9 9 9 9 8 - ; ; ; ; %     ............",
"........................    @ @ ; : < : + X & & < , & $ o o   .           o % % ; ; - & $ % $ % % # @ + + + @ O ................",
"........................    @ % , 2 < , $ + % & = & = & O O O O @ @ ; ; o o # $ # % # #     X X X X X X         ................",
"........................    @ $ , 2 & $ < 2 2 2 2 < 2 2 2 2 2 2 2 6 g f % # $ $ # % # #   X ....................................",
"........................    @ $ ; ; : : 2 2 2 2 2 2 2 2 = = 2 2 ; , s s + + $ $ $ # O O ........................................",
"........................    @ % $ $ , 2 2 2 2 2 2 2 2 < = # 2 2 % & i i X   $ % $ #   . ........................................",
"........................    # $ $ $ $ $ $ $ $ $ $ $ $ $ $ $ X .   . % #   @ 7 7 ; -     ........................................",
"........................$ = = = ; ; 2 7 7 7 6 6 7 6 7 5 : ; + O O O @ +   + < : % $   ..........................................",
"....................    : 5 5 2 2 2 u i i i p p a p p i 5 2 $ $ % # . . ....    .   ............................................",
"....................    : < e u d f l f f l B B B B B B p u & # X X ............................................................",
"....................    = , e i l l l l M M B K B K K K s i & # . . ............................................................",
"....................        w p f l l l B B K K K K K K s p +   ................................................................",
"..................  + @ @ @ 5 9 w w w w g l l l l l l l 9 7 O   ................................................................",
"................    # % % $ , < 5 5 6 5 i p s s s s s p 7 5 o   ................................................................",
"................    ; 2 = $ , 5 i i p i f l B K K K l l p i @   ................................................................",
"................    & ; $ + , 2 u i i p s d M M M M s p 7 7 o   ................................................................",
"................    @ $ o   , 2 i i a p p i p p p i 5 2 % $ X   ................................................................",
"................      X     X o + @ % = < 5 6 2 5 5 = $ X X     ................................................................",
"..................          o O o O @ + ; ; ; ; = : # + O o .   ................................................................",
"........................    @ $ $ $ o                   $ $ .     . ............................................................",
"........................    @ $ $ $ # @ # # # # @ # # # , , , : X   ............................................................",
"........................    # $ $ $ % & % % $ @ $ $ $ $ , < 5 7 = = ............................................................",
"........................    @ $ $ $ , 2 2 2 +   $ $ $ $ $ % i i p u o   ........................................................",
"........................    o O ; : 2 2 = % o   # $ $ $ $ % i i p i o   ........................................................",
"........................    O + 2 6 6 2 @       # $ $ $ $ % i p u u O   ........................................................",
"........................    w i f l l l :   ....    @ $ $ % i i + . ............................................................",
"........................    w i f l l l :   ......  + @ O @ w 9 o   ............................................................",
"........................    w p f l l l :   ........      X < < o   ............................................................",
"....................    @ $ 2 7 i s < ; ............    @ $ % % .   ............................................................",
"....................    % = < 2 w e &   ............    $ $ & & % # ............................................................",
"....................    : 2 2 2 2 2 @   ............    $ % 2 < < < .   ........................................................",
"....................    ; 2 2 2 & $ ................    X o & & % ; : :     ....................................................",
"....................    : < < < @ X ................    X o $ $ % % < ,     ....................................................",
"....................    : 5 @   @ % X   ............    $ $ $ $ $ @         ....................................................",
"....................    * ; $ + $ $ @ + X   ........    + O O O + + ............................................................",
"....................    @ $ $ $ $ % $ $ X   ........                ............................................................",
"....................        .       .       ....................................................................................",
"......................                      ...................................................................................."
};
