/* XPM */
static char *result[] = {
/* columns rows colors chars-per-pixel */
"64 64 125 2 ",
"   c #2C110B",
".  c #2D1615",
"X  c #2A161D",
"o  c #2F1C1D",
"O  c #3A1112",
"+  c #381E17",
"@  c #321B1A",
"#  c #321E21",
"$  c #372223",
"%  c #3B2522",
"&  c #3F2925",
"*  c #4B2F1C",
"=  c #55361C",
"-  c #56391C",
";  c #5D3D1D",
":  c #643F19",
">  c #502D28",
",  c #45302D",
"<  c #563C26",
"1  c #5C3D23",
"2  c #54312F",
"3  c #493837",
"4  c #423339",
"5  c #4B3A3A",
"6  c #533231",
"7  c #593632",
"8  c #5A3936",
"9  c #533139",
"0  c #513D3B",
"q  c #593838",
"w  c #613F22",
"e  c #59421F",
"r  c #63401E",
"t  c #714217",
"y  c #5F4327",
"u  c #5D4128",
"i  c #634324",
"p  c #6A4422",
"a  c #634629",
"s  c #66482A",
"d  c #6A4A2B",
"f  c #704322",
"g  c #764C23",
"h  c #794D23",
"j  c #704D2C",
"k  c #7D542C",
"l  c #624731",
"z  c #6C4F32",
"x  c #724E37",
"c  c #6E5133",
"v  c #745335",
"b  c #7C5632",
"n  c #725638",
"m  c #7C5B3C",
"M  c #644444",
"N  c #7D5D40",
"B  c #745755",
"V  c #755850",
"C  c #7F6149",
"Z  c #833F3F",
"A  c #80562D",
"S  c #82582E",
"D  c #845D36",
"F  c #895F37",
"G  c #865E38",
"H  c #885F38",
"J  c #876037",
"K  c #896037",
"L  c #876039",
"P  c #8B623A",
"I  c #9A5056",
"U  c #9A565A",
"Y  c #8C6640",
"T  c #8E6944",
"R  c #916C46",
"E  c #926E49",
"W  c #97764E",
"Q  c #9B744C",
"!  c #987652",
"~  c #A07D56",
"^  c #A27F59",
"/  c #BFA847",
"(  c #A98860",
")  c #C1AB4A",
"_  c #B5A69A",
"`  c #B6AB9A",
"'  c #BEB2A2",
"]  c #C2B7A6",
"[  c #CABCA7",
"{  c #C1B7AA",
"}  c #C5BBAA",
"|  c #C9BEAD",
" . c #CDC3B3",
".. c #CFC7B8",
"X. c #D4CAB7",
"o. c #DACCB2",
"O. c #D0C7B8",
"+. c #D3CBBC",
"@. c #E0D0B4",
"#. c #D9CDC1",
"$. c #D6D0C1",
"%. c #DAD4C4",
"&. c #DCD6C8",
"*. c #E2D7C2",
"=. c #E5DAC2",
"-. c #E9DEC6",
";. c #E3DBCB",
":. c #EADFC8",
">. c #EBE0C7",
",. c #E6E0C8",
"<. c #EDE3CB",
"1. c #F1E5CB",
"2. c #F3E8CE",
"3. c #EFE7D1",
"4. c #EFE8D2",
"5. c #F2EAD4",
"6. c #F5EED8",
"7. c #F7F1DC",
"8. c #FBF4DD",
"9. c #FEF8DF",
"0. c #FCF7E2",
"q. c #FEF8E4",
"w. c #FFFFEB",
"e. c #FFFFF1",
"r. c None",
/* pixels */
"r.r.r.r.r.r.r.r.r.r.r.r.r.r.r.r.r.r.r.r.r.r.r.r.r.r.r.r.r.r.r.r.r.r.r.r.r.r.r.r.r.r.r.r.r.r.r.r.r.r.r.r.r.r.r.r.r.r.r.r.r.r.r.r.",
"r.r.r.r.r.r.r.r.r.r.r.r.r.r.r.r.r.r.r.r.r.r.r.r.r.r.r.r.r.r.r.r.r.r.r.r.r.r.r.r.r.r.r.r.r.r.r.r.r.r.r.r.r.r.r.r.r.r.r.r.r.r.r.r.",
"r.r.r.r.r.r.r.r.r.r.r.r.r.r.r.r.r.r.r.r.r.r.r.r.r.r.r.r.r.r.r.r.r.r.r.r.r.r.r.r.r.r.r.r.r.r.r.r.r.r.r.r.r.r.r.r.r.r.r.r.r.r.r.r.",
"r.r.r.r.r.r.r.r.r.r.r.r.r.r.r.r.r.r.r.r.r.r.r.r.r.r.r.r.r.r.r.r.r.r.r.r.r.r.r.r.r.r.r.r.r.r.r.r.r.r.r.r.r.r.r.r.r.r.r.r.r.r.r.r.",
"r.r.r.r.r.r.r.r.r.r.r.r.r.r.r.r.r.r.r.r.r.r.r.r.r.r.r.r.r.r.r.r.r.r.r.r.r.r.r.r.r.r.r.r.r.r.r.r.r.r.r.r.r.r.r.r.r.r.r.r.r.r.r.r.",
"r.r.r.r.r.r.r.r.r.r.r.r.r.r.r.r.r.r.r.r.r.r.r.r.r.r.r.r.r.r.r.r.r.r.r.r.r.r.r.r.r.r.r.r.r.r.r.r.r.r.r.r.r.r.r.r.r.r.r.r.r.r.r.r.",
"r.r.r.r.r.r.r.r.r.r.r.r.r.r.r.r.r.r.r.r.r.r.r.r.r.r.r.r.r.r.r.r.r.r.r.r.r.r.r.r.r.r.r.r.r.r.r.r.r.r.r.r.r.r.r.r.r.r.r.r.r.r.r.r.",
"r.r.r.r.r.r.r.r.r.r.r.r.r.r.r.r.r.r.r.r.r.r.r.r.r.r.r.r.r.r.r.r.r.r.r.r.r.r.r.r.r.r.r.r.r.r.r.r.r.r.r.r.r.r.r.r.r.r.r.r.r.r.r.r.",
"r.r.r.r.r.r.r.r.r.r.r.r.r.r.r.r.r.r.r.r.r.r.r.r.r.r.r.r.r.r.r.r.r.r.r.r.r.r.r.r.r.r.r.r.r.r.r.r.r.r.r.r.r.r.r.r.r.r.r.r.r.r.r.r.",
"r.r.r.r.r.r.r.r.r.r.r.r.r.r.r.r.r.r.r.r.r.r.r.r.r.r.r.r.r.r.r.r.r.r.r.r.r.r.r.r.r.r.r.r.r.r.r.r.r.r.r.r.r.r.r.r.r.r.r.r.r.r.r.r.",
"r.r.r.r.r.r.r.r.r.r.r.r.r.r.r.r.r.r.r.r.r.r.r.r.r.r.r.r.r.r.r.r.r.r.r.r.r.r.r.r.r.r.r.r.r.r.r.r.r.r.r.r.r.r.r.r.r.r.r.r.r.r.r.r.",
"r.r.r.r.r.r.r.r.r.r.r.r.r.r.r.r.r.r.r.r.r.r.r.r.r.r.r.r.r.r.r.r.r.r.r.r.r.r.r.r.r.r.r.r.r.r.r.r.r.r.r.r.r.r.r.r.r.r.r.r.r.r.r.r.",
"r.r.r.r.r.r.r.r.r.r.r.r.r.r.r.r.r.r.r.r.r.r.r.r.r.r.r.r.r.r.r.r.r.r.r.r.r.r.r.r.r.r.r.r.r.r.r.r.r.r.r.r.r.r.r.r.r.r.r.r.r.r.r.r.",
"r.r.r.r.r.r.r.r.r.r.r.r.r.r.r.r.r.r.r.r.r.r.r.r.r.r.r.r.r.r.r.r.r.r.r.r.r.r.r.r.r.r.r.r.r.r.r.r.r.r.r.r.r.r.r.r.r.r.r.r.r.r.r.r.",
"r.r.r.r.r.r.r.r.r.r.r.r.r.r.r.r.r.r.r.r.r.r.r.r.r.r.r.r.r.r.r.r.r.r.r.r.r.r.r.r.r.r.r.r.r.r.r.r.r.r.r.r.r.r.r.r.r.r.r.r.r.r.r.r.",
"r.r.r.r.r.r.r.r.r.r.r.r.r.r.r.r.r.r.r.r.r.r.r.r.r.r.r.r.r.r.r.r.r.r.r.r.r.r.r.r.r.r.r.r.r.r.r.r.r.r.r.r.r.r.r.r.r.r.r.r.r.r.r.r.",
"r.r.r.r.r.r.r.r.r.r.r.r.r.r.r.r.r.r.r.r.r.r.r.r.r.r.r.r.r.r.r.r.r.r.r.r.r.r.r.r.r.r.r.r.a r.r.u r.r.r.r.r.r.r.r.r.r.r.r.r.r.r.r.",
"r.r.r.r.r.r.r.r.r.r.r.r.r.r.r.r.r.r.r.r.r.r.r.r.r.r.r.r.r.r.r.r.r.r.r.r.r.r.r.r.r.r.r.a # r.d @ r.r.r.r.r.r.r.r.r.r.r.r.r.r.r.r.",
"r.r.r.r.r.r.r.r.r.r.r.r.r.r.r.r.r.r.r.r.r.r.r.r.r.r.r.r.r.r.r.r.r.r.r.r.r.r.r.r.r.r.s < % D : 1 Q P r.r.r.r.r.r.r.r.r.r.r.r.r.r.",
"r.r.r.r.r.r.r.r.r.r.r.r.r.r.r.+.%.%.$.r.r.r.r.r.r.r.r.r.r.r.r.r.r.r.r.r.r.r.r.r.r.s d a a D E ( o.E A r.r.r.r.r.r.r.r.r.r.r.r.r.",
"r.r.r.r.r.r.r.r.r.r.r.r.r.r.+. .-.1.2.7.$.r.r.r.r.r.r.r.r.r.r.r.r.r.r.r.r.r.r.r.d G G G A Y *.O.5 b K A r.r.r.r.r.r.r.r.r.r.r.r.",
"r.r.r.r.r.r.r.r.r.r.r.r.r.+.} Y K G R | O. .r.r.r.r.r.r.r.r.r.r.r.r.r.r.r.r.r.d G P P P P G 0 4 @ b G P E E $ X r.r.r.r.r.r.r.r.",
"r.r.r.r.r.r.r.r.r.r.r.r.r. .L r = . . 1 T O.r.r.r.r.r.r.r.r.r.r.r.r.r.r.r.r.d G P G G G H k b [ L t T -.w.o.& . r.r.r.r.r.r.r.r.",
"r.r.r.r.r.r.r.r.r.r.r.r.r. .P ; % r.r.  A -.r.r.r.r.r.r.r.r.r.r.r.r.r.r.r.d G P H L G A D A ~ 2.Q P >.e.-.C - e r.r.r.r.r.r.r.r.",
"r.r.r.r.r.r.r.r.r.r.r.r.r.r.{ , * % $ i ! ] a ; s s s a a s s s s s s a 8 D P P G G P E h D =.7.>.:.q.,.N Z r.r.r.r.r.r.r.r.r.r.",
"r.r.r.r.r.r.r.r.r.r.r.r.r.r.&.l + < w Y _ 3 - d s s a s d a a s s a d G s 8 D P P A E o.T P 2.0.6.%.O.+.` x I r.r.r.r.r.r.r.r.r.",
"r.r.r.r.r.r.r.r.r.r.r.r.r.r.r.; 1 & % & , 1 d s a a d L L d i a a a D P G w q G P H b E =.5.5.<.O.r.r.r.r.r.i U r.r.r.r.r.r.r.r.",
"r.r.r.r.r.r.r.r.r.r.r.r.r.r.r.i d u u < 1 K L s y d G P P G s a a d L P P D < q D P A P 5.w.6.%.r.r.r.r.r.r.r.r.r.r.r.r.r.r.r.r.",
"r.r.r.r.r.r.r.r.r.r.r.r.r.r.d D d d d d K P L i s D P G H P D a i G P G G P E 1 > f G 2.w.6. .r.r.r.r.r.r.r.r.r.r.r.r.r.r.r.r.r.",
"r.r.r.r.r.r.r.r.r.r.r.r.r.r.s J P L G G P P D d D P H G H H P D d D G P A E @.! a 6 M *.7.} M r.r.r.r.r.r.r.r.r.r.r.r.r.r.r.r.r.",
"r.r.r.r.r.r.r.r.r.r.r.r.r.r.d G P P P K K D d D P L J G G G K P D s d D H A ! :.<.O.{ B 9 9 r.r.r.r.r.r.r.r.r.r.r.r.r.r.r.r.r.r.",
"r.r.r.r.r.r.r.r.r.r.r.r.r.r.s G P G G G P K a d G P P P K G G P P D i a G A G 5.w.9.7._ 2 r.r.r.r.r.r.r.r.r.r.r.r.r.r.r.r.r.r.r.",
"r.r.r.r.r.r.r.r.r.r.r.r.r.r.d L P G L J P G i - : k A k H P P P P L s a G A Y :.7.9.;.V ) r.r.r.r.r.r.r.r.r.r.r.r.r.r.r.r.r.r.r.",
"r.r.r.r.r.r.r.r.r.r.r.r.r.r.s D P J G P G i l c z c c c k k k k k s a D P k Y :.7.9.#.7 ) r.r.r.r.r.r.r.r.r.r.r.r.r.r.r.r.r.r.r.",
"r.r.r.r.r.r.r.r.r.r.r.r.r.r.r.d G K P K g c { O.| }  .{ n a c c c a s L P A G >.q.3.;.r.O r.r.r.r.r.r.r.r.r.r.r.r.r.r.r.r.r.r.r.",
"r.r.r.r.r.r.r.r.r.r.r.r.r.r.r.a G P K g n ] &.r.r.r.r.r.| } | O. .c k L K k E 5.q.+.$.r.r.r.r.r.r.r.r.r.r.r.r.r.r.r.r.r.r.r.r.r.",
"r.r.r.r.r.r.r.r.r.r.r.r.r.r.r.d P K g n { &.r.r.r.r.r.r.r.r.r.r.r.; G P k c  .+.| | ..&.r.r.r.r.r.r.r.r.r.r.r.r.r.r.r.r.r.r.r.r.",
"r.r.r.r.r.r.r.r.r.r.r.r.r.r.d J A k n ] &.r.r.r.r.r.r.r.r.r.r.r.r.i A D i r.r.n d Y } %.r.r.r.r.r.r.r.r.r.r.r.r.r.r.r.r.r.r.r.r.",
"r.r.r.r.r.r.r.r.r.r.d P R Y H G a 1 ] r.r.r.r.r.r.r.r.r.r.r.r.r.r.a P : r.r.r.r.d p m | &.r.r.r.r.r.r.r.r.r.r.r.r.r.r.r.r.r.r.r.",
"r.r.r.r.r.r.r.r.r.r.c *.q.@.d a } r.r.r.r.r.r.r.r.r.r.r.r.r.r.r.i R 6.r.r.r.r.r.r.r.p m } &.r.r.r.r.r.r.r.r.r.r.r.r.r.r.r.r.r.r.",
"r.r.r.r.r.r.r.r.r.r.z 5.r.r.r.d X.r.r.r.r.r.r.r.r.r.r.r.r.r.r.r.d =.r.r.r.r.r.r.r.r.r.r.m | +.r.r.r.r.r.r.r.r.r.r.r.r.r.r.r.r.r.",
"r.r.r.r.r.r.r.r.r.r.a :.r.r.r.m | r.r.r.r.r.r.r.r.r.r.r.r.r.r.r.n 3.r.r.r.r.r.r.r.r.r.r.r.m  .r.r.r.r.r.r.r.r.r.r.r.r.r.r.r.r.r.",
"r.r.r.r.r.r.r.r.r.s E >.r.r.r.m O.r.r.r.r.r.r.r.r.r.r.r.r.r.r.r.c :.r.r.r.r.r.r.r.r.r.r.r.v | r.r.r.r.r.r.r.r.r.r.r.r.r.r.r.r.r.",
"r.r.r.r.r.r.r.r.r.:.>.<.r.r.r.m | r.r.r.r.r.r.r.r.r.r.r.r.r.r.r.c 3.r.r.r.r.r.r.r.r.r.r.r.m  .r.r.r.r.r.r.r.r.r.r.r.r.r.r.r.r.r.",
"r.r.r.r.r.r.r.r.r.r.r.r.r.r.r.j N } r.r.r.r.r.r.r.r.r.r.r.r.r.r.z *.r.r.r.r.r.r.r.r.r.r.r.m | r.r.r.r.r.r.r.r.r.r.r.r.r.r.r.r.r.",
"r.r.r.r.r.r.r.r.r.r.r.r.r.r.r.r.p m  .r.r.r.r.r.r.r.r.r.r.r.r.r.i R >.r.r.r.r.r.r.r.r.r.r.r.r.r.r.r.r.r.r.r.r.r.r.r.r.r.r.r.r.r.",
"r.r.r.r.r.r.r.r.r.r.r.r.r.r.r.r.d b | r.r.r.r.r.r.r.r.r.r.r.r.r.; G :.r.r.r.r.r.r.r.r.r.r.r.r.r.r.r.r.r.r.r.r.r.r.r.r.r.r.r.r.r.",
"r.r.r.r.r.r.r.r.r.r.r.r.r.r.r.r.r.r.r.r.r.r.r.r.r.r.r.r.r.r.r.r.r.r.r.r.r.r.r.r.r.r.r.r.r.r.r.r.r.r.r.r.r.r.r.r.r.r.r.r.r.r.r.r.",
"r.r.r.r.r.r.r.r.r.r.r.r.r.r.r.r.r.r.r.r.r.r.r.r.r.r.r.r.r.r.r.r.r.r.r.r.r.r.r.r.r.r.r.r.r.r.r.r.r.r.r.r.r.r.r.r.r.r.r.r.r.r.r.r.",
"r.r.r.r.r.r.r.r.r.r.r.r.r.r.r.r.r.r.r.r.r.r.r.r.r.r.r.r.r.r.r.r.r.r.r.r.r.r.r.r.r.r.r.r.r.r.r.r.r.r.r.r.r.r.r.r.r.r.r.r.r.r.r.r.",
"r.r.r.r.r.r.r.r.r.r.r.r.r.r.r.r.r.r.r.r.r.r.r.r.r.r.r.r.r.r.r.r.r.r.r.r.r.r.r.r.r.r.r.r.r.r.r.r.r.r.r.r.r.r.r.r.r.r.r.r.r.r.r.r.",
"r.r.r.r.r.r.r.r.r.r.r.r.r.r.r.r.r.r.r.r.r.r.r.r.r.r.r.r.r.r.r.r.r.r.r.r.r.r.r.r.r.r.r.r.r.r.r.r.r.r.r.r.r.r.r.r.r.r.r.r.r.r.r.r.",
"r.r.r.r.r.r.r.r.r.r.r.r.r.r.r.r.r.r.r.r.r.r.r.r.r.r.r.r.r.r.r.r.r.r.r.r.r.r.r.r.r.r.r.r.r.r.r.r.r.r.r.r.r.r.r.r.r.r.r.r.r.r.r.r.",
"r.r.r.r.r.r.r.r.r.r.r.r.r.r.r.r.r.r.r.r.r.r.r.r.r.r.r.r.r.r.r.r.r.r.r.r.r.r.r.r.r.r.r.r.r.r.r.r.r.r.r.r.r.r.r.r.r.r.r.r.r.r.r.r.",
"r.r.r.r.r.r.r.r.r.r.r.r.r.r.r.r.r.r.r.r.r.r.r.r.r.r.r.r.r.r.r.r.r.r.r.r.r.r.r.r.r.r.r.r.r.r.r.r.r.r.r.r.r.r.r.r.r.r.r.r.r.r.r.r.",
"r.r.r.r.r.r.r.r.r.r.r.r.r.r.r.r.r.r.r.r.r.r.r.r.r.r.r.r.r.r.r.r.r.r.r.r.r.r.r.r.r.r.r.r.r.r.r.r.r.r.r.r.r.r.r.r.r.r.r.r.r.r.r.r.",
"r.r.r.r.r.r.r.r.r.r.r.r.r.r.r.r.r.r.r.r.r.r.r.r.r.r.r.r.r.r.r.r.r.r.r.r.r.r.r.r.r.r.r.r.r.r.r.r.r.r.r.r.r.r.r.r.r.r.r.r.r.r.r.r.",
"r.r.r.r.r.r.r.r.r.r.r.r.r.r.r.r.r.r.r.r.r.r.r.r.r.r.r.r.r.r.r.r.r.r.r.r.r.r.r.r.r.r.r.r.r.r.r.r.r.r.r.r.r.r.r.r.r.r.r.r.r.r.r.r.",
"r.r.r.r.r.r.r.r.r.r.r.r.r.r.r.r.r.r.r.r.r.r.r.r.r.r.r.r.r.r.r.r.r.r.r.r.r.r.r.r.r.r.r.r.r.r.r.r.r.r.r.r.r.r.r.r.r.r.r.r.r.r.r.r.",
"r.r.r.r.r.r.r.r.r.r.r.r.r.r.r.r.r.r.r.r.r.r.r.r.r.r.r.r.r.r.r.r.r.r.r.r.r.r.r.r.r.r.r.r.r.r.r.r.r.r.r.r.r.r.r.r.r.r.r.r.r.r.r.r.",
"r.r.r.r.r.r.r.r.r.r.r.r.r.r.r.r.r.r.r.r.r.r.r.r.r.r.r.r.r.r.r.r.r.r.r.r.r.r.r.r.r.r.r.r.r.r.r.r.r.r.r.r.r.r.r.r.r.r.r.r.r.r.r.r.",
"r.r.r.r.r.r.r.r.r.r.r.r.r.r.r.r.r.r.r.r.r.r.r.r.r.r.r.r.r.r.r.r.r.r.r.r.r.r.r.r.r.r.r.r.r.r.r.r.r.r.r.r.r.r.r.r.r.r.r.r.r.r.r.r.",
"r.r.r.r.r.r.r.r.r.r.r.r.r.r.r.r.r.r.r.r.r.r.r.r.r.r.r.r.r.r.r.r.r.r.r.r.r.r.r.r.r.r.r.r.r.r.r.r.r.r.r.r.r.r.r.r.r.r.r.r.r.r.r.r.",
"r.r.r.r.r.r.r.r.r.r.r.r.r.r.r.r.r.r.r.r.r.r.r.r.r.r.r.r.r.r.r.r.r.r.r.r.r.r.r.r.r.r.r.r.r.r.r.r.r.r.r.r.r.r.r.r.r.r.r.r.r.r.r.r."
};
