/* XPM */
static char *result[] = {
/* columns rows colors chars-per-pixel */
"64 64 110 2 ",
"   c #010002",
".  c #04000B",
"X  c #0B0413",
"o  c #0F0A1A",
"O  c #110A17",
"+  c #130D1C",
"@  c #161222",
"#  c #191526",
"$  c #1C1B2E",
"%  c #1F1D31",
"&  c #201F33",
"*  c #20202A",
"=  c #222134",
"-  c #25263A",
";  c #2A2D47",
":  c #2D314D",
">  c #32354A",
",  c #2E3659",
"<  c #2E395D",
"1  c #333C5E",
"2  c #363F61",
"3  c #374163",
"4  c #3A4466",
"5  c #3C4669",
"6  c #3E496B",
"7  c #3F5175",
"8  c #444651",
"9  c #4D4F59",
"0  c #414A64",
"q  c #414C6D",
"w  c #414D71",
"e  c #465273",
"r  c #495576",
"t  c #495778",
"y  c #4D5B7C",
"u  c #515E7E",
"i  c #52607F",
"p  c #5A647C",
"a  c #606B7B",
"s  c #546383",
"d  c #586786",
"f  c #596887",
"g  c #576788",
"h  c #5A6A89",
"j  c #5D6F90",
"k  c #5F7090",
"l  c #606F8D",
"z  c #61708E",
"x  c #637493",
"c  c #687794",
"v  c #6A7995",
"b  c #637698",
"n  c #677B9C",
"m  c #6D7D9A",
"M  c #707F9C",
"N  c #6E819F",
"B  c #72829E",
"V  c #6E82A1",
"C  c #7486A3",
"Z  c #7987A2",
"A  c #7689A6",
"S  c #7B8BA5",
"D  c #778AA8",
"F  c #7B8DAA",
"G  c #7F90AC",
"H  c #7F96B7",
"J  c #8292AD",
"K  c #8596B1",
"L  c #8799B3",
"P  c #8B9BB5",
"I  c #869BB9",
"U  c #8E9FB8",
"Y  c #909FB8",
"T  c #91A0B7",
"R  c #93A3BB",
"E  c #9BA9BF",
"W  c #A5AEBE",
"Q  c #97A8C0",
"!  c #9CABC1",
"~  c #A1ADC2",
"^  c #A6B2C6",
"/  c #A9B5C7",
"(  c #A5B3C8",
")  c #AAB6C8",
"_  c #ADB8CA",
"`  c #B2BDCD",
"'  c #A8BAD5",
"]  c #B4BFD0",
"[  c #BBC5D3",
"{  c #BFC9D6",
"}  c #BDC8D8",
"|  c #C0C9D7",
" . c #C5CDDA",
".. c #CCD3DD",
"X. c #CFD7E4",
"o. c #D1D7E1",
"O. c #D5DBE4",
"+. c #DBDDE4",
"@. c #D4E0EE",
"#. c #DEE1E8",
"$. c #D9E3F2",
"%. c #E2E6ED",
"&. c #E6EAEF",
"*. c #E9ECF1",
"=. c #E5EDFA",
"-. c #EFF1F5",
";. c #F1F4F6",
":. c #F5F7F9",
">. c #FEFFFF",
",. c None",
/* pixels */
",.,.,.,.,.,.,.,.,.,.,.,.,.,.,.,.,.,.,.,.,.,.,.,.,.,.,.,.,.,.,.,.,.,.,.,.,.,.,.,.,.,.,.,.,.,.,.,.,.,.,.,.,.,.,.,.,.,.,.,.,.,.,.,.",
",.,.,.,.,.,.,.,.,.,.,.,.,.,.,.,.,.,.,.,.,.,.,.,.,.,.,.,.,.,.,.,.,.,.,.,.,.,.,.,.,.,.,.,.,.,.,.,.,.,.,.,.,.,.,.,.,.,.,.,.,.,.,.,.",
",.,.,.,.,.,.,.,.,.,.,.,.,.,.,.,.,.,.,.,.,.,.,.,.,.,.,.,.,.,.,.,.,.,.,.,.,.,.,.,.,.,.,.,.,.,.,.,.,.,.,.,.,.,.,.,.,.,.,.,.,.,.,.,.",
",.,.,.,.,.,.,.,.,.,.,.,.,.,.,.,.,.,.,.,.,.,.,.,.,.,.,.,.,.,.,.,.,.,.,.,.,.,.,.,.,.,.,.,.,.,.,.,.,.,.,.,.,.,.,.,.,.,.,.,.,.,.,.,.",
",.,.,.,.,.,.,.,.,.,.,.,.,.,.,.,.,.,.,.,.,.,.,.,.,.,.,.,.,.,.,.,.,.,.,.,.,.,.,.,.,.,.,.,.,.,.,.,.,.,.,.,.,.,.,.,.,.,.,.,.,.,.,.,.",
",.,.,.,.,.,.,.,.,.,.,.,.,.,.,.,.>.#.s s ,.,.,.,.,.,.,.,.,.,.,.,.,.,.,.,.,.,.,.,.,.,.,.,.,.>.>.m y ,.,.,.,.,.,.,.,.,.,.,.,.,.,.,.",
",.,.,.,.,.,.,.,.,.,.,.,.,.,.,.,.>...s d ,.,.,.,.,.,.,.,.,.,.,.,.,.,.,.,.,.,.,.,.,.,.,.,.,.;.*.m s ,.,.,.,.,.,.,.,.,.,.,.,.,.,.,.",
",.,.,.,.,.,.,.,.,.,.,.,.,.,.,.,.D N y d ,.,.,.,.,.,.,.,.,.,.,.,.,.,.,.,.,.,.,.,.,.,.,.,.,.D A s y ,.,.,.,.,.,.,.,.,.,.,.,.,.,.,.",
",.,.,.,.,.,.,.,.,.,.,.,.,.,.,.,.] ! v x ,.,.,.,.,.,.,.,.,.,.,.,.,.,.,.,.,.,.,.,.,.,.,.,.,.` _ B x ,.,.,.,.,.,.,.,.,.,.,.,.,.,.,.",
",.,.,.,.,.,.,.,.,.,.,.,.,.,.,.,.>.*.R S s ,.,.,.,.,.,.,.,.,.,.,.,.,.,.,.,.,.,.,.,.,.,.,.,.>.>.^ J h d ,.,.,.,.,.,.,.,.,.,.,.,.,.",
",.,.,.,.,.,.,.,.,.,.,.,.,.,.,.>.>.*.U Z s ,.,.,.,.,.,.,.,.,.,.,.,.,.,.,.,.,.,.,.,.,.,.,.>.>.>.! S h d ,.,.,.,.,.,.,.,.,.,.,.,.,.",
",.,.,.,.,.,.,.,.,.,.,.,.,.,.>.>.>.&.U Z s ,.,.,.,.,.,.,.,.,.,.,.,.,.,.,.,.,.,.,.,.,.,.>.>.>.>.! D h d ,.,.,.,.,.,.,.,.,.,.,.,.,.",
",.,.,.,.,.,.,.,.,.,.,.,.,.,.>.>.[ / R S s h h ,.,.,.,.,.,.,.,.,.,.,.,.,.,.,.,.,.,.,.,.>.>.../ R J h d h ,.,.,.,.,.,.,.,.,.,.,.,.",
",.,.,.,.,.,.,.,.,.,.,.,.,.,.>.:.F A R Z s h h ,.,.,.,.,.,.,.,.,.,.,.,.,.,.,.,.,.,.,.,.>.>.E n U K h d f h ,.,.,.,.,.,.,.,.,.,.,.",
",.,.,.,.,.,.,.,.,.,.,.,.>.>.>.:.Y J R F s f h ,.,.,.,.,.,.,.,.,.,.,.,.,.,.,.,.,.,.,.>.>.>./ F R L h d h h ,.,.,.,.,.,.,.,.,.,.,.",
",.,.,.,.,.,.,.,.,.,.,.,.>.>.>.:.R J R Z s f h ,.,.,.,.,.,.,.,.,.,.,.,.,.,.,.,.,.,.,.>.>.>./ F U J h d f h ,.,.,.,.,.,.,.,.,.,.,.",
",.,.,.,.,.,.,.,.,.,.,.,.>.>./ J R J f h f f h h h ,.,.,.,.,.,.,.,.,.,.,.,.,.,.,.,.,.>.| J Y U x d h h h h f ,.,.,.,.,.,.,.,.,.,.",
",.,.,.,.,.,.,.,.,.,.,.C +.>.E A Y J i d h h h f h ,.,.,.,.,.,.,.,.,.,.,.,.,.,.,.,...>.[ N P P h i h h h h h ,.,.,.,.,.,.,.,.,.,.",
",.,.,.,.,.,.,.,.,.,.,.D +.>.! G E L d f h f f h h ,.,.,.,.,.,.,.,.,.,.,.,.,.,.,.V ` >.[ A R R z s h h f h h ,.,.,.,.,.,.,.,.,.,.",
",.,.,.,.,.,.,.,.,.,.[ V } &.! J F B d f f h h h h ,.,.,.,.,.,.,.,.,.,.,.,.,.,.+.C ^ ;./ G J S h d f h h h l r ,.,.,.,.,.,.,.,.,.",
",.,.,.,.,.,.,.,.,.>. .F L K R R s i f h h h f z z 6 5 ,.,.,.,.,.,.,.,.,.,.,.>.%.J L J U ! x y h h h h d h v r 2 ,.,.,.,.,.,.,.,.",
",.,.,.,.,.,.,.,.9 =./ K S m B m h f h h h f h u r 6 3 ,.,.,.,.>.~ e ,.,.,.* o.} U F m B B l s h f h h h s r q 5 & ,.,.,.,.,.,.,.",
",.,.,.,.,.,.@ X > I L ! c r u s h h h f f h x q , 5 3 #   ,.,.>.~ 7 ,.,.X # A U ! Z r s u d h h h h h c y , 3 6 & + @ ,.,.,.,.,.",
",.,.,.,.,.,.+ X > C v m l d h h h h f f z u q 6 3 6 3 # . ,.,.} J y ,.,.. & c m m x d f h h h h h h s e q 3 4 5 = + @ ,.,.,.,.,.",
",.,.,.,.,.,.@ o - h s s d h h f h h h h x e , 3 4 6 1 #   ,.,.F x i ,.,.X @ s s s s h h h f h h h l u 1 2 5 5 6 % + # ,.,.,.,.,.",
",.,.,.,.,.,.,.,.,.x h g f h h h h h z s 5 5 4 4 4 5 6 ,.,.,.,.>.` Z b k ,.,.j h f h h f h h h l f 6 5 4 4 4 4 6 ,.,.,.,.,.,.,.,.",
",.,.,.,.,.,.,.,.,.h h h f h h h d d h y 1 4 5 4 4 4 4 ,.,.,.,.>. .K v s ,.,.h h f h h h h d s h s 2 2 4 4 4 4 5 ,.,.,.,.,.,.,.,.",
",.,.,.,.,.,.,.,.,.,.h h h h h f 5 4 4 5 4 4 4 4 4 ,.,.,.,.>.>.>.| F v s ,.,.,.,.h h h h h e 4 4 4 4 5 4 4 4 ,.,.,.,.,.,.,.,.,.,.",
",.,.,.,.,.,.,.,.,.,.,.h h h h f 4 2 4 4 4 4 4 4 6 ,.,.,.,.>.:.-.] G c s ,.,.,.,.h h h h h q 1 4 4 4 4 4 4 4 ,.,.,.,.,.,.,.,.,.,.",
",.,.,.,.,.,.,.,.,.,.,.,.,.,.,.,.,.,.,.,.,.,.,.,.,.,.,.,.,.>.o.C L R c s h h ,.,.,.,.,.,.,.,.,.,.,.,.,.,.,.,.,.,.,.,.,.,.,.,.,.,.",
",.,.,.,.,.,.,.,.,.,.,.,.,.,.,.,.,.,.,.,.,.,.,.,.,.,.,.,.>.>.O.D P R v s h h ,.,.,.,.,.,.,.,.,.,.,.,.,.,.,.,.,.,.,.,.,.,.,.,.,.,.",
",.,.,.,.,.,.,.,.,.,.,.,.,.,.,.,.,.,.,.,.,.,.,.,.,.,.,.>.>.>.O.D U ! v s h h ,.,.,.,.,.,.,.,.,.,.,.,.,.,.,.,.,.,.,.,.,.,.,.,.,.,.",
",.,.,.,.,.,.,.,.,.,.,.,.,.,.,.,.,.,.,.,.,.,.,.,.,.,.,.>.;. .) L S m z d h h f ,.,.,.,.,.,.,.,.,.,.,.,.,.,.,.,.,.,.,.,.,.,.,.,.,.",
",.,.,.,.,.,.,.,.,.,.,.,.,.,.,.,.,.,.,.,.,.,.,.,.,.,.,.>.%.V F ! m r s h h h h f ,.,.,.,.,.,.,.,.,.,.,.,.,.,.,.,.,.,.,.,.,.,.,.,.",
",.,.,.,.,.,.,.,.,.,.,.,.,.,.,.,.,.,.,.,.,.,.,.,.,.,.,.>.%.J L R B u h h h h d h ,.,.,.,.,.,.,.,.,.,.,.,.,.,.,.,.,.,.,.,.,.,.,.,.",
",.,.,.,.,.,.,.,.,.,.,.,.,.,.,.,.,.,.,.,.,.,.,.,.,.,.,.>.*.K U R m s f h h h h h ,.,.,.,.,.,.,.,.,.,.,.,.,.,.,.,.,.,.,.,.,.,.,.,.",
",.,.,.,.,.,.,.,.,.,.,.,.,.,.,.,.,.,.,.,.,.,.,.>.>.E C ~ ~ R F h h f h f h h x u 1 w ,.,.,.,.,.,.,.,.,.,.,.,.,.,.,.,.,.,.,.,.,.,.",
",.,.,.,.,.,.,.,.,.,.,.,.,.,.,.,.,.,.,.,.,.,.,.+.>.! J F F Y Z y h h f h h h h u 5 1 ,.,.,.,.,.,.,.,.,.,.,.,.,.,.,.,.,.,.,.,.,.,.",
",.,.,.,.,.,.,.,.,.,.,.,.,.,.,.,.>.#.s x ,.O   p ' R U h d h h h h h f h z d 4 4 w ; O ,.,.>.>.m y ,.,.,.,.,.,.,.,.,.,.,.,.,.,.,.",
",.,.,.,.,.,.,.,.,.,.,.,.,.,.,.,.;. .s b ,.X O p U J F d s d h h f h h h s u 4 2 w : + ,.,.>.%.x s ,.,.,.,.,.,.,.,.,.,.,.,.,.,.,.",
",.,.,.,.,.,.,.,.,.,.,.,.,.,.,.,.C n y k ,.+ O 5 k g s h h h h h h d l x 5 1 5 4 q : + ,.,.I V s u ,.,.,.,.,.,.,.,.,.,.,.,.,.,.,.",
",.,.,.,.,.,.,.,.,.,.,.,.,.,.,.,.} / m x ,.>   0 x h h h h h h h h h u t 5 3 4 4 w > . ,.,.@.[ Z x ,.,.,.,.,.,.,.,.,.,.,.,.,.,.,.",
",.,.,.,.,.,.,.,.,.,.,.,.,.,.,.,.>.*.Q S h ,.,.f h h h f h h h h l x q , 3 5 4 4 5 < ,.,.,.>.>.^ K h d ,.,.,.,.,.,.,.,.,.,.,.,.,.",
",.,.,.,.,.,.,.,.,.,.,.,.,.,.,.>.>.*.U Z s ,.,.,.,.f h h d h s e r r q 4 5 4 4 5 ,.,.,.,.>.>.>.! S h d ,.,.,.,.,.,.,.,.,.,.,.,.,.",
",.,.,.,.,.,.,.,.,.,.,.,.,.,.>.>.>.*.U Z s ,.,.,.,.h h h h z r 1 1 2 4 5 4 4 4 5 ,.,.,.>.>.>.>.! F h s ,.,.,.,.,.,.,.,.,.,.,.,.,.",
",.,.,.,.,.,.,.,.,.,.,.,.,.,.>.>.` ! U S s s h ,.,.,.,.,.,.,.,.,.,.,.,.,.,.,.,.,.,.,.,.>.>. .! R J h f h ,.,.,.,.,.,.,.,.,.,.,.,.",
",.,.,.,.,.,.,.,.,.,.,.,.,.,.>.:.J A R S s f h ,.,.,.,.,.,.,.,.,.,.,.,.,.,.,.,.,.,.,.,.>.>.! N U L h f h h ,.,.,.,.,.,.,.,.,.,.,.",
",.,.,.,.,.,.,.,.,.,.,.,.>.>.>.:.R J Q S s h h ,.,.,.,.,.,.,.,.,.,.,.,.,.,.,.,.,.,.,.>.>.>./ F R L h s h h ,.,.,.,.,.,.,.,.,.,.,.",
",.,.,.,.,.,.,.,.,.,.,.,.>.>.>.*.T J U Z s h f ,.,.,.,.,.,.,.,.,.,.,.,.,.,.,.,.,.,.,.>.:.:./ J L J f d h h ,.,.,.,.,.,.,.,.,.,.,.",
",.,.,.,.,.,.,.,.,.,.,.,.>.>.~ F T J s h h f h h h ,.,.,.,.,.,.,.,.,.,.,.,.,.,.,.,.,.>.[ S P P z s h f h f h ,.,.,.,.,.,.,.,.,.,.",
",.,.,.,.,.,.,.,.,.,.,.,.*.>.! F U J s s h h f f f ,.,.,.,.,.,.,.,.,.,.,.,.,.,.,.,...>.[ C U U h s f h h h f ,.,.,.,.,.,.,.,.,.,.",
",.,.,.,.,.,.,.,.,.,.,.C o.>.~ G ! L f f f h h h h ,.,.,.,.,.,.,.,.,.,.,.,.,.,.,.A ` >.[ A R R z s h h f h h ,.,.,.,.,.,.,.,.,.,.",
",.,.,.,.,.,.,.,.,.,.{ C [ #.Q J Z m f f h h h h h q ,.,.,.,.,.,.,.,.,.,.,.,.,.,.F ^ %.( J F B h d h h h h l r ,.,.,.,.,.,.,.,.,.",
",.,.,.,.,.,.,.,.,.>. .D J G R R d u h h f f f z x q 5 ,.,.,.,.,.,.,.,.,.,.,.,.,.J K F U ! x y f h h h h h x e 2 ,.,.,.,.,.,.,.,.",
",.,.,.,.,.,.,.  8 $.^ L A c m m h f h h h h h y w q 2 @ ,.,.,.,.,.,.,.,.o & G R R F v m m l s h h h h h i e q 5 % O ,.,.,.,.,.,.",
",.,.,.,.,.,.@ X > I L ! x r s s h h f h f h z q , 5 3 # @ ,.,.,.,.,.,.,.o = U U ! Z t s s h h f h f h x y , 3 q = + @ ,.,.,.,.,.",
",.,.,.,.,.,.+ o > N c c h g h h h h h h z y 6 6 4 6 3 # @ ,.,.,.,.,.,.,.+ % c v c z d h h h h h h z s q 5 4 5 6 = + @ ,.,.,.,.,.",
",.,.,.,.,.,.@ o - h s s f h f h h h h h z r < 4 5 6 1 @ # ,.,.,.,.,.,.,.+ @ s g s s h h d h h h h h u 1 3 5 4 6 % + @ ,.,.,.,.,.",
",.,.,.,.,.,.,.,.,.x h h h h h f h h z i 4 4 4 4 4 4 5 ,.,.,.,.,.,.,.,.,.,.,.j h h f h h h h h z f 6 5 4 4 4 4 6 ,.,.,.,.,.,.,.,.",
",.,.,.,.,.,.,.,.,.h h h f f h h p d h y 1 4 4 4 4 4 6 ,.,.,.,.,.,.,.,.,.,.,.h h h h h h h s s h i 3 3 4 4 4 4 5 ,.,.,.,.,.,.,.,.",
",.,.,.,.,.,.,.,.,.,.,.h h h h d 5 3 3 3 4 4 4 5 4 ,.,.,.,.,.,.,.,.,.,.,.,.,.,.,.h h h h h q 1 4 3 4 4 5 4 4 ,.,.,.,.,.,.,.,.,.,.",
",.,.,.,.,.,.,.,.,.,.,.h f h h d 5 3 4 4 4 4 4 4 4 ,.,.,.,.,.,.,.,.,.,.,.,.,.,.,.h h s h h q 2 4 4 4 4 4 4 5 ,.,.,.,.,.,.,.,.,.,.",
",.,.,.,.,.,.,.,.,.,.,.,.,.,.,.,.,.,.,.,.,.,.,.,.,.,.,.,.,.,.,.,.,.,.,.,.,.,.,.,.,.,.,.,.,.,.,.,.,.,.,.,.,.,.,.,.,.,.,.,.,.,.,.,.",
",.,.,.,.,.,.,.,.,.,.,.,.,.,.,.,.,.,.,.,.,.,.,.,.,.,.,.,.,.,.,.,.,.,.,.,.,.,.,.,.,.,.,.,.,.,.,.,.,.,.,.,.,.,.,.,.,.,.,.,.,.,.,.,."
};
