/* XPM */
static char *result[] = {
/* columns rows colors chars-per-pixel */
"64 64 71 1 ",
"  c #141413",
". c #1C1C1B",
"X c #201F1E",
"o c #1F201F",
"O c #22201E",
"+ c #242423",
"@ c #282726",
"# c #272826",
"$ c #292926",
"% c #2C2C2B",
"& c #322F2D",
"* c #2F302E",
"= c #31312F",
"- c #343432",
"; c #393634",
": c #373836",
"> c #393936",
", c #3C3C3B",
"< c #45382B",
"1 c #423A34",
"2 c #4B3B36",
"3 c #3F403D",
"4 c #41413E",
"5 c #48413E",
"6 c #4E483F",
"7 c #52463E",
"8 c #3F4040",
"9 c #444543",
"0 c #494644",
"q c #474846",
"w c #494946",
"e c #494748",
"r c #474949",
"t c #4C4C4B",
"y c #544F46",
"u c #594D46",
"i c #514E4C",
"p c #4F504E",
"a c #51514E",
"s c #58534F",
"d c #545553",
"f c #5A5755",
"g c #575855",
"h c #595956",
"j c #575758",
"k c #575958",
"l c #5C5C5A",
"z c #615B57",
"x c #605F5D",
"c c #5F605C",
"v c #61615E",
"b c #5F6160",
"n c #646462",
"m c #686665",
"M c #676867",
"N c #696966",
"B c #676968",
"V c #6C6C6A",
"C c #6F706D",
"Z c #71726E",
"A c #747473",
"S c #797775",
"D c #777874",
"F c #797976",
"G c #7B7C7A",
"H c #807E7A",
"J c #80807E",
"K c #828281",
"L c #878B87",
"P c #888989",
"I c None",
/* pixels */
"IIIg%IIIIMIIIIhIIIIhIIIIdIIII,tIIIImIIIIpIIIInIIII,4IIIIVIIIItII",
"III0dIIIIDIII%dwIIImIIIIqlIII3VIII.VIIIIcIIIItlIIItcIII,nIIIItII",
"II+ZCII,%lIIItV&II,lIII=ZfII*CVIIIpVwII%dIII4KdII%VFII.nZ%II+wII",
"ww-np,dVtndpdrA1thvgdkd,hi4q0ll>p9gh-tplc3at-Akt09ld,w,th-aqtt06",
"III4-I.04cIII-kII@0p,III5;II9,qIII+vII%,l$IIIw%II-4tII%%VIII8pII",
"IIIw,IIIIcIIIIlIIIIhIIIIdIIII,tIIIIFIIIIkIIIInIIIIqiIII%GIIIIdII",
"IIIj,III-lIIIIlIIIIg0IIIdIIII;kIIIICIII.k=IIIlIIIIqgIII,ZIII.gII",
"II%d>IIIdA%I4=dIII%AwII=hIII+dFIIg,hIII%A0IItt8II.vGII0%NIII9V,I",
"VvZgtGAdndtVmtfAnZdV,ngvktFM0Zc;lAhlFVmkNqA0Sh0mAdVlgVmkNDFVav92",
"I,vh=-,$=hp,>,Nqt-,a=,+ln:r-0qt.0-ll0a9*d=%-tdb89,9w,t%hho,4=t.I",
"IIIg,IIIImIII=vIIIIfIIIInIIII>tIII+bIIIItIIIIdIIII9gIIIwVIIIIdII",
"III0-IIIIxIIIImIIIIgIIIIjtIII1wIIIIZIIIItIIIIt,IIIwdIII,VIIIIpII",
"II.dBIII$AIII-v8IIIlIII+ljIII,tIII,VIIIolIII%gdIIIrtIII:m4II%dII",
"4h9FA9gFwVgd4wD:,nAvete-Gb90Atq0w,nV9wvml3at1Dt,0Bdwka5fl=twck35",
">tlpt4wvdA9wtqk,04nh:9wwMM89likwtt-N909dl0t98ger8ltat0;dm3qadd,1",
"II+g-IIo%VIIIIiIII+aIIIIbIIII,MIIIInIII+cIIIIkIIII00III3ZIII+dII",
"IIIl-IIIImIIIImIIII0IIIIdIIII,hIIIIvIIIIfIIIIlIIIIw,IIItmIIIItII",
"IIIp,III;b-II+vIII h0IIIneIII9VIII%vIII%n>IIIddIII4nIII%VIII+h#I",
"Ilah-II,bJd,d3hIId9HaImhl8Ie0CP,Iq0nIIItA-IV4JgII-MG%IfwVIImwVrI",
"ntKdgnlwpn,tgfmgldlV,tiCmdgitclrmakmanvtu,bhamwahdhh,gavDdgtdt-y",
"II8tnIIIInII$,hIII-dIII:lIIII-0II.0lIIII0III%tIIII,iII%-DIII+tII",
"IIIg%IIIImIIIImIIIIhIIIIgIIII-0IIIIMIIIIdIIIIjIIII9tIII>DIIIIkII",
"III9gIII-VIII vIIIIvIIIIrnIII4tIII%DIIIIiIIIIpmIIIqwIII+jIIIIdII",
"II.hA#--hK9IIwZ3I>%l-II%DnI-d4dII*wFtI>4d%II:Vg#Idt4II%ll-I->tII",
"alwmq0gnhM3ttdx4fnnxwsi,VwggAtnchdln0hlVnqllwF9lgCd9kc0nm,lggtd0",
"IIIq-I.%wnIII+5II%wl,IIIa4II,,bIII%nII+,vIIIIa+II%ewIII.ZIII,wII",
"IIIt9IIItGIIIIwIIIInIIII0IIII,mIIIInIIIInIIIIgIIIIrbIIIwFIIIIdII",
"IIIt-IIIpnIIIIiIIIIg,III2IIII,tIIIIhIIIIg-IIIiwIII90III-mIIIIqII",
"IIwl,III0CIII8fIII-VnIItl9IIIdFIII%nIII,AdII+flIIIlAII,ezIII9n,I",
"mVVdwFV0VC:AVddnvmqZigFFvgnh0NGtJV0nnglwGtCD,F9hneVVihwji,VV0Vi4",
"I.ad-II9tB$I,wgIII%d,-%wd*IIo,h%I,thIII%d%+.>at9I.90-I-,a+II%0+I",
"IIIg>IIIIbIII%lIIIInIIIIBIIII:mIII-mIIIIcIIIIlIIII09III+yIIIIdII",
"IIIa,IIIIdIIIIwIIIIlIIIIlIIII:pIIIIJIIIIlIIIImIIIItwIII0lIIIIpII",
"II.inIII%BIII-n9II%vtII tmIII4tIII>CIII.cIII.tqIIIttIII-AdII+aII",
"al,Cl-kGtgww,dSehVtFe9t:FwttFgtmp,lvwnNmkwlM0CdpdVdttttlV8nMhpd4",
",,hq,,>dlg334,n::9cV>-4-mt=,dwt>>,4v:;1hl%0,%hr,,tdd,9-dd%,>pa=;",
"III9,III-VIIIIhIIIIVIIIIdIIII>vIIIInIII.nIIIIdIIII8jIII0GIII+aII",
"IIIg>IIIIlIIIIlIIIIlIIIIVIIII-vIIIIgIIIIhIIIIvIIIIetIIIpVIIIItII",
"IIId9IIIeCIII.nIIIIcwIIIlIIII,VIII+bIIIOl:IIIvIIII0nIII,nIII%pII",
"IhfttIIobJ*tktlIIwwZkInndtII%nA%Im0VII,0J0IgnhgII-nA%ImwZIII9CwI",
"dtZf,adthnwjlhmldn0c,trFtte4asntltdNdVh0V-tanltVf-vdtkhtVgmqtvw<",
"II=a-IIIIVII+*VIIIIdIII%gIIII&hII $mIIIIdIII%gIIII9wIII-VIIIIqII",
"IIIt1IIIIVIIIIgIIIImIIIIgIIII0hIIIIZIIIIlIIIInIIIItaIII%AIIIIaII",
"III4pIII+VIIIIgIIIIcIIIItgIII,mIII.DIIIInIIIIhVIII9tIII=tIIIItII",
"II%nA%9r=CII-qFdI03c,II%bn-,l8nII,tm-Itwv-II*Vg%IdtwII.yFtIt,p*I",
"hc:VhtdAdMhgttN,ydVhtlv,VdadAwhnhdNltlvhlqvc4DtdpVgdwl9tGqlhltpu",
"III0,II%,kIIIIwII :jIIIIdlII-,gII+9hIII,lIIIId0II%ttIII90III>qII",
"IIId0IIIImIIIIcIIIIcIIIINIIIIelIIIIvIIIInIIIIhIIIItrIII8mIIIIhII",
"III0,IIIIkIIIIkIIIIdIIIIhIIII,gIIIInIIIIdIIIIhIIII99III0AIIIIwII",
"I4+tmIIIhVII--VtII%VdII09IIIItVII8%CIII*CdIIgmIII:lVIII,AIII-l%I",
"fy,nB8h,VZ:mtdD9mveLwlnV4,0a:VV0tnpDhlltKkdgFfglkrVn,VVgVpVhwDe7",
"I%4a,III,c$I=8g-II@l,I 0x4IIIwtII-dAIII-g-IIwh-II%arII+tnIII*p+I",
"IIIv&IIIInIII.dIIIIwIIIIhIIII,tIII-VIIIIkIIIItIIIIwkIII8AIIIItII",
"IIId%IIIIVIIIImIIIIfIIIIkIIII9tIIIIhIIIIbIIIIgIIII0aIIIwNIIII0II",
"II wnII%,A,II+VII-,aIII,hmIII,nIII-VkII$lIII%igIIo;uII--m0II$pII",
"mV,BSwlhlJlljpDpnxDadmV,FhcnAtbcdgdVabCmlgVV,SfgktNNdVghA8VlqA04",
"II+g0+-etloI%-v+I>kl;I-3vd:a0tlII-,N-Iwtl-II:V9+ItkgXI>hl$It9l+I",
"III3,III%kIIIItIIIIlIIIIdIIII-nIIIImIII.cIIIIgIIII,wIII.AIII.wII",
"IIIv-IIIIBIIIIVIIIIhIIIImIIII3mIIIINIIIIhIIIIkIIIIwtIII,GIIIIaII",
"IIIg,IIItVIII%lIIIIhtIIItIIII>nIII+AIIIIg,II tAIIItwIII,CIIIIqII",
"%dVl,,,#gD*-Vkd--,9F0+gDl03-%VC%;naZ,,>wD9-w>Ad-,9mL%%nlV>--wm%&",
"h0Zw1qk,gn90dkdlhpqV3t9hN0tt0ll0aiaS0kd0V%080Dw903cVydwwZ9vheb-1",
"II#d,IIIIlII =dIIIIhIII.nIIII,hII.%GIIIIhIII+pwII.39II @vIIIItII",
"III1&IIII5IIII7IIIIuIIII<IIII>4IIIO4IIII7IIIIiIIII14IIIO2IIII0II"
};
