/* XPM */
static char *result[] = {
/* columns rows colors chars-per-pixel */
"64 64 97 2 ",
"   c #050405",
".  c #080607",
"X  c #090708",
"o  c #0C0A0B",
"O  c #100E0F",
"+  c #110F10",
"@  c #151314",
"#  c #191617",
"$  c #1A1718",
"%  c #1D1B1C",
"&  c #201D1E",
"*  c #1D1D23",
"=  c #221F21",
"-  c #1F2028",
";  c #252223",
":  c #282526",
">  c #25252D",
",  c #2B2728",
"<  c #2D2A2B",
"1  c #302C2E",
"2  c #242733",
"3  c #252935",
"4  c #272B38",
"5  c #2B2D39",
"6  c #332F31",
"7  c #2F323A",
"8  c #343131",
"9  c #393535",
"0  c #363439",
"q  c #3B3738",
"w  c #3B3839",
"e  c #45322C",
"r  c #433634",
"t  c #423D3D",
"y  c #483D3B",
"u  c #54403C",
"i  c #59443E",
"p  c #2C3242",
"a  c #2B354A",
"s  c #3C414C",
"d  c #3C4252",
"f  c #3F485D",
"g  c #3D4760",
"h  c #3E4A66",
"j  c #464141",
"k  c #4C4646",
"l  c #4F4949",
"z  c #584947",
"x  c #524C4C",
"c  c #575050",
"v  c #5B5455",
"b  c #5D5559",
"n  c #5F5858",
"m  c #66534E",
"M  c #685550",
"N  c #615A5A",
"B  c #725F5E",
"V  c #74605F",
"C  c #47536F",
"Z  c #535B6E",
"A  c #495675",
"S  c #4B5A7C",
"D  c #535F79",
"F  c #586175",
"G  c #6C6565",
"H  c #726A6A",
"J  c #777070",
"K  c #7C7474",
"L  c #8A4E39",
"P  c #945742",
"I  c #935845",
"U  c #9E5F4A",
"Y  c #9F604B",
"T  c #AF6245",
"R  c #BB694B",
"E  c #A66957",
"W  c #BF6F51",
"Q  c #807878",
"!  c #BB7961",
"~  c #CA8369",
"^  c #C68D77",
"/  c #D4967E",
"(  c #4D5D80",
")  c #516185",
"_  c #556589",
"`  c #5C6C90",
"'  c #6E7C9D",
"]  c #707E9F",
"[  c #7281A3",
"{  c #7384AA",
"}  c #8496BF",
"|  c #D69981",
" . c #8698C1",
".. c #8A9DC5",
"X. c #8C9FC9",
"o. c #8FA2CC",
"O. c None",
/* pixels */
"O.O.O.O.O.O.O.O.O.O.O.O.O.O.O.O.O.O.O.O.O.O.O.O.O.O.O.O.O.O.O.O.O.O.O.O.O.O.O.O.O.O.O.O.O.O.O.O.O.O.O.O.O.O.O.O.O.O.O.O.O.O.O.O.",
"O.O.O.O.O.O.O.O.O.O.O.O.O.O.O.O.O.O.O.O.O.O.O.O.O.O.O.O.O.O.O.O.O.O.O.O.O.O.O.O.O.O.O.O.O.O.O.O.O.O.O.O.O.O.O.O.O.O.O.O.O.O.O.O.",
"O.O.O.O.O.O.O.O.O.O.O.O.O.O.O.O.O.O.O.O.O.O.O.O.O.O.O.O.O.O.O.O.O.O.O.O.O.O.O.O.O.O.O.O.O.O.O.O.O.O.O.O.O.O.O.O.O.O.O.O.O.O.O.O.",
"O.O.O.O.O.O.O.O.O.O.O.O.O.O.O.O.O.O.O.O.O.O.O.O.O.O.O.O.O.O.O.O.O.O.O.O.O.O.O.O.O.O.O.O.O.O.O.O.O.O.O.O.O.O.O.O.O.O.O.O.O.O.O.O.",
"O.O.O.O.O.O.O.O.O.O.O.O.O.O.O.O.O.O.O.O.O.O.O.O.O.O.O.O.O.O.O.O.O.O.O.O.O.O.O.O.O.O.O.O.O.O.O.O.O.O.O.O.O.O.O.O.O.O.O.O.O.O.O.O.",
"O.O.O.O.O.O.O.O.O.O.O.O.O.O.O.O.                        O.O.O.O.O.O.O.O.O.O.O.O.O.O.O.O.O.O.O.O.O.O.O.O.O.O.O.O.O.O.O.O.O.O.O.O.",
"O.O.O.O.O.O.O.O.O.O.O.O.O.O.O.O.# # # # $ $ # # $ $ # # O.O.O.O.O.O.O.O.O.O.O.O.O.O.O.O.O.O.O.O.O.O.O.O.O.O.O.O.O.O.O.O.O.O.O.O.",
"O.O.O.O.O.O.O.O.O.O.O.O.        < 8 8 8 6 8 6 6 8 8 8 6 O           O.O.O.O.O.O.O.O.O.O.O.O.O.O.O.O.O.O.O.O.O.O.O.O.O.O.O.O.O.O.",
"O.O.O.O.O.O.O.O.O.O.O.  @ @ ; < t u j j j j , - ; & & - # # @ # # @     O.O.O.O.O.O.O.O.O.O.O.O.O.O.O.O.O.O.O.O.O.O.O.O.O.O.O.O.",
"O.O.O.O.O.O.O.O.O.O.X X $ % 1 9 k k k k k j 7 3 3 3 s d d d 3 3 3 2 o X O.O.O.O.O.O.O.O.O.O.O.O.O.O.O.O.O.O.O.O.O.O.O.O.O.O.O.O.",
"O.O.O.O.O.O.O.O.    @ $ < 8 j k k l k k : $ A ( S ) ..o.o.o._ S S S * $     O.O.O.O.O.O.O.O.O.O.O.O.O.O.O.O.O.O.O.O.O.O.O.O.O.O.",
"O.O.O.O.O.O.O.O.    & , 1 8 8 8 8 8 8 6 & $ A ( ( S ..o.{ { ) ) { [ > #     O.O.O.O.O.O.O.O.O.O.O.O.O.O.O.O.O.O.O.O.O.O.O.O.O.O.",
"O.O.O.O.O.O.O.O.    : 6 6 8 #           # $ A ( ( S o.o._ S ) ) o...> $     O.O.O.O.O.O.O.O.O.O.O.O.O.O.O.O.O.O.O.O.O.O.O.O.O.O.",
"O.O.O.O.O.O.O.O.    . o X o @ # # # # # $ $ A (  .o.` ) 5 - - p o...> #     O.O.O.O.O.O.O.O.O.O.O.O.O.O.O.O.O.O.O.O.O.O.O.O.O.O.",
"O.O.O.O.O.O.O.O.    o O O O # $ 1 9 8 0 8 8 f h [ [ C h 0 8 8 w ' ' - @     O.O.O.O.O.O.O.O.O.O.O.O.O.O.O.O.O.O.O.O.O.O.O.O.O.O.",
"O.O.O.O.O.O.O.O.    @ $ $ $ $ $ j k k k k k ; # # # # # k k k k % #     O.O.O.O.O.O.O.O.O.O.O.O.O.O.O.O.O.O.O.O.O.O.O.O.O.O.O.O.",
"O.O.O.O.O.O.O.  9 t 9 1 1 1 1 1 u k k l 8 < ; ; < 1 1 < 9 9 9 9 ; = = = X   O.O.O.O.O.O.O.O.O.O.O.O.O.O.O.O.O.O.O.O.O.O.O.O.O.O.",
"O.O.O.O.O.O.    9 u 9 < < < < 1 u s k k 8 ; < < 9 9 u s s u w 9 1 1 ; ;     O.O.O.O.O.O.O.O.O.O.O.O.O.O.O.O.O.O.O.O.O.O.O.O.O.O.",
"O.O.O.O.O.O.    : 8 ; $ $ $ $ $ < 8 j k w 8 u l k k G H G G l k l k 8 1     O.O.O.O.O.O.O.O.O.O.O.O.O.O.O.O.O.O.O.O.O.O.O.O.O.O.",
"O.O.O.O.O.O.    : 8 ; $ : , , , 8 8 j k : * I Y U U E E E E Y Y u w = & O.O.O.O.O.O.O.O.O.O.O.O.O.O.O.O.O.O.O.O.O.O.O.O.O.O.O.O.",
"O.O.O.O.O.O.    : 8 : % < 6 6 6 8 8 s k % X T R W W W W W W R R 9 8 X   O.O.O.O.O.O.O.O.O.O.O.O.O.O.O.O.O.O.O.O.O.O.O.O.O.O.O.O.",
"O.O.O.O.O.O.    w k w 8 8 6 6 6 s l i i & X T R / | | | | | R R i k o   O.O.O.O.O.O.O.O.O.O.O.O.O.O.O.O.O.O.O.O.O.O.O.O.O.O.O.O.",
"O.O.O.O.O.O.O.  < 9 w u t w t t i l w 9 @ X ! ~ / | | | | | P L 9 9 o O.O.O.O.O.O.O.O.O.O.O.O.O.O.O.O.O.O.O.O.O.O.O.O.O.O.O.O.O.",
"O.O.O.O.O.O.O.O.    w k k l k k l l =   X X ^ / | | | | | / e $ . X O.O.O.O.O.O.O.O.O.O.O.O.O.O.O.O.O.O.O.O.O.O.O.O.O.O.O.O.O.O.",
"O.O.O.O.O.O.O.O.O.O.$ $ $ $ $ @ @ # @ $ : < u i m M B V V V ; $ . . O.O.O.O.O.O.    O.O.X                           O.O.O.O.O.O.",
"O.O.O.O.O.O.O.O.O.O.O.          X X @ $ < 1 1 < k k v n v c * @ .   O.O.O.O.O.O.    O.O.D F D C s 7 = = & * * % @ @ O.O.O.O.O.O.",
"O.O.O.O.O.O.O.O.O.O.O.O.O.O.      X # $ < 1 1 1 k l n n l k @   O.O.O.O.O.O.O.O.      f o.o.o.o.S h 9 7 w w 0 8 ; %     O.O.O.O.",
"O.O.O.O.O.O.O.O.O.O.O.O.O.O.      X @ $ & = < 1 8 0 l l 6 , X   O.O.O.O.O.O.  o & = & 7 F F F Z f d w 9 w w 0 8 ; %     O.O.O.O.",
"O.O.O.O.O.O.O.O.O.O.O.O.O.O.    X o $ % % & , , < < j j % #     O.O.O.O.O.O.  o - ; ; : 8 8 8 8 8 8 9 8 8 8 8 1 ; $   O.O.O.O.O.",
"O.O.O.O.O.O.O.O.O.O.O.O.O.O.    @ $ < 1 1 1 +   # $ $ $ .                     o $ $ $ $ % # X         X     X       O.O.O.O.O.O.",
"O.O.O.O.O.O.O.O.O.O.O.O.O.  + @ $ $ < 1 : ; ; ; : , : : ; ; ; ; ; ; ; : j j @ @ $ $ $ $ $ #     O.O.O.O.O.O.O.O.O.O.O.O.O.O.O.O.",
"O.O.O.O.O.O.O.O.O.O.O.O.    @ $ $ $ < 1 & $ < 1 < < 1 1 < 1 1 1 1 < 1 0 n v $ # $ $ $ $ $ @   X O.O.O.O.O.O.O.O.O.O.O.O.O.O.O.O.",
"O.O.O.O.O.O.O.O.O.O.O.O.    @ $ $ $ $ $ < < 1 1 1 < 1 1 1 1 1 < % $ $ & k k   o $ $ $ #     O.O.O.O.O.O.O.O.O.O.O.O.O.O.O.O.O.O.",
"O.O.O.O.O.O.O.O.O.O.O.O.    & ; : = % $ ; : : , : : : , : : : : @ @ @ $ w q   X % - , :     O.O.O.O.O.O.O.O.O.O.O.O.O.O.O.O.O.O.",
"O.O.O.O.O.O.O.O.O.O.O.O.    : 1 1 1 & $ $ $ $ $ $ $ $ $ $ $ $ $         $ $   o ; , 0 8   X O.O.O.O.O.O.O.O.O.O.O.O.O.O.O.O.O.O.",
"O.O.O.O.O.O.O.O.O.O.O.O.    , 1 1 1 < 1 t j j j j j j j < < O o $ # # @ X o O.O.o O # # O.O.O.O.O.O.O.O.O.O.O.O.O.O.O.O.O.O.O.O.",
"O.O.O.O.O.O.O.O.O.O.O.O.    = < 1 1 6 9 x x x x x x v v w 0 + o $ $ # @     O.O.        O.O.O.O.O.O.O.O.O.O.O.O.O.O.O.O.O.O.O.O.",
"O.O.O.O.O.O.O.O.O.O.O.O.    @ $ < 1 j k v N N N N N K Q c k & $ $ $     O.O.O.O.O.O.O.O.O.O.O.O.O.O.O.O.O.O.O.O.O.O.O.O.O.O.O.O.",
"O.O.O.O.O.O.O.O.O.O.O.O.    o O $ % j l N N N N H J Q Q x k $ o o o O.O.O.O.O.O.O.O.O.O.O.O.O.O.O.O.O.O.O.O.O.O.O.O.O.O.O.O.O.O.",
"O.O.O.O.O.O.O.O.O.O.O.O.X X X X . . t k v v N N J K K K x j @       O.O.O.O.O.O.O.O.O.O.O.O.O.O.O.O.O.O.O.O.O.O.O.O.O.O.O.O.O.O.",
"O.O.O.O.O.O.O.O.O.O.    @ $ $ $ $ $ < 1 1 1 j k k k l k 6 < o   O.O.O.O.O.O.O.O.O.O.O.O.O.O.O.O.O.O.O.O.O.O.O.O.O.O.O.O.O.O.O.O.",
"O.O.O.O.O.O.O.O.O.O.    = ; 8 q = $ < 1 q t k l c c G G u t +   O.O.O.O.O.O.O.O.O.O.O.O.O.O.O.O.O.O.O.O.O.O.O.O.O.O.O.O.O.O.O.O.",
"O.O.O.O.O.O.O.O.O.O.    , < j k , $ < 1 k k k k N N K K l k @   O.O.O.O.O.O.O.O.O.O.O.O.O.O.O.O.O.O.O.O.O.O.O.O.O.O.O.O.O.O.O.O.",
"O.O.O.O.O.O.O.O.O.O.    @ % = = + . : 1 k k l k z c p w ; *     O.O.O.O.O.O.O.O.O.O.O.O.O.O.O.O.O.O.O.O.O.O.O.O.O.O.O.O.O.O.O.O.",
"O.O.O.O.O.O.O.O.O.O..   + + + + .   = : t t t t t t 8 1 % # .   O.O.O.O.O.O.O.O.O.O.O.O.O.O.O.O.O.O.O.O.O.O.O.O.O.O.O.O.O.O.O.O.",
"O.O.O.O.O.O.O.O.O.O.    .   .       $ $ < 1 1 1 1 1 1 1 % # .   O.O.O.O.O.O.O.O.O.O.O.O.O.O.O.O.O.O.O.O.O.O.O.O.O.O.O.O.O.O.O.O.",
"O.O.O.O.O.O.O.O.O.O.O.O.O.O.    + $ o o @ + @ @ @ @ @ @ X X     O.O.O.O.O.O.O.O.O.O.O.O.O.O.O.O.O.O.O.O.O.O.O.O.O.O.O.O.O.O.O.O.",
"O.O.O.O.O.O.O.O.O.O.O.O.O.O.. o $ $ + o .     . X o @ @ @ # @ @ O.O.O.O.O.O.O.O.O.O.O.O.O.O.O.O.O.O.O.O.O.O.O.O.O.O.O.O.O.O.O.O.",
"O.O.O.O.O.O.O.O.O.O.O.O.    @ $ $ $ $ $ o       # $ < 6 6 < 1 1 o   O.O.O.O.O.O.O.O.O.O.O.O.O.O.O.O.O.O.O.O.O.O.O.O.O.O.O.O.O.O.",
"O.O.O.O.O.O.O.O.O.O.O.O.    @ $ $ $ $ $ X       o + < < l x x l +   O.O.O.O.O.O.O.O.O.O.O.O.O.O.O.O.O.O.O.O.O.O.O.O.O.O.O.O.O.O.",
"O.O.O.O.O.O.O.O.O.O.O.O.    @ % $ $ $ $ o     .   . < 6 n N N n & # O.O.O.O.O.O.O.O.O.O.O.O.O.O.O.O.O.O.O.O.O.O.O.O.O.O.O.O.O.O.",
"O.O.O.O.O.O.O.O.O.O.O.O.    @ $ $ $ < < +   O.O.$ $ j l n N N N n n +   O.O.O.O.O.O.O.O.O.O.O.O.O.O.O.O.O.O.O.O.O.O.O.O.O.O.O.O.",
"O.O.O.O.O.O.O.O.O.O.O.O.    O O = ; < 6 @   O.O.O.$ 8 9 l l x l c c O   O.O.O.O.O.O.O.O.O.O.O.O.O.O.O.O.O.O.O.O.O.O.O.O.O.O.O.O.",
"O.O.O.O.O.O.O.O.O.O.O.O.        , 6 6 < @   O.O.O.O.  . 1 6 8 8 k k o   O.O.O.O.O.O.O.O.O.O.O.O.O.O.O.O.O.O.O.O.O.O.O.O.O.O.O.O.",
"O.O.O.O.O.O.O.O.O.O.    @ $ $ @ , < $ O O.O.O.O.O.O..   < < 1 < % $ O.O.O.O.O.O.O.O.O.O.O.O.O.O.O.O.O.O.O.O.O.O.O.O.O.O.O.O.O.O.",
"O.O.O.O.O.O.O.O.O.O.    @ $ $ $ ; , @   O.O.O.O.O.O.  . < 6 1 1 o   O.O.O.O.O.O.O.O.O.O.O.O.O.O.O.O.O.O.O.O.O.O.O.O.O.O.O.O.O.O.",
"O.O.O.O.O.O.O.O.O.O.    @ $ $ $ o   O.O.O.O.O.O.O.O.  . < 6 1 < o       O.O.O.O.O.O.O.O.O.O.O.O.O.O.O.O.O.O.O.O.O.O.O.O.O.O.O.O.",
"O.O.O.O.O.O.O.O.O.O.    o o @ $ o   O.O.O.O.O.O.O.O.    < < $ $ @ @ @ @     O.O.O.O.O.O.O.O.O.O.O.O.O.O.O.O.O.O.O.O.O.O.O.O.O.O.",
"O.O.O.O.O.O.O.O.O.O.    X X # $ o X O.O.O.O.O.O.O.O.  . , < o o $ $ # @     O.O.O.O.O.O.O.O.O.O.O.O.O.O.O.O.O.O.O.O.O.O.O.O.O.O.",
"O.O.O.O.O.O.O.O.O.O.    @ $ $ $ $ $ o   O.O.O.O.O.O.    $ $ $ $ $ $         O.O.O.O.O.O.O.O.O.O.O.O.O.O.O.O.O.O.O.O.O.O.O.O.O.O.",
"O.O.O.O.O.O.O.O.O.O.    o + $ $ $ $ @ @ o   O.O.O.O.    O O + O O O O.O.O.O.O.O.O.O.O.O.O.O.O.O.O.O.O.O.O.O.O.O.O.O.O.O.O.O.O.O.",
"O.O.O.O.O.O.O.O.O.O.        @ $ $ $ $ $ X   O.O.O.O.                O.O.O.O.O.O.O.O.O.O.O.O.O.O.O.O.O.O.O.O.O.O.O.O.O.O.O.O.O.O.",
"O.O.O.O.O.O.O.O.O.O.O.O.O.O.                O.O.O.O.O.O.O.O.O.O.O.O.O.O.O.O.O.O.O.O.O.O.O.O.O.O.O.O.O.O.O.O.O.O.O.O.O.O.O.O.O.O.",
"O.O.O.O.O.O.O.O.O.O.O.O.O.O.O.              O.O.O.O.O.O.O.O.O.O.O.O.O.O.O.O.O.O.O.O.O.O.O.O.O.O.O.O.O.O.O.O.O.O.O.O.O.O.O.O.O.O."
};
