/* XPM */
static char *c66a447bff5344798357248a4f36a74fpmFibUDhjBU9lFpO[] = {
/* columns rows colors chars-per-pixel */
"64 64 163 2 ",
"   c None",
".  c #211A2A",
"X  c #221B2A",
"o  c #2A2035",
"O  c #2A2135",
"+  c #2C2238",
"@  c #2E243B",
"#  c #32273F",
"$  c #4E2B34",
"%  c #422F39",
"&  c #49333D",
"*  c #5E3239",
"=  c #62343B",
"-  c #68363D",
";  c #342942",
":  c #362A44",
">  c #372B46",
",  c #382B47",
"<  c #382C47",
"1  c #382C48",
"2  c #3B2E4B",
"3  c #3C2F4C",
"4  c #3D304E",
"5  c #3E304E",
"6  c #3F3150",
"7  c #47344A",
"8  c #573E43",
"9  c #573C45",
"0  c #593E48",
"q  c #413353",
"w  c #423354",
"e  c #433455",
"r  c #473756",
"t  c #4E3B58",
"y  c #573954",
"u  c #5D3A54",
"i  c #503D58",
"p  c #693E53",
"a  c #344F7B",
"s  c #5C4145",
"d  c #5F424A",
"f  c #5F4350",
"g  c #584059",
"h  c #58425A",
"j  c #5B5958",
"k  c #5F5D5C",
"l  c #60434B",
"z  c #7C4044",
"x  c #654357",
"c  c #6F4053",
"v  c #644856",
"b  c #6B4A52",
"n  c #60455B",
"m  c #63475C",
"M  c #674C5F",
"N  c #694B5D",
"B  c #684C5F",
"V  c #704053",
"C  c #7A4452",
"Z  c #704E55",
"A  c #565A7F",
"S  c #6A4D60",
"D  c #6F5061",
"F  c #765361",
"G  c #785461",
"H  c #7C5763",
"J  c #7D5763",
"K  c #6B5D7C",
"L  c #844447",
"P  c #874548",
"I  c #8C484A",
"U  c #8F4A4B",
"Y  c #914B4C",
"T  c #964D4E",
"R  c #974E4F",
"E  c #854752",
"W  c #8D4A51",
"Q  c #8E4B51",
"!  c #914C51",
"~  c #924C51",
"^  c #984E50",
"/  c #994E50",
"(  c #9A4F50",
")  c #9B5151",
"_  c #9D5453",
"`  c #825B65",
"'  c #835B65",
"]  c #845F69",
"[  c #8D6268",
"{  c #976C69",
"}  c #90686E",
"|  c #9D7668",
" . c #997874",
".. c #A67D6E",
"X. c #A77D6E",
"o. c #B2766A",
"O. c #B2766B",
"+. c #AC7B7A",
"@. c #B77E70",
"#. c #A68477",
"$. c #B2817C",
"%. c #BC8D7B",
"&. c #C28F7D",
"*. c #C6917E",
"=. c #365483",
"-. c #375584",
";. c #3C6094",
":. c #3D6298",
">. c #425584",
",. c #5E7B95",
"<. c #5D7C9A",
"1. c #6E6B8F",
"2. c #71768C",
"3. c #69709D",
"4. c #416AA3",
"5. c #857696",
"6. c #64839E",
"7. c #64839F",
"8. c #64849F",
"9. c #758296",
"0. c #778AAA",
"q. c #7195B3",
"w. c #7398B7",
"e. c #739ABF",
"r. c #7CA4C5",
"t. c #8C839A",
"y. c #999697",
"u. c #9C9A97",
"i. c #9E9E95",
"p. c #9F9F96",
"a. c #959B9B",
"s. c #BA8681",
"d. c #BB8681",
"f. c #BC8881",
"g. c #BE8A82",
"h. c #BF8A82",
"j. c #B69288",
"k. c #BD958E",
"l. c #BE958E",
"z. c #B59E96",
"x. c #B69E96",
"c. c #A0A097",
"v. c #A2A299",
"b. c #A3A399",
"n. c #A4A39A",
"m. c #A4A49A",
"M. c #8E9AAF",
"N. c #92A2BB",
"B. c #BEB2A5",
"V. c #A6ADB4",
"C. c #AFBABF",
"Z. c #CB9886",
"A. c #CC9886",
"S. c #CE9B87",
"D. c #CF9C87",
"F. c #CEA592",
"G. c #CDBBAB",
"H. c #C7C7BA",
"J. c #CCCCBF",
"K. c #A9B9C2",
"L. c #B2BDC1",
"P. c #BAC2C1",
"I. c #C0C5C0",
/* pixels */
"                                                                          . . . . . . . . . . . . . .                           ",
"                                                                          . . . . . . . . . . . . . .                           ",
"                                                                        % l l l l l l p l l l l l l 9                           ",
"                                                        . . . . . . . . & [ [ [ [ [ [ [ [ [ [ [ [ [ Z . . . .                   ",
"                                                        . . . . . . . . & [ [ [ [ [ [ [ [ [ [ ] [ [ b . . . .                   ",
"                                                      + # # # # 0 d d d b [ [ [ [ [ [ [ [ [ G G F F x . . . .                   ",
"                                              . . . . # e e e e ` [ [ [ [ [ [ [ [ [ [ [ [ [ w w e e 1 . . . .                   ",
"                                              . . . . # e e e e ' [ [ [ [ [ [ [ [ [ [ [ [ [ w w e e 1 . . . .                   ",
"                                              @ + # @ 7 n n n n G J J J ` J J J J J J J H G 4 2 2 2 ; . . . .                   ",
"                                    . . . . . e w w w N [ [ [ [ g e e e e e w w e e e e w w . . . . .                           ",
"                                    . . . . . e e e e B [ [ [ [ g e e e e e w r e e e e 6 w . . . . .                           ",
"                                    . . . . . e e e e m ` ` ` ` F S S S S D V C S S S S S S . . . . .                           ",
"                                    . . . . . e e e e e e e e e +.d.s.s.s.s.5.*.d.d.d.d.d.d.. . . . .                           ",
"                                    . . . . . e e e e e e e e e +.d.s.s.s.s.Z.+.d.d.d.d.d.d.. . . . .                           ",
"                                    . . . . . M M M B B M M B B $.f.f.Z.d.Z.$.Z.Z.d.Z.d.d.Z.. . . . .                           ",
"                                    . . . . X d.d.d.d.d.d.d.d.d.Z.S.D.D.S.S.S.S.Z.A.Z.A.S.S.. . . . .                           ",
"                                    . . . . X d.d.d.d.d.d.d.d.d.Z.D.D.D.D.D.D.D.D.D.D.D.D.S.. . . . .                           ",
"                                    . . . . X f.f.f.f.f.f.f.f.f.S.D.D.D.D.D.D.D.D.D.D.D.D.S.. . . . .                           ",
"                                    . . . . X D.D.D.D.D.D.D.D.D.S.S.D.D.D.D.D.D.D.D.D.D.D.S.. . . . .                           ",
"                                    . . . . X D.D.D.D.D.D.D.D.D.D.S.D.D.D.D.D.D.D.D.D.D.D.S.. . . . .                           ",
"                                    . . . . . D.D.D.D.D.D.D.D.D.D.D.D.D.S.S.D.D.D.D.D.D.D.D.. . . . .                           ",
"                            . . . . z ( ) ^ ( ( ( ( ( o.D.D.D.D.D.D.D.D.Z.d.d.d.d.] e e e e . . . . .                           ",
"                            . . . . z ( ( ( ( ( ( ( ( o.D.D.D.D.D.D.D.D.Z.d.d.d.d.] e e e e . . . . .                           ",
"                            . . . . z ( ( ( ( ( ( ( ( o.D.D.D.D.D.D.D.D.S.d.d.d.d.] e e e e . . . . .                           ",
"                  . . . . $ ^ ^ ^ ^ ^ ( ( ( ( ( ( ( ( ) _ _ _ _ x i i i i t t t t e e e e e e e w w > . . . .                   ",
"                  . . . . $ ^ ( ( ( ( ( ( ( ( ( ( ( ( ( ( ( ( ( u w e e e e e e e e e e e e e e e e , . . . .                   ",
"                  . . . . $ ( ( ( ( ( ( ( ( ( ( ( ( ( ( ( ( ( ( u e e e e e e e e e e e e e e e e e , . . . .                   ",
"          . . . . L U U Y Y ( ( ( ( ( ( ( ( ( ( ( ( ( ( ( ( ( ( ~ ~ ~ ~ E e e e e e e e e e e e e e q 6 6 6 6 O . . . .         ",
"          . . . . U ( ( ( ( ( ( ( ( ( ( ( ( ( ( ( ( ( ( ( ( ( ( ( ( ( ( Q e e e e e e e e e e e e e e e e e e O . . . .         ",
"          . . . . I ( ( ( ( ( ( ( ( ( ( ( ( ( ( ( ( ( ( ( ( ( ( ( ( ( ( Q w e e e e e e e e e e e e e e e e e O . . . .         ",
"          . . . . I ^ ( ( ( ( ( ( ( ( ( ( ( ( ( ( ( ( ( ( ( ( ( ( ( ( ( ^ Q Q Q Q p e e e e e e e e e e e e e O . . . .         ",
"          . . . . I ^ ^ ( ( ( ( ( ( ( ( ( ( ( ( ( ( ( ( ( ( ( ( ( ( ( ( ( ( ^ ^ ( V e e e e e e e e e e e e e O . . . .         ",
"          . . . . U ( ( ( ( ( ( ( ( ( ( ( ( ( ( ( ( ( ( ( ( ( ( ( ( ( ( ( ( ( ( ( V e e e e e e e e e e e e e O . . . .         ",
". . . . = P P P P T ( ( ( ( ( ( ( ( ( ( ( ( ( ( ( ( ( ( ( ( ( ( ( ( ( ( ( ( ( ( ( V e e e e e e e e e e e e e 5 3 5 5 < . . . . ",
". . . . - ( ( ( ( ( ( ( ( ( ( ( ( ( ( ( ( ( ( ( ( ( ( ( ( ( ( ( ( ( ( ( ( ( ( ( ( V e e e e e e e e e e e e e e w e e 5 . . . . ",
". . . . - ( ( ( ( ( ( ( ( ( ( ( ( ( ( ( ( ( ( ( ( ( ( ( ( ( ( ( ( ( ( ( ( ( ( ( ^ V e e e e e e e e e e e e e e e e e 5 . . . . ",
". . . . - ( ( ( ( ( ( ( ( ( ( ( ( ( ( ( ( ( ( ( ( ( ( ( ( ( ( ( ( ( ( ( ~ V c c V y e e e e e e e e e e e e e e e e e 5 . . . . ",
". . . . - ( ( ( ( ( ( ( ( ( ( ( ( ( ( ( ( ( ( ( ( ( ( ( ( ( ( ( ( ( ( ( Q e e e e e e e e e e e e e e e e e e e e e e 5 . . . . ",
". . . . - ( ( ( ( ( ( ( ( ( ( ( ( ( ( ( ( ( ( ( ( ( ( ( ( ( ( ( ( ( ^ ^ Q e e e e e e e e e e e e e e e e e e e e e e 5 . . . . ",
". . . . - ( ( ( ( ( ( ( ( ( ( ( ( ( ( ( ( ( ( ( ( ( ( ( ( ( ( ( C V V c p e e e e e e e e e e e e e e e e e e e e e e 5 . . . . ",
". . . . - ( ( ( ( ( ( ( ( ( ( ( ( ( ( ( ( ( ( ( ( ( ( ( ( ( ( ( u e e e e e e e e e e e e e e e e e e e e e e e e e e 5 . . . . ",
". . . . - ( ( ( ( ( ( ( ( ( ( ( ( ( ( ( ( ( ( ( ( ( ( ( ( ( ( ( u e e e e e e e e e e e e e e e e e e e e e e e e e e 5 . . . . ",
". . . . - ( ( ( ( o.@.@.@.@.@.@.@.@.j.x.x.x.x.t.t.t.t.t.t.t.t.t.y.u.u.u.u.u.i.p.u.2.>.>.>.>.>.>.>.>.K } } } } g e e e 5 . . . . ",
". . . . - ( ( ( ( *.D.D.D.D.D.D.D.D.G.J.J.J.J.r.r.r.r.r.r.r.r.r.H.J.J.J.J.J.J.J.J.M.4.4.4.4.4.4.4.4.5.d.d.d.d.B e e e 5 . . . . ",
". . . . - ( ( ( ( *.D.D.D.D.D.D.D.D.G.J.J.J.J.r.r.r.r.r.r.r.r.r.P.I.I.I.I.I.J.J.J.M.4.4.4.4.4.4.4.4.5.d.d.d.d.B e e e 5 . . . . ",
". . . . * z z z z &.D.D.D.D.D.D.D.D.G.J.J.J.J.r.r.r.r.r.r.r.r.r.K.P.K.P.I.C.V.V.V.0.4.4.4.4.4.4.4.4.5.d.d.d.d.v < < > > . . . . ",
"          . . . . %.D.D.D.D.D.D.D.D.G.J.J.J.J.r.r.r.r.r.r.r.r.r.N.r.r.r.e.4.4.4.4.4.4.4.4.4.4.4.4.4.5.d.d.d.d.s . . . .         ",
"          . . . . %.D.D.D.D.D.D.D.D.G.J.J.J.J.r.r.r.r.r.r.r.r.r.r.r.r.r.e.4.4.4.4.4.4.4.4.4.4.4.4.4.5.d.d.d.d.s . . . .         ",
"          . . . . | ..X.X.X.X.X...X.B.J.J.J.J.r.r.r.r.w.8.8.8.8.8.8.8.8.3.-.-.-.=.:.4.4.4.4.4.4.4.4.1.{ { { { 8 . . .           ",
"                  . . . . . . . . . n.J.J.J.J.r.r.r.r.7.. . . . . . . . . . . . . =.4.4.4.4.4.4.4.4.=.. . . .                   ",
"                  . . . . . . . . . n.J.J.J.J.r.r.r.r.7.. . . . . . . . . . . . . =.4.4.4.4.4.4.4.4.=.. . . .                   ",
"                  . . . . . . . . . a.P.P.P.P.r.r.r.r.7.. . . . . . . . . . . . X =.4.4.4.4.4.4.4.4.=.. . . .                   ",
"                            . . . . 7.r.r.r.r.r.r.r.r.7.. . . .           X X X X =.4.4.4.4.4.4.4.4.=.. . . .                   ",
"                            . . . . 7.r.r.r.r.r.r.r.r.7.. . . .           X X X . =.4.4.4.4.4.4.4.4.=.. . . .                   ",
"                            . . . . 9.N.N.N.N.q.q.q.q.,.. . . .           X X X X >.3.3.3.3.;.;.;.;.a . . . .                   ",
"                            . . . . ..D.D.D.D.. . . . .                   X X X X { d.f.d.d.. . . . .                           ",
"                            . . . . ..D.D.D.D.. . . . .                   X X . . { d.d.d.d.. . . . .                           ",
"                            . . . . #.F.F.F.F.k k k k j                   X . . .  .l.l.l.l.k k k k j                           ",
"                            . . . . m.J.J.J.J.J.J.J.J.b.. . . .           . . . . m.J.J.J.J.J.J.J.J.b.. . . .                   ",
"                            . . . . m.J.J.J.J.J.J.J.J.b.. . . .           . . . . m.J.J.J.J.J.J.J.J.b.. . . .                   ",
"                            . . . . p.H.H.H.H.H.H.H.H.p.. . . .           . . . . c.H.H.H.H.H.H.H.H.i.. . . .                   ",
"                            . . . . . . . . . . . . . . . . . .           X . . . . . . . . . . . . . . . . .                   ",
"                            . . . . . . . . . . . . . . . . . .           . . . . . . . . . . . . . . . . . .                   ",
"                            . . . . . . . . . . . . . . . . . .           . . . . . . . . . . . . . . . . . .                   "
};
