/* XPM */
static char *_892f4f5d9b24f73c11f5606857569cbfaMuMhkRPtvGwx6I[] = {
/* columns rows colors chars-per-pixel */
"64 64 171 2 ",
"   c None",
".  c #211A2A",
"X  c #251D2F",
"o  c #281F33",
"O  c #39222F",
"+  c #292034",
"@  c #2A2136",
"#  c #2C2238",
"$  c #2C2339",
"%  c #2D2339",
"&  c #2E233A",
"*  c #2F253C",
"=  c #352633",
"-  c #362733",
";  c #302C35",
":  c #3E2D39",
">  c #363239",
",  c #452732",
"<  c #582F37",
"1  c #4F3439",
"2  c #48333D",
"3  c #5A3038",
"4  c #60333A",
"5  c #6B383D",
"6  c #332740",
"7  c #372B46",
"8  c #382C47",
"9  c #3C2E4C",
"0  c #3C2F4D",
"q  c #3E304E",
"w  c #2C3B5D",
"e  c #3F3150",
"r  c #2D3E62",
"t  c #4C3541",
"y  c #403D41",
"u  c #4D384E",
"i  c #523B40",
"p  c #533A43",
"a  c #403151",
"s  c #413252",
"d  c #413353",
"f  c #433455",
"g  c #4C3A57",
"h  c #553854",
"j  c #573954",
"k  c #793F43",
"l  c #314972",
"z  c #444145",
"x  c #484648",
"c  c #574041",
"v  c #5B4442",
"b  c #5D435A",
"n  c #62444C",
"m  c #7C4044",
"M  c #6C4B52",
"N  c #61485D",
"B  c #64485C",
"V  c #674C5F",
"C  c #734153",
"Z  c #754253",
"A  c #7E4552",
"S  c #7A555B",
"D  c #7E585E",
"F  c #7E5E5F",
"G  c #404F63",
"H  c #475A6F",
"J  c #424F7C",
"K  c #535B7E",
"L  c #6D4F61",
"P  c #725363",
"I  c #755260",
"U  c #765361",
"Y  c #755561",
"T  c #785964",
"R  c #7F5964",
"E  c #7C5D65",
"W  c #73726E",
"Q  c #777571",
"!  c #854548",
"~  c #884648",
"^  c #8A474A",
"/  c #8B484A",
"(  c #8C484A",
")  c #904A4C",
"_  c #914A4C",
"`  c #944C4E",
"'  c #964D4E",
"]  c #8A4951",
"[  c #8E4B51",
"{  c #954D50",
"}  c #984E50",
"|  c #9A4F50",
" . c #9F5856",
".. c #A35F5B",
"X. c #A7665F",
"o. c #8D6563",
"O. c #846069",
"+. c #87626A",
"@. c #8D6268",
"#. c #936967",
"$. c #916D6C",
"%. c #9C7568",
"&. c #82697C",
"*. c #9A7370",
"=. c #AA6A62",
"-. c #AB6C64",
";. c #A37A6C",
":. c #B2766A",
">. c #A27470",
",. c #A47677",
"<. c #A97C73",
"1. c #AF7D79",
"2. c #AF7E7B",
"3. c #B07E7C",
"4. c #B38776",
"5. c #BB8274",
"6. c #C38D7C",
"7. c #C1927F",
"8. c #3D6399",
"9. c #3F669D",
"0. c #496280",
"q. c #577189",
"w. c #416AA3",
"e. c #5976A6",
"r. c #667FA7",
"t. c #8F7A8E",
"y. c #917180",
"u. c #9C7782",
"i. c #A47980",
"p. c #A47F8C",
"a. c #6989A6",
"s. c #6B8DAB",
"d. c #688FB8",
"f. c #7CA4C5",
"g. c #878680",
"h. c #8D8C85",
"j. c #8F8C8C",
"k. c #A48886",
"l. c #A6808B",
"z. c #AC8F8B",
"x. c #BB8681",
"c. c #B0928B",
"v. c #BA958A",
"b. c #B39795",
"n. c #BE9E9A",
"m. c #B1A99D",
"M. c #8C9DA9",
"N. c #B0B0A6",
"B. c #BCB4A9",
"V. c #B9B9AE",
"C. c #A4ABB4",
"Z. c #ABB5BC",
"A. c #BFBEB3",
"S. c #C38F83",
"D. c #C69380",
"F. c #C49084",
"G. c #C79384",
"H. c #C89481",
"J. c #CA9786",
"K. c #CF9C87",
"L. c #C1B9AC",
"P. c #C4BEB3",
"I. c #CDC0B1",
"U. c #C9C1B5",
"Y. c #CAC2B4",
"T. c #CDC4B6",
"R. c #CCCCBF",
"E. c #9DB3C3",
"W. c #A2B5C3",
"Q. c #B0BCC2",
"!. c #C3C7C0",
/* pixels */
"                                                                          . . . . . . . . .                                     ",
"                                                                          . . . . . . . . .                                     ",
"                                                                          - - - - - = = - =                                     ",
"                                                      . . . . . . . . . n @.@.@.@.@.@.@.@.S . . . .                             ",
"                                                      . . . . . . . . . n @.@.@.@.@.@.@.@.S . . . .                             ",
"                                                      + @ + @ @ 2 2 2 2 M @.@.@.@.@.@.@.@.R 2 2 2 2                             ",
"                                              . . . . 7 f f f f @.@.@.@.@.@.@.@.@.@.@.@.@.@.@.@.@.@.p . . . .                   ",
"                                              . . . . 8 f f f f @.@.@.@.@.@.@.@.@.@.@.@.@.@.@.@.@.@.p . . . .                   ",
"                                              # # # # u b b b b R R R R R R R R R R R R R R R R R R t . . . .                   ",
"                                    . . . . o f f f f U @.@.@.@.f f f f f f f f f f f f f f f f f f & . . . .                   ",
"                                    . . . . o f f f f U @.@.@.@.f f f f f f f f f f f f f f f f f f & . . . .                   ",
"                                    . . . . o f f f f B U U U U O.O.O.+.O.O.O.O.O.O.O.O.O.Y 8 8 8 8 # . . . .                   ",
"                                    . . . . + f f f f f f f f f x.x.x.x.x.x.x.x.x.x.x.x.x.>.. . . .                             ",
"                                    . . . . o f f f f f f f f f x.x.x.x.x.x.x.x.x.x.x.x.x.>.. . . .                             ",
"                                    . . . . : +.+.+.+.+.+.+.+.+.S.F.F.F.F.F.F.F.F.F.F.F.F.<.. . . .                             ",
"                                    . . . . i x.x.x.x.x.x.x.x.x.K.K.K.K.K.K.K.K.K.K.K.K.K.4.. . . .                             ",
"                                    . . . . i x.x.x.x.x.x.x.x.x.K.K.K.K.K.K.K.K.K.K.K.K.K.4.. . . .                             ",
"                                    . . . . c H.G.G.G.G.G.G.G.G.K.K.K.K.K.K.K.K.K.K.K.K.K.4.. . . .                             ",
"                                    . . . . v K.K.K.K.K.K.K.K.K.K.K.K.K.K.K.K.K.K.K.K.K.K.4.. . . .                             ",
"                                    . . . . v K.K.K.K.K.K.K.K.K.K.K.K.K.K.K.K.K.K.K.K.K.K.4.. . . .                             ",
"                                    . . . . 1 :.:.:.:.6.K.K.K.K.K.K.K.K.H.F.F.S.S.*.$.$.$.F . . . .                             ",
"                                    . . . . , | | | | 5.K.K.K.K.K.K.K.K.G.x.x.x.x.N f f f 0 . . . .                             ",
"                                    . . . . , | | | | 5.K.K.K.K.K.K.K.K.G.x.x.x.x.N f f f 0 . . . .                             ",
"                            . . . . k ~ ~ ~ ^ | | | | ..=.=.=.=.E E E E T P P P P g f f f s 0 0 q 0 # . . . .                   ",
"                            . . . . ! | | | | | | | | | | | | | f f f f f f f f f f f f f f f f f f & . . . .                   ",
"                            . . . . ! | | | | | | | | | | | | | f f f f f f f f f f f f f f f f f f & . . . .                   ",
"                  . . . . < ( ( ( ( { | | | | | | | | | | | | | [ [ [ [ Z f f f f f f f f f f f f f & . . . .                   ",
"                  . . . . 3 | | | | | | | | | | | | | | | | | | | | | | A f f f f f f f f f f f f f & . . . .                   ",
"                  . . . . 3 | | | | | | | | | | | | | | | | | | | | | | A f f f f f f f f f f f f f & . . . .                   ",
"          . . . . / ` ` ` ` | | | | | | | | | | | | | | | | | | | | | | { { { { { j f f f f f f f f d s s s q . . . .           ",
"          . . . . ) | | | | | | | | | | | | | | | | | | | | | | | | | | | | | | | j f f f f f f f f f f f f e . . . .           ",
"          . . . . ) | | | | | | | | | | | | | | | | | | | | | | | | | | | | | | | j f f f f f f f f f f f f e . . . .           ",
"          . . . . ' | | | | | | | | | | | | | | | | | | | | | | | | | | | | | | | j f f f f f f f f f f f f a . . . .           ",
"          . . . . ' | | | | | | | | | | | | | | | | | | | | | | | | | | | | | | | j f f f f f f f f f f f f a . . . .           ",
"          O O O O ( | | | | | | | | | | | | | | | | | | | | | | | | | | | { { { | j f f f f f f f f f f f f s X X X X           ",
". . . . 5 | | | | | | | | | | | | | | | | | | | | | | | | | | | | | | | A f f f f f f f f f f f f f f f f f f f f f f * . . . . ",
". . . . 5 | | | | | | | | | | | | | | | | | | | | | | | | | | | | | | | A f f f f f f f f f f f f f f f f f f f f f f 6 . . . . ",
". . . . 5 | | | | | | | | | | | | | | | | | | | | | | | | | | | | | | | A f f f f f f f f f f f f f f f f f f f f f f 6 . . . . ",
". . . . 5 | | | | | | | | | | | | | | | | | | | | | | | | | | | | | | | A f f f f f f f f f f f f f f f f f f f f f f 6 . . . . ",
". . . . 5 | | | | | | | | | | | | | | | | | | | | | | | | | | | | | | | A f f f f f f f f f f f f f f f f f f f f f f 6 . . . . ",
". . . . 5 | | | | X.=.=.=.=.=.=.=.=. .| | | | | | | | | | | | | ] ] ] ] Z f f f f f f f f f f f f f L P P I V f f f f 6 . . . . ",
". . . . 5 | | |  .7.K.K.K.K.K.K.K.K.=.| | | | | | | | | | | | | f f f f f f f f f f f f f f f f f e ,.x.x.S.3.f f f f 6 . . . . ",
". . . . 5 | | | | 7.K.K.K.K.K.K.K.K.=.| | | | | | | | | | | | | f f f f f f f f f f f f f f f f f f ,.x.x.x.3.f f f f 6 . . . . ",
". . . . 4 m m m m 7.K.K.K.K.K.K.K.K.v.c.c.c.z.t.t.t.t.t.t.t.t.t.j.j.j.j.j.j.j.j.j.K J J J J J J l 0.,.x.x.x.3.7 8 8 8 * . . . . ",
"          . . . . 7.K.K.K.K.K.K.K.K.I.R.!.!.!.E.f.f.f.f.f.f.f.f.!.!.R.R.R.R.R.R.R.a.w.w.w.w.w.w.w.w.p.p.x.x.3.. . . .           ",
"          . . . . 7.K.K.K.K.K.7.K.7.I.R.!.!.!.f.f.f.f.f.f.f.f.f.R.R.R.!.R.R.R.R.!.r.w.w.w.w.w.w.w.w.p.S.x.x.3.. . . .           ",
"          . . . . %.;.;.4.;.%.%.4.4.I.R.!.!.!.f.f.f.f.f.f.f.f.f.Q.W.Q.Q.Z.C.C.C.C.e.w.w.w.w.w.w.w.w.&.#.#.#.o.. . . .           ",
"                  . . . . . . . . . I.!.!.!.!.f.f.f.f.f.f.f.f.f.E.f.f.f.d.w.w.w.w.w.w.w.w.w.w.w.w.w.r . . . .                   ",
"                  . . . . . . . . . N.R.R.R.!.f.f.f.f.f.f.f.f.f.f.f.f.f.d.w.w.w.w.w.w.w.w.w.w.w.w.w.r . . . .                   ",
"                          . . . . . N.R.R.R.!.f.f.f.f.a.q.q.q.q.q.q.q.q.0.l l l l 9.w.w.w.w.w.w.w.w.r . . . .                   ",
"                            . . . . N.R.R.R.R.f.f.f.f.q.. . . . . . . . . . . . . 8.w.w.w.w.w.w.w.w.r . . . .                   ",
"                            . . . . N.R.R.R.!.f.f.f.f.q.. . . . . . . . . . . . . 8.w.w.w.w.w.w.w.w.r . . . .                   ",
"                            . . . . M.W.W.W.E.f.f.f.f.q.X . . .         . . . . . 8.w.w.w.w.w.w.w.w.r . . . .                   ",
"                            . . . . s.f.f.f.f.f.f.f.M.q.. . . .           . . . . 8.w.w.w.w.w.w.w.w.r . . . X                   ",
"                            . . . . s.f.f.f.f.f.f.f.f.q.. . . X           . . . . 8.w.w.w.w.w.w.w.w.r X . X .                   ",
"                            . . . . k.n.n.n.b.H H H H l                   . . . . u.l.l.l.y.w w w w                             ",
"                            . . . . 4.K.K.K.7.. . . .                     . . . . 1.x.x.x.>.. . . .                             ",
"                            . . . . 4.K.K.K.7.. . . .                     . . . . 1.x.x.x.>.. . . .                             ",
"                            . . . . m.T.T.T.U.V.V.V.V.g.. . . .           . . . . B.U.U.U.P.V.V.V.V.Q . . . .                   ",
"                            . . . . N.R.R.R.R.R.R.R.R.h.. . . .           . . . . A.R.R.R.R.R.R.R.R.Q . . . .                   ",
"                            . . . . N.R.R.R.R.R.R.R.R.h.. . . .           . . . . P.R.R.R.R.R.R.R.R.Q . . . .                   ",
"                            . . . . y x x x x x x x x > . . . .           . . . . z x x x x x x x x ; . . . .                   ",
"                            . . . . . . . . . . . . . . . . . .           . . . . . . . . . . . . . . . . . .                   ",
"                            . . . . . . . . . . . . . . . . . .           . . . . . . . . . . . . . . . . . .                   "
};
