/* XPM */
static char *result[] = {
/* columns rows colors chars-per-pixel */
"64 64 211 2 ",
"   c #20221F",
".  c #1D1F2E",
"X  c #16252D",
"o  c #2B2D2E",
"O  c #282828",
"+  c #322D2B",
"@  c #3D3821",
"#  c #262D33",
"$  c #2B2F36",
"%  c #2C3132",
"&  c #2D343C",
"*  c #53341C",
"=  c #573C1E",
"-  c #5A381D",
";  c #523927",
":  c #543C29",
">  c #593B2A",
",  c #5C3C24",
"<  c #523E33",
"1  c #4C3C23",
"2  c #613624",
"3  c #623925",
"4  c #63392A",
"5  c #38403E",
"6  c #54421F",
"7  c #73471B",
"8  c #58472D",
"9  c #4C4234",
"0  c #594736",
"q  c #514933",
"w  c #604D27",
"e  c #734D23",
"r  c #654535",
"t  c #7A5527",
"y  c #242F42",
"u  c #3C3E43",
"i  c #373B48",
"p  c #293945",
"a  c #3A4648",
"s  c #3A4753",
"d  c #43434A",
"f  c #434A4D",
"g  c #494B4A",
"h  c #4F545B",
"j  c #4A5357",
"k  c #55535C",
"l  c #4A4956",
"z  c #755C48",
"x  c #63564E",
"c  c #5F5A60",
"v  c #615F60",
"b  c #64696A",
"n  c #8A591A",
"m  c #A84917",
"M  c #BA4C10",
"N  c #A55F19",
"B  c #B64F0B",
"V  c #9C6F1D",
"C  c #824920",
"Z  c #8A5728",
"A  c #995925",
"S  c #945933",
"D  c #B95727",
"F  c #AF5623",
"G  c #9B6136",
"H  c #BC6D35",
"J  c #A96529",
"K  c #CA5512",
"L  c #D25711",
"P  c #D25A15",
"I  c #DE6B0F",
"U  c #DC670E",
"Y  c #CB6A17",
"T  c #DF6B14",
"R  c #DD6712",
"E  c #CF771B",
"W  c #E0660F",
"Q  c #F36208",
"!  c #FB7C0A",
"~  c #E26B13",
"^  c #EC6C13",
"/  c #E26814",
"(  c #E47214",
")  c #EA7414",
"_  c #EC7C16",
"`  c #E37319",
"'  c #EE7E1A",
"]  c #E07917",
"[  c #F87C14",
"{  c #F37C19",
"}  c #F67817",
"|  c #F66714",
" . c #C05524",
".. c #C96823",
"X. c #CD7A29",
"o. c #C97726",
"O. c #D27C23",
"+. c #DE7131",
"@. c #E17026",
"#. c #F07D20",
"$. c #977950",
"%. c #F68309",
"&. c #EC831E",
"*. c #EA881C",
"=. c #F48916",
"-. c #F4831C",
";. c #FA861B",
":. c #F68A1D",
">. c #FB8B1C",
",. c #F88416",
"<. c #FF9A1C",
"1. c #FB921D",
"2. c #F3A81D",
"3. c #CF8024",
"4. c #D08226",
"5. c #EC8C23",
"6. c #EA862B",
"7. c #EA8824",
"8. c #F58324",
"9. c #F48D22",
"0. c #F88727",
"q. c #E79229",
"w. c #F29325",
"e. c #FB9C26",
"r. c #F1972B",
"t. c #F49C2A",
"y. c #F69C24",
"u. c #ED9838",
"i. c #F39530",
"p. c #F29B33",
"a. c #F19F39",
"s. c #F3A126",
"d. c #F6A42C",
"f. c #F4AA2C",
"g. c #FAA628",
"h. c #F4A535",
"j. c #F5AA33",
"k. c #F4AD3B",
"l. c #FAAA36",
"z. c #FBB739",
"x. c #9C805A",
"c. c #C58043",
"v. c #DA9944",
"b. c #E39547",
"n. c #E39B52",
"m. c #F7AA43",
"M. c #F9B549",
"N. c #FAB647",
"B. c #E8A558",
"V. c #F7B957",
"C. c #E4A242",
"Z. c #D2AD72",
"A. c #E8AB6E",
"S. c #E8BA6F",
"D. c #F7BD63",
"F. c #FBBE62",
"G. c #FABD69",
"H. c #E0A974",
"J. c #EDBD79",
"K. c #FFC25D",
"L. c #F8C267",
"P. c #ECC576",
"I. c #FCC171",
"U. c #8B9598",
"Y. c #AEA999",
"T. c #BAAFA2",
"R. c #BFBAA6",
"E. c #D8AE85",
"W. c #D1B18D",
"Q. c #D2B895",
"!. c #C3BEB9",
"~. c #BEC5B7",
"^. c #D8C48B",
"/. c #EBC484",
"(. c #F7CC86",
"). c #E7D29A",
"_. c #EDC893",
"`. c #DFC3A2",
"'. c #CBCBB8",
"]. c #D9D6BE",
"[. c #E8D6AD",
"{. c #A5BCC8",
"}. c #BEC8C1",
"|. c #B4C9CB",
" X c #B6C6C6",
".X c #B9CDD6",
"XX c #BFD4DC",
"oX c #B2D5DB",
"OX c #ACD0E6",
"+X c #BAD3E5",
"@X c #D7D6C4",
"#X c #D7D9CA",
"$X c #C1CCD9",
"%X c #DADDD1",
"&X c #C5D3CE",
"*X c #D5E2D9",
"=X c #EAE5C7",
"-X c #E1E8D7",
";X c #CEDEEF",
":X c #CFDDF1",
">X c #DAE8E5",
",X c #CCE8F8",
"<X c #D3E4F2",
"1X c #DBEDF1",
"2X c #D5F4FF",
"3X c #DAFEFF",
"4X c #CBE5E6",
"5X c #EAF2E4",
"6X c #E5FAF8",
"7X c #E6EAE5",
"8X c None",
/* pixels */
"8X8X8X8X8X8X8X8X8X8X8X8X8X8X8X8X8X8X8X8X8X8X8X8X8X8X8X8X8X8X8X8X8X8X8X8X8X8X8X8X8X8X8X8X8X8X8X8X8X8X8X8X8X8X8X8X8X8X8X8X8X8X8X8X",
"8X8X8X8X8X8X8X8X8X8X8X8X8X8X8X8X8X8X8X8X8X8X8X8X8X8X8X8X8X8X8X8X8X8X8X8X8X8X8X8X8X8X8X8X8X8X8X8X8X8X8X8X8X8X8X8X8X8X8X8X8X8X8X8X",
"8X8X8X8X8X8X8X8X8X8X8X8X8X8X8X# p 8X8X8X8X8X8X8X8X8X8X8X8X8X8X8X8X8X8X8X8X8X8X8X8X8X8X8X8X8X8X# p 8X8X8X8X8X8X8X8X8X8X8X8X8X8X8X",
"8X8X8X8X8X8X8X8X8X8X8X8X8X8Xz n Z r 8X8X8X8X8X8X8X8X8X8X8X8X8X8X8X8X8X8X8X8X8X8X8X8X8X8X8X8Xz n Z r 8X8X8X8X8X8X8X8X8X8X8X8X8X8X",
"8X8X8X8X8X8X8X8X8X8X8X8X8X& 7 e.<.t % 8X8X8X8X8X8X8X8X8X8X8X8X8X8X8X8X8X8X8X8X8X8X8X8X8X8X& 7 <.<.t % 8X8X8X8X8X8X8X8X8X8X8X8X8X",
"8X8X8X8X8X8X8X8X8X8X8X8X8Xp 7 1.1.e p 8X8X8X8X8X8X8X8X8X8X8X8X8X8X8X8X8X8X8X8X8X8X8X8X8X8Xp 7 >.1.e p 8X8X8X8X8X8X8X8X8X8X8X8X8X",
"8X8X8X8X8X8X8X8X8X8X8X8Xv J 4.e.9.Y S v 8X8X8X8X8X8X8X8X8X8X8X8X8X8X8X8X8X8X8X8X8X8X8X8Xx G 4.g.9.Y G c 8X8X8X8X8X8X8X8X8X8X8X8X",
"8X8X8X8X8X8X8X8X8X8X8X8X  E g.l.0.! Y O 8X8X8X8X8X8X8X8X8X8X8X8X8X8X8X8X8X8X8X8X8X8X8X8XO O.g.l.1.! ..O 8X8X8X8X8X8X8X8X8X8X8X8X",
"8X8X8X8X8X8X8X8X8X8X8X8Xo o.y.j.0.} J o 8X8X8X8X8X8X8X8X8X8X8X8X8X8X8X8X8X8X8X8X8X8X8X8Xo H 2.l.;.} J + 8X8X8X8X8X8X8X8X8X8X8X8X",
"8X8X8X8X8X8X8X8X8X8X8X8X. T.(.y.! A.Y.X 8X8X8X8X8X8X8X8X8X8X8X8X8X8X8X8X8X8X8X8X8X8X8X8X. T.I.s.! A.Y.X 8X8X8X8X8X8X8X8X8X8X8X8X",
"8X8X8X8X8X8X8X8X8X8X8Xx Z .X*XJ.n.~.{.e z 8X8X8X8X8X8X8X8X8X8X8X8X8X8X8X8X8X8X8X8X8X8X0 Z .X*XJ.n.~.{.C z 8X8X8X8X8X8X8X8X8X8X8X",
"8X8X8X8X8X8X8X8X8X8Xj * 1._.*X4XOX'.E.} * i 8X8X8X8X8X8X8X8X8X8X8X8X8X8X8X8X8X8X8X8Xj , 1._.*X4XoX XE.} * i 8X8X8X8X8X8X8X8X8X8X",
"8X8X8X8X8X8X8X8X8X8Xh ; :.y.^.<X,XA.=.T ; f 8X8X8X8X8X8X8X8X8X8X8X8X8X8X8X8X8X8X8X8Xh ; :.s.^.<X,XA.-.~ ; d 8X8X8X8X8X8X8X8X8X8X",
"8X8X8X8X8X8X8X8X8X8Xk 6 g.N.V.S.S.p.! ,.> f 8X8X8X8X8X8X8X8X8X8X8X8X8X8X8X8X8X8X8X8Xk 6 g.N.K.S.J.p.! ,.> f 8X8X8X8X8X8X8X8X8X8X",
"8X8X8X8X8X8X8X8X8X8Xk 9 L.G.N.2.g.p.w.B.0 u 8X8X8X8X8X8X8X8X8X8X8X8X8X8X8X8X8X8X8X8Xk q D.I.M.2.g.a.r.n.0 u 8X8X8X8X8X8X8X8X8X8X",
"8X8X8X8X8X8X8X8X8X8Xl f 1XP.z.j.h.N.L..Xs x 8X8X8X8X8X8X8X8X8X8X8X8X8X8X8X8X8X8X8X8Xl g 1XP.k.j.f.z.P.$Xs x 8X8X8X8X8X8X8X8X8X8X",
"8X8X8X8X8X8X8X8X8X& n b.<X7X-X@X@X'. X.Xc.A u 8X8X8X8X8X8X8X8X8X8X8X8X8X8X8X8X8X8X% n b.<X7X*X@X@X'.}.XXc.A u 8X8X8X8X8X8X8X8X8X",
"8X8X8X8X8X8X8X8X8X& N l.[.5X2X;X<X$X XZ.#.A o 8X8X8X8X8X8X8X8X8X8X8X8X8X8X8X8X8X8X& N h.[.5X3X;X<XXX XZ.#.A # 8X8X8X8X8X8X8X8X8X",
"8X8X8X8X8X8X8X8X8X& J e.V.=X7X@X*X'.W.%.! A % 8X8X8X8X8X8X8X8X8X8X8X8X8X8X8X8X8X8X& J e.V.=X7X@X#X@XW.%.! A % 8X8X8X8X8X8X8X8X8X",
"8X8X8X8X8X8X8X8X8X# V z.F.I.V.f.k.y.6.>.,.N O 8X8X8X8X8X8X8X8X8X8X8X8X8X8X8X8X8X8X$ V z.K.I.V.f.k.r.6.=.,.N O 8X8X8X8X8X8X8X8X8X",
"8X8X8X8X8X8X8X# f U.R.).L.L.M.d.k.1.! { H.Y.U.< % 8X8X8X8X8X8X8X8X8X8X8X8X8X8X# f U.R._.L.L.M.f.h.:.! ,.Z.Y.U.u % 8X8X8X8X8X8X8X",
"8X8X8X8X8X8X0 = : }.,X#X(.L.N.f.f.t.r.b.!.oX.X9 , 0 8X8X8X8X8X8X8X8X8X8X8X8X0 - > &X4X%X(.L.N.g.j.d.i.b.!.XX.X< - 0 8X8X8X8X8X8X",
"8X8X8X8X8X% Y Q D !.XX>X6X(.k.j.h.N./.|.|.|.!.D Q ..o 8X8X8X8X8X8X8X8X8X8X% Y Q D R.XX>X6X(.k.j.j.N./. X}. X'.D Q ..o 8X8X8X8X8X",
"8X8X8X8X8Xo o.( B 7.`.2X3X5X%X].].'.'.|.OXQ.5.M ` X.o 8X8X8X8X8X8X8X8X8X8X% o.@.M 6.`.2X3X-X-X].].'.~.|.OXQ.7.M ` X.o 8X8X8X8X8X",
"8X8X8X8X8X# X.#.P } B.).[.3X2X;X<X+X X^.E.n.{ P } O.# 8X8X8X8X8X8X8X8X8X8X# X.#.P [ B.).[.3X3X:X<XOX X^.E.n.{ P } 4.O 8X8X8X8X8X",
"8X8X8X8X8X@ X.,.~ ;.y.f.M.=X-X#X#X'.Q.V.>.%.;.( -.O.@ 8X8X8X8X8X8X8X8X8X8X@ X.=.^ ;.s.g.N.=X*X#X#X@XQ.V.>.%.;.( -.O.@ 8X8X8X8X8X",
"8X8X8Xd > @.[ ' ~ 0.g.f.f.k.k.k.k.r.9.;.=.>.0.( { #.+., c 8X8X8X8X8X8Xf > @.[ { ~ 8.g.j.f.j.k.k.l.i.7.=.=.>.0.( ' -.+.- c 8X8X8X",
"8X8X8Xa 1 ^ ;.' I ( ;.h.k.f.f.j.w.:.;.:.9.&.( I ' :.| 6 y 8X8X8X8X8X8Xa 1 ^ -.' I ` :.p.k.f.j.l.w.:.;.:.9.-.( R ' 8.| 8 y 8X8X8X",
"8X8X8Xd > 7.0.-.( / ` :.t.p.v.9 q o.0.&.-.) T ( -.:.&.> j 8X8X8X8X8X8Xd > 7.8.-.( T ) -.t.p.v.9 q o.#.{ -.` ~ ( -.5.8.: h 8X8X8X",
"8X8X8Xi 8 z.0.;.9.~ / T I H G Z Z S H T ~ / ~ :.;.9.z.8 b 8X8X8X8X8X8Xi 8 z.0.:.>.~ / ` I H G n Z S H T / T ( :.;.9.z.8 b 8X8X8X",
"8X8X8Xa 8 N._ ) ;.[ ^ R R ; 7 <.<.t < / R ( -.;.) ] z.8 i 8X8X8X8X8X8Xa 8 N._ ^ -.{ ( R U < 7 <.<.t < / W ) -.:.( ] z.w i 8X8X8X",
"8X8X8X5 ; 6.*.r.m.m.h.u.u.x 7 :.>.e 0 9.5.w.e.e.w.7.6.8 $ 8X8X8X8X8X8X5 : 6.*.r.m.m.h.a.b.0 7 0.1.t 0 5.*.w.e.t.w.7.6., $ 8X8X8X",
"8X8X8Xf : m q.M.G.G.D.S.x.J 4.e.9.Y G $.C.h.h.h.l.r.m < u 8X8X8X8X8X8Xg < m q.M.L.G.D.S.x.J 4.g.>.Y G $.C.h.h.h.h.q.m < u 8X8X8X",
"8X8X8X8X8X+ m L K K K F O E g.l.1.[ P O F K K K P m O 8X8X8X8X8X8X8X8X8X8X+ m L K K K F O E g.l.:.! Y + F K K K K F O 8X8X8X8X8X",
"8X8X8X8X8X8Xr 2 , 2 3 r o o.e.j.9.} J + r > 4 4 2 r 8X8X8X8X8X8X8X8X8X8X8X8Xr 2 3 3 4 r o H 2.l.8.) J + r 4 4 4 2 r 8X8X8X8X8X8X",
"8X8X8X8X8X8X8X8X8X8X8X8X. T.(.g.! A.Y.X 8X8X8X8X8X8X8X8X8X8X8X8X8X8X8X8X8X8X8X8X8X8X8X8X. T.I.d.%.A.Y.. 8X8X8X8X8X8X8X8X8X8X8X8X",
"8X8X8X8X8X8X8X8X8X8X8X0 Z .X*XJ.B.~.{.C z 8X8X8X8X8X8X8X8X8X8X8X8X8X8X8X8X8X8X8X8X8X8X0 Z |.*XJ.B.~.{.C z 8X8X8X8X8X8X8X8X8X8X8X",
"8X8X8X8X8X8X8X8X8X8Xj ; 9._.*X4XoX}.E.| * i 8X8X8X8X8X8X8X8X8X8X8X8X8X8X8X8X8X8X8X8Xj ; 1._.4X4XOX}.E.} * i 8X8X8X8X8X8X8X8X8X8X",
"8X8X8X8X8X8X8X8X8X8Xh : :.s.^.<X,XA.&.~ ; f 8X8X8X8X8X8X8X8X8X8X8X8X8X8X8X8X8X8X8X8Xh ; :.t.P.,X<XA.&.` ; f 8X8X8X8X8X8X8X8X8X8X",
"8X8X8X8X8X8X8X8X8X8Xk 6 g.z.V.S.P.u.! ,.> f 8X8X8X8X8X8X8X8X8X8X8X8X8X8X8X8X8X8X8X8Xk 6 s.N.K.S.J.p.! %., f 8X8X8X8X8X8X8X8X8X8X",
"8X8X8X8X8X8X8X8X8X8Xc 8 D.G.M.2.2.p.r.n.8 u 8X8X8X8X8X8X8X8X8X8X8X8X8X8X8X8X8X8X8X8Xk 9 L.L.M.s.g.u.i.n.0 u 8X8X8X8X8X8X8X8X8X8X",
"8X8X8X8X8X8X8X8X8X8Xl g 1XP.z.h.f.N.P.XXs x 8X8X8X8X8X8X8X8X8X8X8X8X8X8X8X8X8X8X8X8Xl g 1XP.z.h.j.z.P.XXs x 8X8X8X8X8X8X8X8X8X8X",
"8X8X8X8X8X8X8X8X8X& n b.<X7X*X@X@X'.}.XXc.A a 8X8X8X8X8X8X8X8X8X8X8X8X8X8X8X8X8X8X% n b.;X7X-X@X@X'.~..Xc.A a 8X8X8X8X8X8X8X8X8X",
"8X8X8X8X8X8X8X8X8X& N h.[.7X2X<X<X$X XZ.8.A o 8X8X8X8X8X8X8X8X8X8X8X8X8X8X8X8X8X8X& N l.[.5X2X<X<X$X XZ.8.A o 8X8X8X8X8X8X8X8X8X",
"8X8X8X8X8X8X8X8X8Xp J e.V.=X>X@X#X@XW.%.! A % 8X8X8X8X8X8X8X8X8X8X8X8X8X8X8X8X8X8X& N e.F.=X>X@X*X@XW.! ! A + 8X8X8X8X8X8X8X8X8X",
"8X8X8X8X8X8X8X8X8X$ V z.K.I.V.f.k.r.6.=.;.N   8X8X8X8X8X8X8X8X8X8X8X8X8X8X8X8X8X8X$ V z.K.I.V.f.k.y.6.=.,.N   8X8X8X8X8X8X8X8X8X",
"8X8X8X8X8X8X8Xo a U.Q.).L.L.M.f.h.:.! =.H.T.U.u % 8X8X8X8X8X8X8X8X8X8X8X8X8X8X# f U.!.).L.L.N.g.j.:.! =.H.Y.U.u % 8X8X8X8X8X8X8X",
"8X8X8X8X8X8X8 , ;  X,X-X(.L.N.f.j.d.r.u.!.oX.X> - 0 8X8X8X8X8X8X8X8X8X8X8X8X0 - > }.4X%X(.L.N.f.l.y.i.b.!.oX.X8 - 0 8X8X8X8X8X8X",
"8X8X8X8X8X% Y Q D !.XX>X6X/.k.j.f.N./.|.|.|.!.D Q ..% 8X8X8X8X8X8X8X8X8X8Xo Y Q D R.XX>X6XP.m.j.f.N./.|.|.|.!.D Q ..o 8X8X8X8X8X",
"8X8X8X8X8Xo o.` B 6.`.2X3X5X-X].].'.'. XOXQ.5.M ` X.% 8X8X8X8X8X8X8X8X8X8Xo o.` M q.`.2X3X5X%X].].'.'.|.OXQ.5.M @.X.o 8X8X8X8X8X",
"8X8X8X8X8X# X.#.P [ B.).[.6X2X;X<X+X X^.E.n.{ P } 4.O 8X8X8X8X8X8X8X8X8X8X# X.#.P #.B.).[.6X2X<X:X.X X^.E.n.,.P { 3.o 8X8X8X8X8X",
"8X8X8X8X8X@ X.;.^ ;.y.f.M.=X*X@X@X&XQ.V.;.! ;.` -.O.@ 8X8X8X8X8X8X8X8X8X8X@ X.,.^ ;.y.g.M.=X-X#X%X&XQ.V.>.%.,.( -.O.@ 8X8X8X8X8X",
"8X8X8Xd < @.[ { ( 8.g.j.f.k.k.j.k.r.0.=.=.>.0.( ' #.+., k 8X8X8X8X8X8Xd : @.[ ' ~ 8.g.j.j.k.j.k.k.r.:.=.=.:.0.~ { { +.- c 8X8X8X",
"8X8X8Xa ; ^ -.{ I ` ;.p.m.f.j.j.w.>.=.:.9.&.( T ' 0.| 6 y 8X8X8X8X8X8Xa 1 ^ ;.{ R ` ,.h.k.f.j.j.w.8.:.:.9.-.( I ' :.| 8 y 8X8X8X",
"8X8X8Xd > *.8.-.( / ` =.t.p.d.y.*.{ -.8.-.) R ( { :.8.> k 8X8X8X8X8X8Xd 8 *.8.{ ` T ) =.t.p.t.t.=.-.-.-.{ ' T ` { 9.7.> h 8X8X8X",
"8X8X8Xi 8 z.9.>.0.( / ~ I R ~ ~ / / T T ~ T T :.;.w.z.9 b 8X8X8X8X8X8Xi 8 z.0.;.0.` / ~ I R / W / / ~ R T T T 0.8.9.z.: b 8X8X8X",
"8X8X8Xu 8 N.) ) ;.=.^ U R / ~ W ~ I ~ W W ) ,.;.) ] z.w i 8X8X8X8X8X8Xu 8 N._ ) ;.{ ^ R R R W ~ W W ~ W W ( -.;.) ] z.w i 8X8X8X",
"8X8X8X5 ; 6.5.r.m.k.u.u.u.6.5.5.5.9.5.5.7.w.y.e.w.7.6.6 $ 8X8X8X8X8X8X5 ; 6.5.r.m.m.h.u.u.6.5.5.5.5.5.5.5.w.y.e.w.7.7.8 $ 8X8X8X",
"8X8X8Xg 9 m q.M.G.G.D.G.D.k.h.h.h.h.h.h.h.h.h.h.k.q.m < u 8X8X8X8X8X8Xj : m q.M.D.G.D.G.L.m.h.j.j.h.h.h.h.h.h.h.j.q.m < u 8X8X8X",
"8X8X8X8X8X+ m L K K K K K K K K K K K K K K K K P m O 8X8X8X8X8X8X8X8X8X8X+ m L K K K K K K K K K K K K K K K K P m o 8X8X8X8X8X",
"8X8X8X8X8X8Xr 2 3 3 3 3 4 3 4 4 4 4 4 4 4 4 4 4 4 r 8X8X8X8X8X8X8X8X8X8X8X8Xr 2 3 3 3 3 3 3 4 4 4 4 4 4 4 4 4 4 2 r 8X8X8X8X8X8X",
"8X8X8X8X8X8X8X8X8X8X8X8X8X8X8X8X8X8X8X8X8X8X8X8X8X8X8X8X8X8X8X8X8X8X8X8X8X8X8X8X8X8X8X8X8X8X8X8X8X8X8X8X8X8X8X8X8X8X8X8X8X8X8X8X",
"8X8X8X8X8X8X8X8X8X8X8X8X8X8X8X8X8X8X8X8X8X8X8X8X8X8X8X8X8X8X8X8X8X8X8X8X8X8X8X8X8X8X8X8X8X8X8X8X8X8X8X8X8X8X8X8X8X8X8X8X8X8X8X8X",
"8X8X8X8X8X8X8X8X8X8X8X8X8X8X8X8X8X8X8X8X8X8X8X8X8X8X8X8X8X8X8X8X8X8X8X8X8X8X8X8X8X8X8X8X8X8X8X8X8X8X8X8X8X8X8X8X8X8X8X8X8X8X8X8X"
};
