/* XPM */
static char *fa46829d6a4a47f4e64e61e63753c28cF58pofkxNMAKdk1X[] = {
/* columns rows colors chars-per-pixel */
"64 64 176 2 ",
"   c None",
".  c #211A2A",
"X  c #221A2A",
"o  c #2A1F2D",
"O  c #281F33",
"+  c #2A2035",
"@  c #2A2136",
"#  c #2E243A",
"$  c #2F253C",
"%  c #31263E",
"&  c #31263F",
"*  c #32273F",
"=  c #3D2C3A",
"-  c #3C393E",
";  c #432631",
":  c #442631",
">  c #482832",
",  c #4E2B34",
"<  c #502C35",
"1  c #522C35",
"2  c #46313B",
"3  c #48333D",
"4  c #4F383E",
"5  c #5B3038",
"6  c #5E3239",
"7  c #69373D",
"8  c #6B383E",
"9  c #6D393E",
"0  c #272E4A",
"q  c #332841",
"w  c #3A2D4A",
"e  c #3B2E4B",
"r  c #3E304F",
"t  c #343F53",
"y  c #563E44",
"u  c #403251",
"i  c #413353",
"p  c #433455",
"a  c #493555",
"s  c #4C3655",
"d  c #4E3B58",
"f  c #523D59",
"g  c #733C40",
"h  c #6B3F53",
"j  c #374254",
"k  c #374355",
"l  c #384456",
"z  c #574140",
"x  c #594241",
"c  c #5E4347",
"v  c #5F424A",
"b  c #5A4052",
"n  c #545253",
"m  c #654A47",
"M  c #674D49",
"N  c #754C4A",
"B  c #6A4A51",
"V  c #64475A",
"C  c #65485C",
"Z  c #694B5D",
"A  c #6B4C5E",
"S  c #734153",
"D  c #754253",
"F  c #764253",
"G  c #71505F",
"H  c #79545A",
"J  c #7D5959",
"K  c #45586D",
"L  c #745260",
"P  c #765361",
"I  c #775461",
"U  c #7F5B66",
"Y  c #676563",
"T  c #757470",
"R  c #864548",
"E  c #8C484A",
"W  c #8D484B",
"Q  c #974E4F",
"!  c #814652",
"~  c #864852",
"^  c #8B4A51",
"/  c #8C4A51",
"(  c #944D50",
")  c #9A4F50",
"_  c #9F5856",
"`  c #A35F5A",
"'  c #82625A",
"]  c #8A675D",
"[  c #89665F",
"{  c #855D65",
"}  c #865E66",
"|  c #895F65",
" . c #835F69",
".. c #8A6066",
"X. c #87616A",
"o. c #8D6268",
"O. c #9A7466",
"+. c #956B70",
"@. c #966C71",
"#. c #996E72",
"$. c #807F79",
"%. c #A47576",
"&. c #AB7B7A",
"*. c #85847E",
"=. c #998379",
"-. c #BA8172",
";. c #BD8576",
":. c #B1847A",
">. c #B6827E",
",. c #B5887B",
"<. c #BA897B",
"1. c #BC8D7B",
"2. c #C28B7A",
"3. c #365483",
"4. c #395B8C",
"5. c #3C6094",
"6. c #3F679F",
"7. c #425787",
"8. c #465E8E",
"9. c #4D5E88",
"0. c #645D81",
"q. c #40679F",
"w. c #516798",
"e. c #5D7A94",
"r. c #6D788C",
"t. c #666D99",
"y. c #69709D",
"u. c #78739A",
"i. c #416AA3",
"p. c #476DA4",
"a. c #5474A5",
"s. c #7F90AC",
"d. c #7195B3",
"f. c #7199BE",
"g. c #7CA4C5",
"h. c #898882",
"j. c #96978F",
"k. c #98978F",
"l. c #8B869E",
"z. c #98959C",
"x. c #BB8681",
"c. c #BE8C81",
"v. c #A2958D",
"b. c #B99388",
"n. c #A09C92",
"m. c #A19F9B",
"M. c #B09E9B",
"N. c #B8A39A",
"B. c #BDA299",
"V. c #8CA0B9",
"C. c #92A2BB",
"Z. c #93AABE",
"A. c #AEAEA4",
"S. c #C49382",
"D. c #C49482",
"F. c #C79384",
"G. c #C99581",
"H. c #C99582",
"J. c #CA9786",
"K. c #CB9886",
"L. c #CD9986",
"P. c #CE9B86",
"I. c #CE9B87",
"U. c #CF9C87",
"Y. c #C2A79E",
"T. c #C3AA9B",
"R. c #CEB1A0",
"E. c #CDB6A6",
"W. c #C6C6BA",
"Q. c #CACBBF",
"!. c #CCCCBF",
"~. c #8DABC4",
"^. c #99B1C3",
"/. c #AFBCC2",
"(. c #BEC4C0",
"). c #BFC5C0",
/* pixels */
"                                                                                                                                ",
"                                                                                                                                ",
"                                                                                    . . . .                                     ",
"                                                                                    . . . .                                     ",
"                                                                                    o o o O                                     ",
"                                                          . . . . . . . . . . . . . | o.o.o.v . . . .                           ",
"                                                          . . . . . . . . . . . . . | o.o.o.m . . . .                           ",
"                                                          @ @ @ @ = 3 3 3 3 3 3 3 3 | o.o.o.B 3 3 3 2                           ",
"                                                  . . . . i p p p L o.o.o.o.o.o.o.o.o.o.o.o.o.o.o.o.H . . . .                   ",
"                                                  . . . . r p p p L o.o.o.o.o.o.o.o.o.o.o.o.o.o.o.o.H . . . .                   ",
"                                                + % % * q V Z Z Z L I L L I I L L I L I L I { o.o.o.H . . . .                   ",
"                                        . . . . @ p p p p } o.o.o.A p p p p p p p p p p p p I o.o.o.H . . . .                   ",
"                                        . . . . @ p p p p } o.o.o.Z p p p p p p p p p p p p L o.o.o.H . . . .                   ",
"                                        . . . . @ p p p p C Z Z Z X.#.#.#.#.#.#.#.#.#.#.#.#. .A Z Z b . . . .                   ",
"                                        . . . . @ p p p p p p p p @.x.x.x.x.x.x.x.x.x.x.x.x. .p p p e . . . .                   ",
"                                        . . . . @ p p p p p p p p @.x.x.x.x.x.x.x.x.x.x.x.x. .p p p e . . . .                   ",
"                                        . . . . y &.&.&.&.&.&.&.&.c.K.K.K.K.K.K.K.K.L.L.L.L...@ @ @ @                           ",
"                                        . . . . c x.x.x.x.x.x.x.x.F.U.U.U.U.U.U.U.P.P.U.U.U.] . . . .                           ",
"                                        . . . . v x.x.x.x.x.x.x.x.F.U.U.U.U.U.U.U.U.U.U.U.U.] . . . .                           ",
"                                        . . . . M I.I.I.U.P.P.I.I.U.U.U.U.U.U.U.U.U.U.U.U.U.] . . . .                           ",
"                                        . . . . M U.U.U.U.U.U.U.U.U.U.U.U.U.U.I.U.U.U.U.I.I.] . . . .                           ",
"                                        . . . . m G.G.G.G.P.U.U.U.U.U.U.U.I.P.K.K.K.D.D.S.S.' . . . .                           ",
"                                        . . . . , ) ) ) ) G.U.U.U.U.U.U.U.J.x.x.x.x.f p p p % . . . .                           ",
"                                        . . . . , ) ) ) ) G.U.U.U.U.U.U.U.K.x.x.x.<.f p p p % . . . .                           ",
"                                        1 5 5 5 8 ) ) ) ) ;.2.2.2.<.,.,.,.:.%.%.%.%.d p p p q . . . .                           ",
"                                . . . . g ) ) ) ) ) ) ) ) ) ) ) ) S p p p p p p p p p p p p % . . . .                           ",
"                                . . . . g ) ) ) ) ) ) ) ) ) ) ) ) S p p p p p p p p p p p p % . . . .                           ",
"                                7 9 9 9 R ) ) ) ) ) ) ) ) ) ) ) ) ~ D D D h p p p p p p p p e q q q %                           ",
"                        . . . . W ) ) ) ) ) ) ) ) ) ) ) ) ) ) ) ) ) ) ) ) ^ p p p p p p p p p p p p e . . . .                   ",
"                        . . . . W ) ) ) ) ) ) ) ) ) ) ) ) ) ) ) ) ) ) ) ) ^ p p p p p p p p p p p p e . . . .                   ",
"                        . . . . W ) ) ) ) ) ) ) ) ) ) ) ) ) ) ) ) ) ) ) ) ( ! ! ! ! a p p p p p p p e . . . .                   ",
"                        . . . . W ) ) ) ) ) ) ) ) ) ) ) ) ) ) ) ) ) ) ) ) ) ) ) ) ) s p p p p p p p e . . . .                   ",
"                        . . . . W ) ) ) ) ) ) ) ) ) ) ) ) ) ) ) ) ) ) ) ) ) ) ) ) ) s p p p p p p p e . X X X                   ",
"                . . . ; E E E W Q ) ) ) ) ) ) ) ) ) ) ) ) ) ) ) ) ) ) ) ) ) ) ) ) ) s p p p p p p p p r r e r X X X X           ",
"                . . . : ) ) ) ) ) ) ) ) ) ) ) ) ) ) ) ) ) ) ) ) ) ) ) ) ) ) ) ) ) ) s p p p p p p p p p p p p . X . .           ",
"                . . . ; ) ) ) ) ) ) ) ) ) ) ) ) ) ) ) ) ) ) ) ) ) ) ) ) ) ) ) ) ) ) s p p p p p p p p p p p p . . . .           ",
"                . . . : ) ) ) ) ) ) ) ) ) ) ) ) ) ) ) ) ) ) ) ) ) ) ) ) ) ^ p p p p p p p p p p p p p p p p p . . . X           ",
"                . . . : ) ) ) ) ) ) ) ) ) ) ) ) ) ) ) ) ) ) ) ) ) ) ) ) ) ^ p p p p p p p p p p p p p p p p p . . X X           ",
"              > , 1 , 5 ) ) ) ) ) ) ) ) ) ) ) ) ) ) ) ) ) ) ) ) ) ) ) ) ) ^ p p p p p p p p p p p p p p p p p @ @ @ @           ",
"      . . . . 9 ) ) ) ) ) ) ) ) ) ) ) ) ) ) ) ) ) ) ) ) ) ) ) ) ) ) ) ) ) ^ p p p p p p p p p p p p p p p p p p p p p $ X X X X ",
"      . . . . 9 ) ) ) ) ) ) ) ) ) ) ) ) ) ) ) ) ) ) ) ) ) ) ) ) ) ) ) ) ) / p p p p p p p p p p p p p p p p p p p p p $ . . . . ",
"      . . . . 9 ) ) ) ) ) ) ) ) ) ) ) ) ) ) ) ) ) ) ) ) ) ) ) ) ) / ! ! ! D p p p p p p p p p p p p p p p p p p p p p $ . . . . ",
"      . . . . 9 ) ) ) ) ) ) ) ) ) ) ) ) ) ) ) ) ) ) ) ) ) ) ) ) ) S p p p p p p p p p p p p p p p p p p p p p p p p p $ . . . . ",
"      . . . . 9 ) ) ) Q ) ) ) ) ) ) ) ) ) ) ) ) ) ) ) ) ) ) ) ) ) S p p p p p p p p p p p p p p p p p p p p p p p p p $ . . . . ",
"      . . . . 9 ) ) ) ` -.-.-.-.-.-.-.-.b.N.N.N.M.l.l.l.l.l.l.l.l.z.m.m.m.m.m.m.m.m.9.7.7.7.7.7.7.7.0.+.+.+.+.p p p p $ . . . . ",
"      . . . . 9 ) ) ) ` U.U.U.U.U.U.U.U.E.!.!.!.).g.g.g.g.g.g.g.g./.!.!.!.!.!.!.!.!.a.i.i.i.i.i.i.i.u.x.x.x.x.p p p p $ . . . . ",
"      . . . . 9 ) ) ) ` U.U.U.U.U.U.U.U.E.!.!.!.).g.g.g.g.g.g.g.g./.!.!.!.!.!.!.!.!.a.i.i.i.i.i.i.i.u.x.x.x.x.p p p p $ X X . . ",
"              1 5 5 5 N U.U.U.U.U.U.U.P.E.!.!.!.).g.g.g.g.g.g.g.g.~.^.^.^.Z.s.s.s.s.p.i.i.i.i.i.i.i.u.x.x.x.x.# # # $ @         ",
"                . . . x U.U.U.U.U.U.U.U.E.!.!.!.).g.g.g.g.g.g.g.g.g.g.g.g.f.i.i.i.i.i.i.i.i.i.i.i.i.u.x.x.x.x.. . . .           ",
"                . . . x U.U.U.U.U.U.U.U.E.!.!.!.).g.g.g.g.g.g.g.g.g.g.g.g.f.i.i.i.i.i.i.i.i.i.i.i.i.u.x.x.x.x.. . . .           ",
"                        z z z z z z z z n.!.!.!.).g.g.g.g.K l k l l l l l t 0 0 0 0 q.i.i.i.i.i.i.i.8.4 4 4 4                   ",
"                        . . . . . . . . k.!.!.!.).g.g.g.g.k . . . . . . . . . . . . i.i.i.i.i.i.i.i.4.. . . .                   ",
"                        . . . . . . . . j.Q.Q.Q.).g.g.g.g.k . . . . . . . . . . . . 6.i.i.i.i.i.i.i.4.. . . .                   ",
"                                . . . . e.g.g.g.g.g.g.g.g.k . . .           . . . . 6.i.i.i.i.i.i.i.4.. . . .                   ",
"                                . . . . e.g.g.g.g.g.g.g.g.k . . .           . . . . 6.i.i.i.i.i.i.i.4.. . . .                   ",
"                                . . . . r.C.C.C.V.d.d.d.d.k . . .           . . . . t.y.y.y.w.5.5.5.3.. . . .                   ",
"                                . . . . O.U.U.U.1.. . . .                   . . . . >.x.x.x.J . . . .                           ",
"                                . . . . O.U.U.U.1.. . . .                   . . . . >.x.x.x.J . . . .                           ",
"                                . . . . =.R.R.R.T.h.h.h.h.                  . . . . B.Y.Y.Y.v.h.h.h.$.                          ",
"                                . . . . k.!.!.!.!.!.!.!.!.n . . .           . . . . W.!.!.!.!.!.!.!.A.. . . .                   ",
"                                . . . . k.!.!.!.!.!.!.!.!.n . . .           . . . . W.!.!.!.!.!.!.!.A.. . . .                   ",
"                                . . . . Y h.h.h.h.h.h.h.h.- . . .           . . . . *.h.h.h.h.h.h.h.T . . . .                   ",
"                                . . . . . . . . . . . . . . . . .           . . . . . . . . . . . . . . . . .                   ",
"                                . . . . . . . . . . . . . . . . .           . . . . . . . . . . . . . . . . .                   "
};
