/* XPM */
static char *result[] = {
/* columns rows colors chars-per-pixel */
"64 64 99 2 ",
"   c #130B1A",
".  c #130C1A",
"X  c #140D1C",
"o  c #140D1D",
"O  c #140E1D",
"+  c #150E1D",
"@  c #140E1E",
"#  c #150E1E",
"$  c #150F1E",
"%  c #150F1F",
"&  c #160F1F",
"*  c #15101F",
"=  c #161020",
"-  c #161120",
";  c #161121",
":  c #161122",
">  c #171222",
",  c #171223",
"<  c #171323",
"1  c #171324",
"2  c #181324",
"3  c #181425",
"4  c #181426",
"5  c #181526",
"6  c #191627",
"7  c #191628",
"8  c #1A1729",
"9  c #1A172A",
"0  c #1A182A",
"q  c #1A182B",
"w  c #1B182B",
"e  c #1B192B",
"r  c #1B192C",
"t  c #1B1A2C",
"y  c #1B1A2D",
"u  c #1C192C",
"i  c #1C1A2D",
"p  c #1C1A2E",
"a  c #1C1B2E",
"s  c #1D1D31",
"d  c #1E1E32",
"f  c #1F2034",
"g  c #1F2035",
"h  c #1F2036",
"j  c #202136",
"k  c #202137",
"l  c #202237",
"z  c #212237",
"x  c #202238",
"c  c #212338",
"v  c #202239",
"b  c #202339",
"n  c #212339",
"m  c #21233A",
"M  c #22233A",
"N  c #21243B",
"B  c #22243A",
"V  c #22243B",
"C  c #22253B",
"Z  c #23253B",
"A  c #23253D",
"S  c #23263D",
"D  c #23273E",
"F  c #24263D",
"G  c #24273E",
"H  c #24273F",
"J  c #242840",
"K  c #252942",
"L  c #262A43",
"P  c #262B43",
"I  c #262B44",
"U  c #262B45",
"Y  c #262C45",
"T  c #272C45",
"R  c #272C46",
"E  c #272D46",
"W  c #272D47",
"Q  c #282D47",
"!  c #282E47",
"~  c #272D48",
"^  c #282D49",
"/  c #282E48",
"(  c #282E49",
")  c #292E49",
"_  c #282F49",
"`  c #282F4A",
"'  c #29304A",
"]  c #29304B",
"[  c #29314B",
"{  c #2A314B",
"}  c #29314C",
"|  c #2A314C",
" . c #2A304D",
".. c #2A324D",
"X. c #2A324E",
"o. c #2B334F",
"O. c #2B344F",
"+. c #2B3450",
"@. c None",
/* pixels */
"@.@.@.@.@.@.@.@.@.@.@.@.@.@.@.@.@.@.@.@.@.@.@.@.@.@.@.@.@.@.@.@.@.@.@.@.@.@.@.@.@.@.@.@.@.@.@.@.@.@.@.@.@.@.@.@.@.@.@.@.@.@.@.@.",
"@.@.@.@.@.@.@.@.@.@.@.@.@.@.@.@.@.@.@.@.@.@.@.@.@.@.@.@.@.@.@.@.@.@.@.@.@.@.@.@.@.@.@.@.@.@.@.@.@.@.@.@.@.@.@.@.@.@.@.@.@.@.@.@.",
"@.@.@.@.@.@.@.@.@.@.@.@.@.@.@.@.@.@.@.@.@.@.@.@.@.@.@.@.@.@.@.@.@.@.@.@.@.@.@.@.@.@.@.@.@.@.@.@.@.@.@.@.@.@.@.@.@.@.@.@.@.@.@.@.",
"@.@.@.@.@.@.@.@.@.@.@.@.@.@.@.@.@.@.@.@.@.@.@.@.@.@.@.@.@.@.@.@.@.@.@.@.@.@.@.@.@.@.@.@.@.@.@.@.@.@.@.@.@.@.@.@.@.@.@.@.@.@.@.@.",
"@.@.@.@.@.@.@.@.@.@.@.@.@.@.@.@.@.@.@.@.@.@.@.@.@.@.@.@.@.@.@.@.@.@.@.@.@.@.@.@.@.@.@.@.@.@.@.@.@.@.@.@.@.@.@.@.@.@.@.@.@.@.@.@.",
"@.@.@.@.@.@.@.@.@.@.@.@.@.@.@.@.@.@.@.@.@.@.@.@.@.@.@.@.@.@.@.@.@.@.@.@.@.@.@.@.@.@.@.@.@.@.@.@.@.@.@.@.@.@.@.@.@.@.@.@.@.@.@.@.",
"@.@.@.@.@.@.@.@.@.@.@.@.@.@.@.@.@.@.@.@.@.@.@.@.@.@.@.@.@.@.@.@.@.@.@.@.@.@.@.@.@.@.@.@.@.@.@.@.@.@.@.@.@.@.@.@.@.@.@.@.@.@.@.@.",
"@.@.@.@.@.@.@.@.@.@.@.@.@.@.@.@.@.@.@.@.@.@.@.@.@.@.@.@.@.@.@.@.@.@.@.@.@.@.@.@.@.@.@.@.@.@.@.@.@.@.@.@.@.@.@.@.@.@.@.@.@.@.@.@.",
"@.@.@.@.@.@.@.@.@.@.@.@.@.@.@.@.@.@.@.@.@.@.@.@.@.@.@.@.@.@.@.@.@.@.@.@.@.@.@.@.@.@.@.@.@.@.@.@.@.@.@.@.@.@.@.@.@.@.@.@.@.@.@.@.",
"@.@.@.@.@.@.@.@.@.@.@.@.@.@.@.@.@.@.@.@.@.@.@.@.@.@.@.@.@.@.@.@.@.@.@.@.@.@.@.@.@.@.@.@.@.@.@.@.@.@.@.@.@.@.@.@.@.@.@.@.@.@.@.@.",
"@.@.@.@.@.@.@.@.@.@.@.@.@.@.@.@.@.@.@.@.@.@.@.@.@.@.@.@.@.@.@.@.@.@.@.@.@.@.@.@.@.@.@.@.@.@.@.@.@.@.@.@.@.@.@.@.@.@.@.@.@.@.@.@.",
"@.@.@.@.@.@.@.@.@.@.@.@.@.@.@.@.@.@.@.@.@.@.@.@.@.@.@.@.@.@.@.@.@.@.@.@.@.@.@.@.@.@.@.@.@.@.@.@.@.@.@.@.@.@.@.@.@.@.@.@.@.@.@.@.",
"@.@.@.@.@.@.@.@.@.@.@.@.@.@.@.@.@.@.@.@.@.@.@.@.@.@.@.@.@.@.@.@.@.@.@.@.@.@.@.@.@.@.@.@.@.@.@.@.@.@.@.@.@.@.@.@.@.@.@.@.@.@.@.@.",
"@.@.@.@.@.@.@.@.@.@.@.@.@.@.@.@.@.@.@.@.@.@.@.@.@.@.@.@.@.@.@.@.@.@.@.@.@.@.@.@.@.@.@.@.@.@.@.@.@.@.@.@.@.@.@.@.@.@.@.@.@.@.@.@.",
"@.@.@.@.@.@.@.@.@.@.@.@.@.@.@.@.@.@.@.@.@.@.@.@.@.@.@.@.@.@.@.@.@.@.@.@.@.@.@.@.@.@.@.@.@.@.@.@.@.@.@.@.@.@.@.@.@.@.@.@.@.@.@.@.",
"@.@.@.@.@.@.@.@.@.@.@.@.@.@.@.@.@.@.@.@.@.@.@.@.@.@.@.@.@.@.@.@.@.@.@.@.@.@.@.@.@.@.@.@.@.@.@.@.@.@.@.@.@.@.@.@.@.@.@.@.@.@.@.@.",
"@.@.@.@.@.@.@.@.@.@.@.@.@.@.@.@.@.@.@.@.@.@.@.@.@.@.@.@.@.@.@.@.@.@.@.@.@.@.@.@.@.@.@.@.@.@.@.@.@.@.@.@.@.@.@.@.@.@.@.@.@.@.@.@.",
"@.@.@.@.@.@.@.@.@.@.@.3 3 3 3 3 3 3 3 3 3 3 3 3 3 @.@.@.@.@.@.@.@.@.@.@.@.@.@.@.3 3 3 3 3 3 3 3 3 3 3 3 3 3 @.@.@.@.@.@.@.@.@.@.",
"@.@.@.@.@.@.@.@.@.@.@.3 3 3 3 3 3 3 3 3 3 3 3 3 3 @.@.@.@.@.@.@.@.@.@.@.@.@.@.@.3 3 3 3 3 3 3 3 3 3 3 3 3 3 @.@.@.@.@.@.@.@.@.@.",
"@.@.@.@.@.@.@.@.@.@.3 3 3 3 3 3 3 3 3 3 3 3 3 3 3 @.@.@.@.@.@.@.@.@.@.@.@.@.@.3 3 3 3 3 3 3 3 3 3 3 3 3 3 3 3 @.@.@.@.@.@.@.@.@.",
"@.@.@.@.@.@.@.@.@.5 , & = = = = = = = = = = = = = 2 4 @.@.@.@.@.@.@.@.@.@.@.5 2 = = = = = = = = = = = = = & , 5 @.@.@.@.@.@.@.@.",
"@.@.@.@.@.@.@.@.3 > y x g g g g g g g g g g g g h 7 < 3 @.@.@.@.@.@.@.@.@.3 , 8 j g g g g g g g g g g g g l e > 3 @.@.@.@.@.@.@.",
"@.@.@.@.@.@.3 4 1   f +._ _ _ _ _ _ _ _ _ _ _ ' ] 7 O 3 3 @.@.@.@.@.@.@.3 3 X q } ` _ _ _ _ _ _ _ _ _ _ _ O.s . 2 4 3 @.@.@.@.@.",
"@.@.@.@.@.@.2 > r Z H R I I I I I I I I I I I I I S z 4 1 @.@.@.@.@.@.@.< 6 n D Y I I I I I I I I I I I I R G B 0 > 2 @.@.@.@.@.",
"@.@.@.@.@.@.1 * p X.W L I I I I I I I I I I I I I ] R < < @.@.@.@.@.@.@.> 4 ^ ` I I I I I I I I I I I I I P ~  .w = 1 @.@.@.@.@.",
"@.@.@.@.@.@.@.@.@./ I I I I I I I I I I I I I I I T T @.@.@.@.@.@.@.@.@.@.@.E Y I I I I I I I I I I I I I I I ! @.@.@.@.@.@.@.@.",
"@.@.@.@.@.@.@.@.@.U I I I I I I I I I I I I I I I I W @.@.@.@.@.@.@.@.@.@.@.E I I I I I I I I I I I I I I I I Y @.@.@.@.@.@.@.@.",
"@.@.@.@.@.@.@.@.@.@.I I I I I I I I I I I I I I I @.@.@.@.@.@.@.@.@.@.@.@.@.@.@.I I I I I I I I I I I I I I @.@.@.@.@.@.@.@.@.@.",
"@.@.@.@.@.@.@.@.@.@.@.I I I I I I I I I I I I I I @.@.@.@.@.@.@.@.@.@.@.@.@.@.@.I I I I I I I I I I I I I I @.@.@.@.@.@.@.@.@.@.",
"@.@.@.@.@.@.@.@.@.@.@.@.@.@.@.@.@.@.@.@.@.@.@.@.@.@.@.@.@.@.@.@.@.@.@.@.@.@.@.@.@.@.@.@.@.@.@.@.@.@.@.@.@.@.@.@.@.@.@.@.@.@.@.@.",
"@.@.@.@.@.@.@.@.@.@.@.@.@.@.@.@.@.@.@.@.@.@.@.@.@.@.@.@.@.@.@.@.@.@.@.@.@.@.@.@.@.@.@.@.@.@.@.@.@.@.@.@.@.@.@.@.@.@.@.@.@.@.@.@.",
"@.@.@.@.@.@.@.@.@.@.@.@.@.@.@.@.@.@.@.@.@.@.@.@.@.@.@.@.@.@.@.@.@.@.@.@.@.@.@.@.@.@.@.@.@.@.@.@.@.@.@.@.@.@.@.@.@.@.@.@.@.@.@.@.",
"@.@.@.@.@.@.@.@.@.@.@.@.@.@.@.@.@.@.@.@.@.@.@.@.@.@.@.@.@.@.@.@.@.@.@.@.@.@.@.@.@.@.@.@.@.@.@.@.@.@.@.@.@.@.@.@.@.@.@.@.@.@.@.@.",
"@.@.@.@.@.@.@.@.@.@.@.@.@.@.@.@.@.@.@.@.@.@.@.@.@.@.@.@.@.@.@.@.@.@.@.@.@.@.@.@.@.@.@.@.@.@.@.@.@.@.@.@.@.@.@.@.@.@.@.@.@.@.@.@.",
"@.@.@.@.@.@.@.@.@.@.@.@.@.@.@.@.@.@.@.@.@.@.@.@.@.3 3 3 3 3 3 3 3 3 3 3 3 3 3 3 @.@.@.@.@.@.@.@.@.@.@.@.@.@.@.@.@.@.@.@.@.@.@.@.",
"@.@.@.@.@.@.@.@.@.@.@.@.@.@.@.@.@.@.@.@.@.@.@.@.@.3 3 3 3 3 3 3 3 3 3 3 3 3 3 3 @.@.@.@.@.@.@.@.@.@.@.@.@.@.@.@.@.@.@.@.@.@.@.@.",
"@.@.@.@.@.@.@.@.@.@.@.@.@.@.@.@.@.@.@.@.@.@.@.3 3 , , , , , , , , , , , , , , , 3 3 @.@.@.@.@.@.@.@.@.@.@.@.@.@.@.@.@.@.@.@.@.@.",
"@.@.@.@.@.@.@.@.@.@.@.@.@.@.@.@.@.@.@.@.@.@.@.3 3 6 7 7 7 7 7 7 7 7 7 7 7 7 7 6 3 3 @.@.@.@.@.@.@.@.@.@.@.@.@.@.@.@.@.@.@.@.@.@.",
"@.@.@.@.@.@.@.@.@.@.@.@.@.@.@.@.@.@.@.@.@.3 3 ; * D / I I I I I I I I I I I / C @ > 4 @.@.@.@.@.@.@.@.@.@.@.@.@.@.@.@.@.@.@.@.@.",
"@.@.@.@.@.@.@.@.@.@.@.@.@.@.@.@.@.@.@.@.@.3 2 0 y K ( R R R R R R R R R R R ) J t 8 2 @.@.@.@.@.@.@.@.@.@.@.@.@.@.@.@.@.@.@.@.@.",
"@.@.@.@.@.@.@.@.@.@.@.@.@.@.@.@.@.@.@.@.@.3 - C [ I I I I I I I I I I I I I I I | c * @.@.@.@.@.@.@.@.@.@.@.@.@.@.@.@.@.@.@.@.@.",
"@.@.@.@.@.@.@.@.@.@.@.@.@.@.@.@.@.@.@.@.@.@.$ m _ I I I I I I I I I I I I I I I _ k + @.@.@.@.@.@.@.@.@.@.@.@.@.@.@.@.@.@.@.@.@.",
"@.@.@.@.@.@.@.@.@.@.@.@.@.@.@.@.@.@.@.@.@.@.@.R Y I I I I I I I I I I I I I I I Y T @.@.@.@.@.@.@.@.@.@.@.@.@.@.@.@.@.@.@.@.@.@.",
"@.@.@.@.@.@.@.@.@.@.@.@.@.@.@.@.@.@.@.@.@.@.@.@.@.I I I I I I I I I I I I I I I @.@.@.@.@.@.@.@.@.@.@.@.@.@.@.@.@.@.@.@.@.@.@.@.",
"@.@.@.@.@.@.@.@.@.@.@.@.@.@.@.@.@.@.@.@.@.@.@.@.@.I I I I I I I I I I I I I I I @.@.@.@.@.@.@.@.@.@.@.@.@.@.@.@.@.@.@.@.@.@.@.@.",
"@.@.@.@.@.@.@.@.@.@.@.@.@.@.@.@.@.@.@.@.@.@.@.@.@.@.@.@.@.@.@.@.@.@.@.@.@.@.@.@.@.@.@.@.@.@.@.@.@.@.@.@.@.@.@.@.@.@.@.@.@.@.@.@.",
"@.@.@.@.@.@.@.@.@.@.@.@.@.@.@.@.@.@.@.@.@.@.@.@.@.@.@.@.@.@.@.@.@.@.@.@.@.@.@.@.@.@.@.@.@.@.@.@.@.@.@.@.@.@.@.@.@.@.@.@.@.@.@.@.",
"@.@.@.@.@.@.@.@.@.@.@.@.@.@.@.@.@.@.@.@.@.@.@.@.@.@.@.@.@.@.@.@.@.@.@.@.@.@.@.@.@.@.@.@.@.@.@.@.@.@.@.@.@.@.@.@.@.@.@.@.@.@.@.@.",
"@.@.@.@.@.@.@.@.@.@.@.@.@.@.@.@.@.@.@.@.@.@.@.@.@.@.@.@.@.@.@.@.@.@.@.@.@.@.@.@.@.@.@.@.@.@.@.@.@.@.@.@.@.@.@.@.@.@.@.@.@.@.@.@.",
"@.@.@.@.@.@.@.@.@.@.@.@.@.@.@.@.@.@.@.@.@.@.@.@.@.@.@.@.@.@.@.@.@.@.@.@.@.@.@.@.@.@.@.@.@.@.@.@.@.@.@.@.@.@.@.@.@.@.@.@.@.@.@.@.",
"@.@.@.@.@.@.@.@.@.@.@.@.@.@.@.@.@.@.@.@.@.@.@.@.@.@.@.@.@.@.@.@.@.@.@.@.@.@.@.@.@.@.@.@.@.@.@.@.@.@.@.@.@.@.@.@.@.@.@.@.@.@.@.@.",
"@.@.@.@.@.@.@.@.@.@.@.3 3 3 3 3 3 3 3 3 3 3 3 3 3 @.@.@.@.@.@.@.@.@.@.@.@.@.@.@.3 3 3 3 3 3 3 3 3 3 3 3 3 3 @.@.@.@.@.@.@.@.@.@.",
"@.@.@.@.@.@.@.@.@.@.3 3 3 3 3 3 3 3 3 3 3 3 3 3 3 3 @.@.@.@.@.@.@.@.@.@.@.@.@.3 3 3 3 3 3 3 3 3 3 3 3 3 3 3 3 @.@.@.@.@.@.@.@.@.",
"@.@.@.@.@.@.@.@.@.5 , & = = = = = = = = = = = = = 2 4 @.@.@.@.@.@.@.@.@.@.@.5 2 = = = = = = = = = = = = = & , 5 @.@.@.@.@.@.@.@.",
"@.@.@.@.@.@.@.3 3 > a N x x x x x x x x x x x v b 7 < 3 @.@.@.@.@.@.@.@.@.3 , 9 m x x x x x x x x x x x x N y > 3 3 @.@.@.@.@.@.",
"@.@.@.@.@.@.3 3 2 X g +._ _ _ _ _ _ _ _ _ _ _ ' ' 8 % 3 3 @.@.@.@.@.@.@.3 3 # r } _ _ _ _ _ _ _ _ _ _ _ _ o.d o 3 3 3 @.@.@.@.@.",
"@.@.@.@.@.@.2 : u F J T I I I I I I I I I I I I I H M 5 1 @.@.@.@.@.@.@.< 6 V H U I I I I I I I I I I I I Y J A w > 2 @.@.@.@.@.",
"@.@.@.@.@.@.1 % i ..E L I I I I I I I I I I I I I ' T , < @.@.@.@.@.@.@.> 3 ! _ I I I I I I I I I I I I I P W { w = 1 @.@.@.@.@.",
"@.@.@.@.@.@.@.@.@./ I I I I I I I I I I I I I I I T R @.@.@.@.@.@.@.@.@.@.@.W Y I I I I I I I I I I I I I I I Q @.@.@.@.@.@.@.@.",
"@.@.@.@.@.@.@.@.@.I I I I I I I I I I I I I I I I I E @.@.@.@.@.@.@.@.@.@.@.E I I I I I I I I I I I I I I I I Y @.@.@.@.@.@.@.@.",
"@.@.@.@.@.@.@.@.@.@.@.I I I I I I I I I I I I I I @.@.@.@.@.@.@.@.@.@.@.@.@.@.@.I I I I I I I I I I I I I I @.@.@.@.@.@.@.@.@.@.",
"@.@.@.@.@.@.@.@.@.@.@.I I I I I I I I I I I I I I @.@.@.@.@.@.@.@.@.@.@.@.@.@.@.I I I I I I I I I I I I I I @.@.@.@.@.@.@.@.@.@.",
"@.@.@.@.@.@.@.@.@.@.@.@.@.@.@.@.@.@.@.@.@.@.@.@.@.@.@.@.@.@.@.@.@.@.@.@.@.@.@.@.@.@.@.@.@.@.@.@.@.@.@.@.@.@.@.@.@.@.@.@.@.@.@.@.",
"@.@.@.@.@.@.@.@.@.@.@.@.@.@.@.@.@.@.@.@.@.@.@.@.@.@.@.@.@.@.@.@.@.@.@.@.@.@.@.@.@.@.@.@.@.@.@.@.@.@.@.@.@.@.@.@.@.@.@.@.@.@.@.@."
};
