/* XPM */
static char *result[] = {
/* columns rows colors chars-per-pixel */
"64 64 67 1 ",
"  c #141413",
". c #1C1C1B",
"X c #21201F",
"o c #252524",
"O c #282526",
"+ c #292926",
"@ c #2C2C2B",
"# c #322F2D",
"$ c #2F312F",
"% c #31312E",
"& c #2F2F30",
"* c #2F3030",
"= c #343432",
"- c #393634",
"; c #393936",
": c #3C3C3A",
"> c #45382B",
", c #423B34",
"< c #4B3B36",
"1 c #3F403D",
"2 c #41413E",
"3 c #48403D",
"4 c #4E483F",
"5 c #52463E",
"6 c #454543",
"7 c #4A4644",
"8 c #474946",
"9 c #494946",
"0 c #474949",
"q c #4C4C4B",
"w c #544F46",
"e c #594D46",
"r c #524E4C",
"t c #4F504E",
"y c #51514E",
"u c #58534F",
"i c #4F4F50",
"p c #545553",
"a c #595655",
"s c #565855",
"d c #595956",
"f c #575758",
"g c #575958",
"h c #5C5C5A",
"j c #615B57",
"k c #605F5E",
"l c #5F605D",
"z c #61615E",
"x c #5F6261",
"c c #646462",
"v c #686765",
"b c #666866",
"n c #696966",
"m c #6C6C6A",
"M c #6F706D",
"N c #71726E",
"B c #747573",
"V c #797775",
"C c #777874",
"Z c #797976",
"A c #7C7C7A",
"S c #807E7A",
"D c #80807E",
"F c #818281",
"G c #878B87",
"H c #888989",
"J c None",
/* pixels */
"JJJJJJJJJJJJJJJJJJJJJJJJJJJJJJJJJJJJJJJJJJJJJJJJJJJJJJJJJJJJJJJJ",
"JJJJJJJJJJJJJJJJJJJJJJJJJJJJJJJJJJJJJJJJJJJJJJJJJJJJJJJJJJJJJJJJ",
"JJJJJJJ:*JJJJJJJJJ7oJJJJJJJJ,:JJJJJJJJJJJJJJJJJJJ$:JJJJ=.JJJ+oJJ",
"0t0qtppmzqptpspptpbytspqqqp7cmqyiiqtpqiNlqyqyq7h8lBpq6pBgqy8vlq4",
"JJJJJJ.7qJJJJJJJJo0JJJJJJJJJ66JJJJJJJJ+70JJJJJJJJ=0JJJ+8;JJJ06JJ",
"JJJJJJJJJJJJJJJJJJJJJJJJJJJJJJJJJJJJJJJJJJJJJJJJJJJJJJJJJJJJJJJJ",
"JJJJJJJJJJJJJJJJJJJJJJJJJJJJJJJJJJJJJJJJJJJJJJJJJJJJJJJJJJJJJJJJ",
"JJ@OJJJJJJJJ2oJJJJJJJJJ=@JJJJoJJJpoJJJJJJJJJq:JJJJJJJJ8=oJJJJJJJ",
"NzNdNABnmhmmvhcBcNNVVBplcBZvjurrcmmpAmvBmBBqAA6vBAmvBnvVhBABmBc<",
"J:zq.=:+:dp1;p77q=:q:;+hz.8=7aJo6=hf6y6;+:@#qqJ66;-q00#hpX;66+oJ",
"JJJJJJJJJJJJJJJJJJJJJJJJJJJJJJJJJJJJJJJJJJJJJJJJJJJJJJJJJJJJJJJJ",
"JJJJJJJJJJJJJJJJJJJJJJJJJJJJJJJJJJJJJJJJJJJJJJJJJJJJJJJJJJJJJJJJ",
"JJJJJJJJJJJJJJJJJJJJJJJJJJJJJJJJJJJJJJJJJJJJJJJJJJJJJJJJJJJJJJJJ",
"2zApyypAk0ppt7p7:zAgqt77,qx8Bn660qqfg0cVp7yqqqyq6mcqsyrnp0q8Gm63",
";qnh:07zm770qq2q66nd260qi896lm67qpqq886cc606qqqq6hMqq7-ms27pbc7,",
"JJ+JJJJ.JJJJJJJJJJoJJJJJJJJJJ+JJJJJJJJJJJJJJJJJJJJ+JJJJ*JJJJJJJJ",
"JJJJJJJJJJJJJJJJJJJJJJJJJJJJJJJJJJJJJJJJJJJJJJJJJJJJJJJJJJJJJJJJ",
"JJJJJJJJJJJJJJJJJJJJJJJJJJJJJJJJJJJJJJJJJJJJJJJJJJJJJJJJJJJJJJJJ",
"JhihJJJJJJJ:py6JJpf6JJvp;JJ9h:yJJ7p7JJJJJJJnpt6JJJJJJJfd6JJBp00J",
"cqFBqchqdppqpBdfhpDvqgqNZppyfAyzctNgpzchhhcgmBphhcagrprVmppqNCyw",
"JJ6+JJJJJJJJ@:JJJJ:JJJJ;:JJJJ-JJJ.:JJJJJJJJJ+*JJJJJJJJ@@JJJJ@@JJ",
"JJJJJJJJJJJJJJJJJJJJJJJJJJJJJJJJJJJJJJJJJJJJJJJJJJJJJJJJJJJJJJJJ",
"JJJJJJJJJJJJJJJJJJJJJJJJJJJJJJJJJJJJJJJJJJJJJJJJJJJJJJJJJJJJJJJJ",
"JJJJJJ=6+JJJJJJJJ;#@JJJJJJJ=s6*JJJJJJJ;9+JJJJJJJJpp=JJJJJJJ;7+JJ",
"ylsdhdsNnpqqhhhlfcBrwrrpczcpBAplhlshlhhDnphzzhgcsNFgglhlhlhpBmd7",
"JJJJJJ.%qJJJJJJJJ+rJJJJJJJJJ:6JJJJJJJJo66JJJJJJJJ@qJJJJJJJJJ06JJ",
"JJJJJJJJJJJJJJJJJJJJJJJJJJJJJJJJJJJJJJJJJJJJJJJJJJJJJJJJJJJJJJJJ",
"JJJJJJJJJJJJJJJJJJJJJJJJJJJJJJJJJJJJJJJJJJJJJJJJJJJJJJJJJJJJJJJJ",
"JJq.JJJJJJJJJ:JJJJJJJJJ0=JJJJJJJJJJJJJJJJJJJJJJJJJJJJJg:@JJJJJJJ",
"vmNdzAmhhhcBmnmczcbvhnZAcccdcchvDMzccpcNmnNCvzgzcBABnhmmmvnBBVS3",
"J.ypJJJJJJJJ:v+JJJJJJJ+qkJJJJJJJJ:h:JJJJJJJ.qcJJJJJJJJ=p:JJJJJJJ",
"JJJJJJJJJJJJJJJJJJJJJJJJJJJJJJJJJJJJJJJJJJJJJJJJJJJJJJJJJJJJJJJJ",
"JJJJJJJJJJJJJJJJJJJJJJJJJJJJJJJJJJJJJJJJJJJJJJJJJJJJJJJJJJJJJJJJ",
"JJJJJJJJJJJJJJJJJJJJJJJJJJJJJJJJJJJJJJJJJJJJJJJJJJJJJJJJJJJJJJJJ",
"yMmdq7sAlq7qq0gmgmHh68tpvcvqAAgcyqqqzznBlghnvgdhdmmqqqvcxxccMlh3",
";1Mh;2;pNJ1222::-7Ns%-2::;;;pn2;;6362%2zt@7:=;18;qmq1,6:6;::nl;-",
"JJJJJJJJJJJJJJJJJJJJJJJJJJJJJJJJJJJJJJJJJJJJJJJJJJXJJJJJJJJJJJJJ",
"JJJJJJJJJJJJJJJJJJJJJJJJJJJJJJJJJJJJJJJJJJJJJJJJJJJJJJJJJJJJJJJJ",
"JJJJJJJJJJJJJJJJJJJJJJJJJJJJJJJJJJJJJJJJJJJJJJJJJJJJJJJJJJJJJJJJ",
"JhdrJJJJ=JJqfcNJJ8JJJJcc6JJJJJJJJcqyJJJJJJJpxshJJJJJJJbgpJJJJJJJ",
"pqNd7ypgscvphAbxscxbhf0Zmp73hzpmlqZcpmzpqgprcmsbf6:zhsdAzpcqznc>",
"JJ%JJJJJJJJJo&JJJJJJJJJ++JJJJJJJJ %JJJJJJJJJ+oJJJJJJJJJ@+JJJJJJJ",
"JJJJJJJJJJJJJJJJJJJJJJJJJJJJJJJJJJJJJJJJJJJJJJJJJJJJJJJJJJJJJJJJ",
"JJJJJJJJJJJJJJJJJJJJJJJJJJJJJJJJJJJJJJJJJJJJJJJJJJJJJJJJJJJJJJJJ",
"JJJJJJ60@JJJJJJJJ7q:JJJJJJJ:xq;JJq6:JJqd;JJJJJJJJiq:JJJJJJJq7;JJ",
"gvhprhsNNpdphzduqdDmpgchcxcpMNpchcZmmhzNzpzlzhpzrMHh7duuhhhdAbde",
"JJJJJJJ#6JJJJJJJJ :JJJJJJJJJ=,JJJo6JJJJ0:JJJJJJJJ@6JJJJJJJJJ26JJ",
"JJJJJJJJJJJJJJJJJJJJJJJJJJJJJJJJJJJJJJJJJJJJJJJJJJJJJJJJJJJJJJJJ",
"JJJJJJJJJJJJJJJJJJJJJJJJJJJJJJJJJJJJJJJJJJJJJJJJJJJJJJJJJJJJJJJJ",
"Jq%;JJJJJJJJ6=JJJJJJJJJ7JJJJJJJJJ6-JJJJJJJJJpJJJJq6JJJJ6.JJJJJJJ",
"fumNghgpdmzccZdqczhcgvzMk77ydpph0cAcghchnnpsAn0zpmBfpnmBximhppf5",
"J@q2JJJJJJJJ%06JJJJJJJ 8yJJJJJJJJ=p:JJJJJJJJ7qJJJ=f:JJop-JJJJJJJ",
"JJJJJJJJJJJJJJJJJJJJJJJJJJJJJJJJJJJJJJJJJJJJJJJJJJJJJJJJJJJJJJJJ",
"JJJJJJJJJJJJJJJJJJJJJJJJJJJJJJJJJJJJJJJJJJJJJJJJJJJJJJJJJJJJJJJJ",
"JJJJJJJ%JJJJJJJJJ=iJJJJ9=JJJJ.JJJJJJJJJ&JJJJJJJJJJoJJJ:i JJJ+JJJ",
"vBcvxhhBagvhBMBNccDxcvnFbcAcBmbxsnpsMhMAcnmmBngngMNxvnBFhfbmBck3",
"JJJJJJ=pzJJJJJJJJ;zqJJ=hgJqy6miJJJJJJJ9hhJJJJ;JJJgm:JJ,h8JJqgfJJ",
"JJJJJJJJJJJJJJJJJJJJJJJJJJJJJJJJJJJJJJJJJJJJJJJJJJJJJJJJJJJJJJJJ",
"JJJJJJJJJJJJJJJJJJJJJJJJJJJJJJJJJJJJJJJJJJJJJJJJJJJJJJJJJJJJJJJJ",
"JJJJJJJJJJJJJJJJJJJJJJJJJJJJJJJJJJJJJJJJJJJJJJJJJJJJJJJJJJJJJJJJ",
"@pmy-::-::;-nCq-=:=gc@pB0-,;:2=;;ch::;,f;=20Bg;6:vv:%@cV6;-;:::%",
"d6Nc67ssphs7sZqhdpgryp6dvqqihpppyrN06gsqppq2cm7p6qnyzpqvg1xhh7s,",
"JJ+oJJJJJJJJ @JJJJJJJJJ.6JJJJJJJJ.+JJJJJJJJJ+XJJJ.oJJJ @JJJJJJJJ",
"JJJJJJJJJJJJJJJJJJJJJJJJJJJJJJJJJJJJJJJJJJJJJJJJJJJJJJJJJJJJJJJJ"
};
