/* XPM */
static char *result[] = {
/* columns rows colors chars-per-pixel */
"64 64 67 1 ",
"  c #141413",
". c #1C1C1B",
"X c #21201F",
"o c #252524",
"O c #282526",
"+ c #292926",
"@ c #2C2C2B",
"# c #322F2D",
"$ c #2F312F",
"% c #31312E",
"& c #2F2F30",
"* c #2F3030",
"= c #343432",
"- c #393634",
"; c #393936",
": c #3C3C3A",
"> c #45382B",
", c #423B34",
"< c #4B3B36",
"1 c #3F403D",
"2 c #41413E",
"3 c #48403D",
"4 c #4E483F",
"5 c #52463E",
"6 c #454543",
"7 c #4A4644",
"8 c #474946",
"9 c #494946",
"0 c #474949",
"q c #4C4C4B",
"w c #544F46",
"e c #594D46",
"r c #524E4C",
"t c #4F504E",
"y c #51514E",
"u c #58534F",
"i c #4F4F50",
"p c #545553",
"a c #595655",
"s c #565855",
"d c #595956",
"f c #575758",
"g c #575958",
"h c #5C5C5A",
"j c #615B57",
"k c #605F5E",
"l c #5F605D",
"z c #61615E",
"x c #5F6261",
"c c #646462",
"v c #686765",
"b c #666866",
"n c #696966",
"m c #6C6C6A",
"M c #6F706D",
"N c #71726E",
"B c #747573",
"V c #797775",
"C c #777874",
"Z c #797976",
"A c #7C7C7A",
"S c #807E7A",
"D c #80807E",
"F c #818281",
"G c #878B87",
"H c #888989",
"J c None",
/* pixels */
"JJJs@JJJJbJJJJdJJJJhJJJJpJJJJ;tJJJJvJJJJtJJJJcJJJJ;6JJJJmJJJJqJJ",
"JJJ7pJJJJVJJJ@p9JJJcJJJJ9hJJJ2mJJJ.mJJJJlJJJJqhJJJqxJJJ:cJJJJqJJ",
"JJONmJJJJcJJJqm#JJJhJJJ%NaJJJMmJJJymqJJJfJJJ2FiJJ+nAJJJzN@JJJ9JJ",
"JJXcyJJJJcJJJ2N;JJJpJJJJjrJJJhhJJJsdXJJJhJJJ+BdJJJhpJJJ9dOJJJqJJ",
"JJJ6=JJJJcJJJJdJJJJyJJJJ6JJJJ;qJJJJzJJJJhJJJJ9JJJJ:qJJJ.NJJJJtJJ",
"JJJ9:JJJJhJJJJhJJJJhJJJJuJJJJ29JJJJAJJJJdJJJJcJJJJ9rJJJ=SJJJJpJJ",
"JJJs:JJJ=hJJJJhJJJJs6JJJpJJJJ;fJJJJmJJJ.s%JJJhJJJJ9sJJJ:BJJJ.fJJ",
"JJJs;JJJpB@JJJpJJJ@B9JJJdJJJJpAJJJJdJJJ#B7JJJqJJJXhAJJJ@mJJJ6m:J",
"JJJs:JJJzaJJJJdJJJ7m$JJJg=JJJNzJJJJlJJJqm@JJJsJJJJmxJJJ:mJJJqz*J",
"JJJh;JJJJdJJJJmJJJJpJJJJxJJJJJqJJJJhJJJJpJJJJsJJJJ69JJJddJJJJqJJ",
"JJJd:JJJJcJJJJcJJJJaJJJJcJJJJ19JJJJcJJJJqJJJJpJJJJ6fJJJsmJJJJpJJ",
"JJJ7=JJJJhJJJJcJJJJsJJJJfqJJJ19JJJJBJJJJqJJJJq:JJJ9pJJJ,mJJJJtJJ",
"JJ sbJJJJBJJJ=z6JJJhJJJodfJJJ6qJJJ;mJJJJhJJJ@fpJJJqqJJJ;c2JJJpJJ",
"JJ@ZVJJJJNJJJ9B=JJJzJJJ&AcJJJ68JJJcm,JJJlJJJ2BqJJJq7JJJakoJJJdJJ",
"JJJqqJJJJBJJJ6sJJJJdJJJJbMJJJ:hJJJ@mJJJJhJJJJs7JJJ6pJJJ9zJJJJpJJ",
"JJJh=JJJJMJJJJyJJJJuJJJJxJJJJ:mJJJJzJJJJhJJJJsJJJJq6JJJ9BJJJJsJJ",
"JJJd=JJJJcJJJJcJJJJ7JJJJpJJJJ;dJJJJzJJJJfJJJJhJJJJ6:JJJqcJJJJqJJ",
"JJJp:JJJ-x=JJJzJJJ d9JJJc0JJJ6nJJJJcJJJ@c;JJJppJJJ2cJJJ=BJJJ+sJJ",
"JJJd=JJJcSpJJJhJJJ:ArJJJxJJJJMHJJJJbJJJqN#JJ;FfJJ+nAJJJ:mJJJ9n7J",
"JJJthJJJqxJJJJcJJJJN;JJJbJJJJfhJJJJcJJJJr#JJJv9JJJddJJJqCJJJJqoJ",
"JJJqcJJJJcJJJJdJJJJpJJJJhJJJJ=7JJJJhJJJJ7JJJJqJJJJ:qJJJ:VJJJJtJJ",
"JJJa@JJJJcJJJJcJJJJhJJJJsJJJJ=7JJJJnJJJJuJJJJsJJJJ6qJJJ;VJJJJgJJ",
"JJJ6sJJJ=nJJJ zJJJJzJJJJ0cJJJ2qJJJ@CJJJJrJJJJicJJJ98JJJ+fJJJJsJJ",
"JJ.dBJJJhF0JJ9m7JJJhJJJ@CcJJJ1sJJJqZqJJJaJJJ;MdJJJq7JJJhh=JJJqJJ",
"JJ6c9JJJdb=JJykJJJJzJJJ+m7JJJ:cJJJcz=JJJcJJJ:C;JJJi:JJJcc@JJJqJJ",
"JJJ9;JJJJcJJJJ7JJJJhJJJJpJJJJ:cJJJJcJJJJzJJJJpJJJJ7qJJJ.BJJJJqJJ",
"JJJ91JJJqAJJJJ7JJJJcJJJJ7JJJJ;cJJJJcJJJJcJJJJfJJJJ0hJJJ7ZJJJJpJJ",
"JJJq;JJJicJJJJyJJJJp:JJJ,JJJJ:qJJJJdJJJJf=JJJr9JJJ67JJJ=cJJJJ9JJ",
"JJJx:JJJ7MJJJJsJJJ=MxJJJzJJJJpAJJJJcJJJ:BpJJJahJJJhBJJJ7jJJJ6c1J",
"JJJp,JJJmm.JJJsJJJ,NiJJJcJJJJnAJJJJcJJJ7Z7JJ=A:JJ+mnJJJauOJJ6m;J",
"JJJp=JJJibJJJJfJJJJp;JJJpJJJJ2dJJJJhJJJJp$JJJpiJJJ77JJJJrJJJJ9JJ",
"JJJd:JJJJxJJJJhJJJJcJJJJmJJJJ;cJJJJcJJJJlJJJJlJJJJ06JJJXrJJJJpJJ",
"JJJy:JJJJpJJJJ9JJJJdJJJJhJJJJ;tJJJJFJJJJdJJJJcJJJJq9JJJ6lJJJJqJJ",
"JJ.rxJJJJnJJJ=c6JJOzqJJ qcJJJ6qJJJ;mJJJJlJJJ.t9JJJpqJJJ=MsJJJtJJ",
"JJ@NkJJJJfJJJpZ;JJ7Z0JJ%CqJJJ6qJJJhcJJJJfJJJ:NpJJJqiJJJdm+JJJqJJ",
"JJJ9;JJJJgJJJ:cJJJJm:JJJcyJJJ6qJJJ,bJJJJhJJJJh9JJJ0fJJJsfJJJJpJJ",
"JJJ6:JJJJmJJJJdJJJJMJJJJpJJJJ,cJJJJcJJJJxJJJJpJJJJ6gJJJ7AJJJJpJJ",
"JJJd;JJJJhJJJJdJJJJdJJJJnJJJJ=cJJJJsJJJJdJJJJcJJJJ79JJJimJJJJ9JJ",
"JJJp:JJJ0MJJJJcJJJJlqJJJxJJJJ:nJJJJcJJJoh;JJJzJJJJ7cJJJ6cJJJ@tJJ",
"JJJqsJJJxA@JJJhJJJqNdJJJpJJJJcBJJJJNJJJ6D7JJJhJJJJcBJJJ;CJJJ6MJJ",
"JJJs;JJJdcJJJJbJJJ:z:JJJqJJJJyzJJJJnJJJ6n@JJJhJJJJcpJJJ+mJJJ9zJJ",
"JJJp=JJJJbJJJJnJJJJsJJJJdJJJJ#hJJJJnJJJJpJJJJdJJJJ69JJJ:BJJJJ9JJ",
"JJJq,JJJJMJJJJsJJJJzJJJJpJJJJ6hJJJJNJJJJhJJJJcJJJJ9iJJJ@VJJJJpJJ",
"JJJ2qJJJJmJJJJsJJJJlJJJJqsJJJ:bJJJ.CJJJJzJJJJdnJJJ7qJJJ=9JJJJqJJ",
"JJ@cBJJJJBJJJ9ZsJJJlJJJ@cxJJJ=cJJJqnJJJJzJJJ@msJJJqqJJJqZqJJJtJJ",
"JJ.ndJJJ;mJJJqmJJJJdJJJXmpJJJ;hJJJclJJJJhJJJ@VqJJJqtJJJqA:JJJqJJ",
"JJJ8:JJJJdJJJJ9JJJJfJJJJphJJJ2aJJJJdJJJJdJJJJp7JJJqtJJJJ8JJJJ9JJ",
"JJJp7JJJJcJJJJlJJJJlJJJJnJJJJ0hJJJJzJJJJcJJJJhJJJJqqJJJ6cJJJJdJJ",
"JJJ7:JJJJdJJJJdJJJJpJJJJdJJJJ;sJJJJcJJJJpJJJJhJJJJ66JJJ7BJJJJ8JJ",
"JJ.qcJJJfMJJJ=mqJJ@mpJJJ6JJJJqmJJJJBJJJ&NpJJJnJJJJhmJJJ;AJJJ=h&J",
"JJobcJJJmBoJJsV2JJ7G0JJJ:JJJ.MmJJJJCJJJqFiJJJpJJJ+mcJJJ;mJJJ9B:J",
"JJJy2JJJ;xJJJ:sJJJJh;JJJkJJJJ9tJJJJVJJJJg=JJJdJJJJt0JJJ9nJJJJpJJ",
"JJJz#JJJJcJJJJsJJJJ7JJJJhJJJJ:qJJJJnJJJJgJJJJqJJJJqdJJJ9BJJJJqJJ",
"JJJp@JJJJnJJJJvJJJJdJJJJfJJJJ2qJJJJhJJJJxJJJJsJJJJ6yJJJqnJJJJ0JJ",
"JJ qcJJJ1V;JJOmJJJJyJJJJdbJJJ2nJJJ=ndJJJhJJJ@rsJJJ-eJJJ@c0JJ+pJJ",
"JJ@nVJJJhFpJJiB7JJJpJJJ@ZdJJJ:cJJJpm1JJJhJJJ@VaJJ*mnJJJhV=JJ7B=J",
"JJJs7JJJ7h JJ=c.JJJhJJJ+zpJJJ2lJJJ:m$JJJhJJJJm6JJJfpJJJphoJJ;h.J",
"JJJ2:JJJJfJJJJiJJJJlJJJJsJJJJ;cJJJJcJJJJlJJJJsJJJJ1qJJJXVJJJJqJJ",
"JJJc=JJJJbJJJJmJJJJdJJJJcJJJJ:cJJJJnJJJJdJJJJfJJJJ89JJJ;ZJJJJyJJ",
"JJJh;JJJtmJJJJhJJJJftJJJqJJJJ:vJJJJBJJJJs;JJJqBJJJp8JJJ2BJJJJ9JJ",
"JJJh:JJJsV@JJJaJJJ2A6JJJzJJJJmNJJJJBJJJ9V6JJ@BpJJJbGJJJ2NJJJ9c@J",
"JJJ9:JJJscJJJJpJJJ6n;JJJnJJJJhhJJJJZJJJ7m+JJ@Z9JJJzMJJJ@BJJJ6xoJ",
"JJJs;JJJJhJJJJpJJJJdJJJJcJJJJ;hJJJJAJJJJdJJJJt9JJJ86JJJocJJJJqJJ",
"JJJ,#JJJJ3JJJJ5JJJJeJJJJ>JJJJ;3JJJJ2JJJJ5JJJJwJJJJ,3JJJJ<JJJJ4JJ"
};
